<?xml version="1.0" encoding="UTF-8" standalone="no"?>
<!-- Generator: Adobe Illustrator 16.0.0, SVG Export Plug-In . SVG Version: 6.00 Build 0)  -->

<svg
   xmlns:dc="http://purl.org/dc/elements/1.1/"
   xmlns:cc="http://creativecommons.org/ns#"
   xmlns:rdf="http://www.w3.org/1999/02/22-rdf-syntax-ns#"
   xmlns:svg="http://www.w3.org/2000/svg"
   xmlns="http://www.w3.org/2000/svg"
   xmlns:xlink="http://www.w3.org/1999/xlink"
   xmlns:sodipodi="http://sodipodi.sourceforge.net/DTD/sodipodi-0.dtd"
   xmlns:inkscape="http://www.inkscape.org/namespaces/inkscape"
   version="1.1"
   id="Calque_1"
   x="0px"
   y="0px"
   width="90.573174"
   height="80"
   viewBox="0 0 90.573174 80"
   enable-background="new 0 0 100 100"
   xml:space="preserve"
   inkscape:version="0.48.4 r9939"
   sodipodi:docname="couverture.svg"><metadata
   id="metadata63"><rdf:RDF><cc:Work
       rdf:about=""><dc:format>image/svg+xml</dc:format><dc:type
         rdf:resource="http://purl.org/dc/dcmitype/StillImage" /><dc:title /></cc:Work></rdf:RDF></metadata><defs
   id="defs61" /><sodipodi:namedview
   pagecolor="#ffffff"
   bordercolor="#666666"
   borderopacity="1"
   objecttolerance="10"
   gridtolerance="10"
   guidetolerance="10"
   inkscape:pageopacity="0"
   inkscape:pageshadow="2"
   inkscape:window-width="1366"
   inkscape:window-height="706"
   id="namedview59"
   showgrid="false"
   inkscape:zoom="2.36"
   inkscape:cx="49.943571"
   inkscape:cy="45.470859"
   inkscape:window-x="-8"
   inkscape:window-y="-8"
   inkscape:window-maximized="1"
   inkscape:current-layer="Calque_1"
   fit-margin-top="0"
   fit-margin-left="0"
   fit-margin-right="0"
   fit-margin-bottom="0" />
<path
   stroke-miterlimit="10"
   d="M 23.251951,32.937423 C 22.461956,33.405027 -0.21044856,55.783352 0.71197353,57.362429 1.6343956,58.938767 53.985046,80.118856 56.713041,79.291416 58.851964,78.641154 76.213592,54.307477 84.235011,45.913436 91.437209,38.376974 91.379672,18.364981 88.616059,13.412214 83.992076,5.1305069 29.582872,0.8526609 26.066708,0.2471499 20.982427,-0.6277811 11.140823,29.266001 22.169703,32.603159 33.19767,35.940318 72.628018,50.867117 80.045753,46.312544 87.130137,41.965287 91.452735,18.10652 84.193913,14.894482 75.0802,10.861397 68.656123,40.126836 76.792617,43.252111 c 5.363747,2.060381 10.000517,-19.596446 6.27795,-21.401105 -4.1509,-2.014716 -6.303522,14.786152 -5.148211,15.564274 1.000965,0.674008 1.890508,-1.492314 2.518851,-3.746312"
   id="path3"
   inkscape:connector-curvature="0"
   style="fill:#efacbf;stroke:#bf19d1;stroke-width:0.45664459;stroke-miterlimit:10" />
<path
   stroke-miterlimit="10"
   d="M 56.629018,79.314249 C 57.745971,79.002817 67.363819,66.534593 71.14027,61.769963"
   id="path5"
   inkscape:connector-curvature="0"
   style="fill:none;stroke:#bf19d1;stroke-width:1.36993384;stroke-miterlimit:10" />
<g
   id="g7"
   transform="matrix(0.91328919,0,0,0.91328919,-0.05153624,-7.192504)">
	<path
   d="m 62.154,94.694 c -0.012,-0.014 0.191,-0.074 0.439,-0.338 0.263,-0.236 0.604,-0.653 1.042,-1.162 0.873,-1.028 2.014,-2.592 3.412,-4.44 1.393,-1.855 3.017,-4.02 4.757,-6.339 1.742,-2.319 3.637,-4.767 5.532,-7.215 0.963,-1.213 1.925,-2.426 2.872,-3.62 0.943,-1.197 1.907,-2.348 2.827,-3.472 1.849,-2.241 3.615,-4.301 5.174,-6.03 1.547,-1.738 2.916,-3.118 3.867,-4.087 0.474,-0.485 0.871,-0.845 1.138,-1.092 0.266,-0.248 0.408,-0.38 0.408,-0.38 0,0 -0.483,0.605 -1.328,1.666 -0.854,1.052 -2.01,2.604 -3.422,4.442 -1.406,1.845 -3.046,3.997 -4.804,6.303 -1.754,2.309 -3.657,4.747 -5.552,7.193 -1.919,2.428 -3.833,4.861 -5.677,7.104 -1.836,2.25 -3.584,4.325 -5.128,6.067 -1.536,1.749 -2.889,3.146 -3.865,4.097 -0.492,0.474 -0.9,0.818 -1.208,1.03 -0.289,0.23 -0.492,0.258 -0.484,0.273 z"
   id="path9"
   inkscape:connector-curvature="0"
   style="fill:#bf19d1" />
</g>
<path
   stroke-miterlimit="10"
   d="M 0.71197353,57.362429 C 1.6343956,58.938767 53.985046,80.118856 56.713041,79.291416"
   id="path11"
   inkscape:connector-curvature="0"
   style="fill:none;stroke:#bf19d1;stroke-width:1.36993384;stroke-miterlimit:10" />
<path
   stroke-miterlimit="10"
   d="M 23.251951,32.937423 C 22.799873,33.696367 -0.21044856,55.783352 0.71197353,57.362429"
   id="path13"
   inkscape:connector-curvature="0"
   style="fill:none;stroke:#bf19d1;stroke-width:1.36993384;stroke-miterlimit:10" />
<g
   id="g15"
   transform="matrix(0.91328919,0,0,0.91328919,-0.05153624,-7.192504)">
	<path
   d="m 92.243,24.184 c 0,0 -0.148,-0.035 -0.427,-0.1 -0.139,-0.032 -0.31,-0.072 -0.512,-0.12 -0.2,-0.008 -0.43,-0.017 -0.688,-0.026 -0.506,-0.006 -1.125,0.124 -1.763,0.404 -0.623,0.321 -1.277,0.77 -1.875,1.405 -0.624,0.601 -1.157,1.402 -1.711,2.236 -0.508,0.875 -1.008,1.818 -1.44,2.841 -0.46,1.009 -0.815,2.106 -1.193,3.211 -0.346,1.118 -0.667,2.264 -0.912,3.429 -0.275,1.158 -0.484,2.332 -0.646,3.492 -0.155,1.161 -0.285,2.306 -0.342,3.419 -0.036,1.111 -0.072,2.19 0.001,3.203 0.048,1.018 0.187,1.966 0.357,2.833 0.084,0.434 0.227,0.829 0.32,1.223 0.143,0.37 0.261,0.736 0.41,1.061 0.309,0.644 0.668,1.157 1.016,1.54 0.188,0.179 0.357,0.337 0.504,0.476 0.153,0.133 0.312,0.207 0.427,0.289 0.241,0.152 0.37,0.234 0.37,0.234 0,0 -0.142,-0.057 -0.407,-0.162 -0.13,-0.059 -0.308,-0.107 -0.489,-0.212 -0.176,-0.12 -0.377,-0.257 -0.603,-0.41 -0.42,-0.35 -0.88,-0.841 -1.305,-1.483 -0.208,-0.322 -0.387,-0.688 -0.596,-1.068 -0.156,-0.396 -0.341,-0.813 -0.479,-1.261 -0.277,-0.896 -0.524,-1.889 -0.642,-2.951 -0.153,-1.06 -0.207,-2.186 -0.206,-3.348 0.021,-1.16 0.065,-2.361 0.226,-3.568 0.151,-1.208 0.349,-2.429 0.621,-3.635 0.272,-1.206 0.623,-2.394 1,-3.552 0.4,-1.152 0.852,-2.267 1.371,-3.312 0.489,-1.058 1.104,-2.018 1.708,-2.906 0.65,-0.862 1.306,-1.656 2.061,-2.25 0.711,-0.636 1.521,-1.042 2.255,-1.292 0.757,-0.215 1.438,-0.257 1.987,-0.175 0.274,0.051 0.517,0.094 0.718,0.147 0.189,0.083 0.352,0.154 0.481,0.212 0.264,0.114 0.403,0.176 0.403,0.176 z"
   id="path17"
   inkscape:connector-curvature="0"
   style="fill:#bf19d1" />
</g>
<g
   id="g19"
   transform="matrix(0.91328919,0,0,0.91328919,-0.05153624,-7.192504)">
	<path
   d="m 91.014,31.801 c 0,0 -0.115,-0.025 -0.331,-0.073 -0.221,-0.046 -0.524,-0.019 -0.873,0.12 -0.693,0.332 -1.323,1.304 -1.812,2.57 -0.496,1.268 -0.903,2.829 -1.248,4.521 -0.338,1.692 -0.634,3.52 -0.81,5.35 -0.101,0.912 -0.174,1.83 -0.176,2.708 -0.002,0.434 0.018,0.88 0.071,1.212 0.012,0.103 0.032,0.121 0.036,0.166 0.007,0.02 -0.04,-0.081 -0.088,-0.088 L 85.764,48.28 c 0.065,0.04 -0.104,-0.057 -0.081,-0.045 l 0.01,0.005 0.037,0.02 0.073,0.04 0.071,0.039 c -0.009,-0.012 -0.021,-0.021 -0.034,-0.027 -0.024,-0.015 -0.065,0.003 -0.057,-0.006 -0.013,0.009 0.005,0.001 0.031,-0.002 0.154,-0.069 0.41,-0.389 0.602,-0.702 0.199,-0.323 0.378,-0.674 0.533,-1.029 0.31,-0.71 0.571,-1.416 0.802,-2.071 0.451,-1.316 0.794,-2.438 1.036,-3.224 0.241,-0.788 0.379,-1.239 0.379,-1.239 0,0 -0.013,0.473 -0.086,1.296 -0.078,0.823 -0.209,1.998 -0.498,3.394 -0.146,0.699 -0.317,1.456 -0.589,2.249 -0.133,0.397 -0.29,0.805 -0.496,1.223 -0.223,0.414 -0.443,0.86 -1.043,1.258 -0.174,0.09 -0.358,0.169 -0.598,0.184 -0.102,0.02 -0.251,-0.004 -0.385,-0.034 -0.067,-0.016 -0.134,-0.036 -0.198,-0.058 L 85.196,49.514 85.12,49.478 85.082,49.46 85.073,49.456 c 0.016,0.01 -0.157,-0.093 -0.096,-0.059 l -0.046,-0.04 c -0.112,-0.097 -0.253,-0.271 -0.287,-0.355 -0.076,-0.166 -0.149,-0.354 -0.17,-0.476 -0.131,-0.553 -0.154,-1.028 -0.16,-1.515 -0.016,-0.968 0.043,-1.922 0.132,-2.875 0.216,-1.898 0.543,-3.775 1.02,-5.501 0.463,-1.726 1.044,-3.312 1.757,-4.585 0.679,-1.268 1.591,-2.262 2.489,-2.482 0.438,-0.094 0.804,-0.006 0.995,0.084 0.201,0.097 0.307,0.149 0.307,0.149 z"
   id="path21"
   inkscape:connector-curvature="0"
   style="fill:#bf19d1" />
</g>
<g
   id="g23"
   transform="matrix(0.91328919,0,0,0.91328919,-0.05153624,-7.192504)">
	<path
   d="m 28.598,8.146 c 0.003,0.016 -0.169,-0.033 -0.456,0.04 -0.288,0.061 -0.676,0.262 -1.092,0.612 -0.842,0.704 -1.706,2.054 -2.554,3.744 -0.841,1.701 -1.663,3.767 -2.391,6.03 -0.722,2.264 -1.375,4.72 -1.829,7.208 -0.241,1.241 -0.431,2.491 -0.56,3.725 -0.122,1.234 -0.221,2.451 -0.217,3.626 -0.013,2.348 0.276,4.538 0.945,6.265 0.341,0.857 0.757,1.601 1.226,2.19 0.469,0.59 0.987,1.016 1.449,1.312 0.461,0.3 0.86,0.488 1.136,0.606 0.279,0.116 0.428,0.177 0.428,0.177 0,0 -0.158,-0.035 -0.453,-0.1 -0.293,-0.074 -0.737,-0.171 -1.254,-0.428 -0.52,-0.245 -1.129,-0.622 -1.718,-1.19 -0.591,-0.563 -1.155,-1.315 -1.602,-2.217 -0.914,-1.8 -1.386,-4.131 -1.479,-6.591 -0.114,-2.47 0.161,-5.087 0.624,-7.653 0.5,-2.562 1.194,-5.08 2.058,-7.364 0.85,-2.289 1.845,-4.354 2.888,-6.017 1.029,-1.667 2.155,-2.917 3.129,-3.558 0.486,-0.324 0.948,-0.444 1.256,-0.459 0.314,-0.02 0.462,0.057 0.466,0.042 z"
   id="path25"
   inkscape:connector-curvature="0"
   style="fill:#bf19d1" />
</g>
<g
   id="g27"
   transform="matrix(0.91328919,0,0,0.91328919,-0.05153624,-7.192504)">
	<g
   id="g29">
		<g
   enable-background="new    "
   id="g31">
			<defs
   id="defs33">
				<polygon
   id="SVGID_1_"
   enable-background="new    "
   points="25.912,77.21 29.576,59.004 52.396,60.298 48.733,78.504 " />
			</defs>
			<clipPath
   id="SVGID_2_">
				<use
   xlink:href="#SVGID_1_"
   overflow="visible"
   id="use37"
   style="overflow:visible"
   x="0"
   y="0"
   width="100"
   height="100" />
			</clipPath>
			<g
   clip-path="url(#SVGID_2_)"
   id="g39">
				<g
   id="g41">
					<g
   id="g43">
						<g
   id="g45">
							<path
   d="m 40.012,59.596 c -1.575,-0.09 -3.437,0.896 -4.492,2.482 -1.248,1.895 -0.881,3.931 0.827,4.542 0.273,0.1 0.564,0.155 0.866,0.173 1.575,0.089 3.437,-0.896 4.483,-2.485 1.246,-1.888 0.879,-3.924 -0.827,-4.542 -0.27,-0.098 -0.558,-0.154 -0.857,-0.17"
   id="path47"
   inkscape:connector-curvature="0"
   style="fill:#ffffff" />
							<path
   d="m 36.664,67.688 c -1.954,-0.11 -3.654,0.438 -4.772,1.146 -0.051,0.033 -0.148,0.07 -0.245,0.108 -0.116,0.043 -0.241,0.086 -0.351,0.145 -1.172,0.59 -2.101,1.388 -2.624,2.259 -0.544,0.927 -0.571,1.818 -0.06,2.512 0.202,0.284 0.481,0.492 0.84,0.62 0.266,0.094 0.552,0.143 0.857,0.159 0.546,0.031 1.153,-0.035 1.82,-0.107 0.667,-0.077 1.353,-0.152 2.046,-0.142 0.08,0.005 0.353,0.069 0.785,0.229 0.509,0.18 0.85,0.35 0.91,0.402 0.419,0.403 0.732,0.842 1.039,1.274 0.458,0.654 0.896,1.272 1.637,1.535 0.207,0.078 0.432,0.123 0.67,0.136 0.125,0.008 0.252,0.006 0.384,-0.003 2.099,-0.182 3.779,-2.138 3.728,-4.37 0.005,-0.114 -0.018,-0.224 -0.041,-0.331 -0.017,-0.095 -0.026,-0.181 -0.021,-0.251 0.118,-1.474 -0.82,-3.599 -3.86,-4.736 L 39.281,68.231 C 38.38,67.902 37.499,67.735 36.664,67.688"
   id="path49"
   inkscape:connector-curvature="0"
   style="fill:#ffffff" />
							<path
   d="m 46.571,61.969 c -1.576,-0.089 -3.438,0.896 -4.493,2.482 -1.246,1.887 -0.88,3.93 0.827,4.542 0.271,0.098 0.56,0.152 0.858,0.169 1.576,0.09 3.438,-0.896 4.492,-2.481 1.248,-1.896 0.879,-3.924 -0.827,-4.542 -0.27,-0.098 -0.558,-0.154 -0.857,-0.17"
   id="path51"
   inkscape:connector-curvature="0"
   style="fill:#ffffff" />
							<path
   d="m 48.422,68.918 c -1.239,-0.07 -2.653,0.682 -3.479,1.935 -0.987,1.487 -0.694,3.048 0.672,3.539 0.224,0.082 0.462,0.128 0.707,0.142 1.237,0.07 2.659,-0.685 3.483,-1.927 0.989,-1.495 0.695,-3.055 -0.67,-3.547 -0.227,-0.081 -0.467,-0.128 -0.713,-0.142"
   id="path53"
   inkscape:connector-curvature="0"
   style="fill:#ffffff" />
							<path
   d="m 31.979,62.983 c -1.239,-0.07 -2.653,0.681 -3.477,1.927 -0.989,1.495 -0.694,3.048 0.67,3.547 0.226,0.082 0.464,0.128 0.709,0.142 1.24,0.07 2.657,-0.686 3.482,-1.934 0.988,-1.494 0.694,-3.047 -0.672,-3.54 -0.225,-0.081 -0.465,-0.128 -0.712,-0.142"
   id="path55"
   inkscape:connector-curvature="0"
   style="fill:#ffffff" />
						</g>
					</g>
				</g>
			</g>
		</g>
	</g>
</g>
<path
   stroke-miterlimit="10"
   d="M 16.273508,32.25063"
   id="path57"
   inkscape:connector-curvature="0"
   style="fill:#efacbf;stroke:#ffffff;stroke-width:0.91328919;stroke-miterlimit:10" />
</svg>