<?xml version="1.0" encoding="UTF-8" standalone="no"?>
<!-- Generator: Adobe Illustrator 16.0.0, SVG Export Plug-In . SVG Version: 6.00 Build 0)  -->

<svg
   xmlns:dc="http://purl.org/dc/elements/1.1/"
   xmlns:cc="http://creativecommons.org/ns#"
   xmlns:rdf="http://www.w3.org/1999/02/22-rdf-syntax-ns#"
   xmlns:svg="http://www.w3.org/2000/svg"
   xmlns="http://www.w3.org/2000/svg"
   xmlns:xlink="http://www.w3.org/1999/xlink"
   xmlns:sodipodi="http://sodipodi.sourceforge.net/DTD/sodipodi-0.dtd"
   xmlns:inkscape="http://www.inkscape.org/namespaces/inkscape"
   version="1.1"
   id="Calque_1"
   x="0px"
   y="0px"
   width="90"
   height="80"
   viewBox="0 0 90 80"
   enable-background="new 0 0 100 100"
   xml:space="preserve"
   inkscape:version="0.48.4 r9939"
   sodipodi:docname="pâtée chat.svg"><metadata
   id="metadata99"><rdf:RDF><cc:Work
       rdf:about=""><dc:format>image/svg+xml</dc:format><dc:type
         rdf:resource="http://purl.org/dc/dcmitype/StillImage" /><dc:title /></cc:Work></rdf:RDF></metadata><defs
   id="defs97" /><sodipodi:namedview
   pagecolor="#ffffff"
   bordercolor="#666666"
   borderopacity="1"
   objecttolerance="10"
   gridtolerance="10"
   guidetolerance="10"
   inkscape:pageopacity="0"
   inkscape:pageshadow="2"
   inkscape:window-width="1366"
   inkscape:window-height="706"
   id="namedview95"
   showgrid="false"
   inkscape:zoom="2.36"
   inkscape:cx="48.477"
   inkscape:cy="56.649059"
   inkscape:window-x="-8"
   inkscape:window-y="-8"
   inkscape:window-maximized="1"
   inkscape:current-layer="Calque_1"
   fit-margin-top="0"
   fit-margin-left="0"
   fit-margin-right="0"
   fit-margin-bottom="0" />
<path
   d="m 44.203484,8.644531 c 0,-2.532483 -1.772719,-4.5845371 -3.96162,-4.5845371 h -4.180416 c -2.1889,0 -3.961621,2.0520541 -3.961621,4.5845371 v 4.834445 c 0,2.532483 1.772721,4.584537 3.961621,4.584537 h 4.180416 c 2.188901,0 3.96162,-2.052054 3.96162,-4.584537 V 8.644531 z"
   id="path3"
   inkscape:connector-curvature="0"
   style="fill:#af8264" />
<path
   d="m 61.435367,18.097983 c -0.236487,2.517402 1.336988,4.778432 3.510991,5.049884 l 4.157141,0.520285 c 2.174934,0.271453 4.13014,-1.549005 4.364765,-4.064252 L 73.91703,14.796384 C 74.153517,12.278982 72.580041,10.017953 70.406039,9.7465 L 66.248898,9.226215 c -2.174934,-0.271453 -4.13014,1.549005 -4.364765,4.064252 l -0.448766,4.807516 z"
   id="path5"
   inkscape:connector-curvature="0"
   style="fill:#e3b087" />
<path
   d="m 51.142604,12.428712 c -0.321213,2.504476 1.174985,4.834446 3.338746,5.206078 l 4.134796,0.707716 c 2.163761,0.370555 4.178555,-1.359419 4.498836,-3.864971 L 63.725751,9.695872 C 64.046963,7.1913961 62.550766,4.861426 60.387004,4.4897942 L 56.252209,3.7820779 C 54.088448,3.4115232 52.073654,5.1414964 51.753373,7.647049 l -0.610769,4.781663 z"
   id="path7"
   inkscape:connector-curvature="0"
   style="fill:#e5a876" />
<path
   d="m 19.19733,19.93029 c 0.342627,2.501244 2.372317,4.206441 4.533285,3.810034 l 4.129209,-0.755113 c 2.160037,-0.396407 3.634821,-2.745767 3.293125,-5.244856 L 30.499352,12.964078 C 30.156725,10.462834 28.127036,8.757636 25.966067,9.154043 l -4.129208,0.755113 c -2.160038,0.396407 -3.634822,2.745767 -3.293127,5.244856 l 0.653598,4.776278 z"
   id="path9"
   inkscape:connector-curvature="0"
   style="fill:#e5a876" />
<path
   d="m 42.419591,10.435904 c 0.49625,2.195321 2.436559,3.509497 4.33311,2.935353 l 3.624579,-1.096583 c 1.89655,-0.574145 3.033363,-2.819017 2.537112,-5.0132603 L 51.966583,3.0700528 C 51.469403,0.87473188 49.530024,-0.43944452 47.633474,0.13469978 L 44.008895,1.231283 c -1.897481,0.5741443 -3.032432,2.8179389 -2.536182,5.0132598 l 0.946878,4.1913612 z"
   id="path11"
   inkscape:connector-curvature="0"
   style="fill:#c68355" />
<path
   d="m 52.255209,27.265979 c 0.638701,2.422609 2.852739,3.786336 4.94574,3.047381 l 3.997931,-1.412201 c 2.092071,-0.738955 3.272643,-3.299444 2.63301,-5.722053 L 62.612215,18.55579 c -0.638701,-2.422608 -2.852739,-3.786336 -4.945741,-3.047381 l -3.997931,1.412201 c -2.09207,0.738955 -3.272642,3.299445 -2.63301,5.722054 l 1.219676,4.623315 z"
   id="path13"
   inkscape:connector-curvature="0"
   style="fill:#af8264" />
<path
   d="m 53.513989,16.184887 c 0,-2.532483 -1.773651,-4.584537 -3.961619,-4.584537 h -4.180417 c -2.1889,0 -3.96162,2.052054 -3.96162,4.584537 v 4.834446 c 0,2.532482 1.77272,4.584536 3.96162,4.584536 h 4.180417 c 2.187968,0 3.961619,-2.052054 3.961619,-4.584536 v -4.834446 z"
   id="path15"
   inkscape:connector-curvature="0"
   style="fill:#e5a876" />
<path
   d="m 30.581284,24.728111 c -0.504629,2.463542 0.812808,4.933547 2.941189,5.516309 l 4.06869,1.114895 c 2.128382,0.582762 4.263281,-0.941467 4.767911,-3.406086 l 0.961775,-4.704105 c 0.504629,-2.463543 -0.812807,-4.933548 -2.941189,-5.51631 l -4.068691,-1.114895 c -2.128381,-0.582762 -4.26328,0.941467 -4.767909,3.406086 l -0.961776,4.704106 z"
   id="path17"
   inkscape:connector-curvature="0"
   style="fill:#e3b087" />
<path
   d="m 22.52025,16.710557 c 0,2.532483 1.773651,4.584537 3.961619,4.584537 h 4.180417 c 2.187969,0 3.96162,-2.052054 3.96162,-4.584537 v -4.834445 c 0,-2.532483 -1.773651,-4.5845368 -3.96162,-4.5845368 h -4.180417 c -2.187968,0 -3.961619,2.0520538 -3.961619,4.5845368 v 4.834445 z"
   id="path19"
   inkscape:connector-curvature="0"
   style="fill:#e5a876" />
<path
   d="m 63.755545,31.2656 c 0,-2.532483 -1.773652,-4.584537 -3.96162,-4.584537 h -4.180417 c -2.187968,0 -3.961619,2.052054 -3.961619,4.584537 v 4.834445 c 0,2.532483 1.773651,4.584537 3.961619,4.584537 h 4.180417 c 2.187968,0 3.96162,-2.052054 3.96162,-4.584537 V 31.2656 z"
   id="path21"
   inkscape:connector-curvature="0"
   style="fill:#edc49d" />
<path
   d="m 38.348108,37.177239 c 0,2.532483 1.773651,4.584537 3.961619,4.584537 h 4.180417 c 2.187969,0 3.96162,-2.052054 3.96162,-4.584537 v -4.834446 c 0,-2.532482 -1.773651,-4.584536 -3.96162,-4.584536 h -4.180417 c -2.187968,0 -3.961619,2.052054 -3.961619,4.584536 v 4.834446 z"
   id="path23"
   inkscape:connector-curvature="0"
   style="fill:#e6b78b" />
<path
   d="m 60.264105,31.989474 c 0.410593,2.48724 2.487768,4.115957 4.635701,3.639838 l 4.105932,-0.911306 c 2.148865,-0.47612 3.555682,-2.878262 3.145089,-5.364425 l -0.787669,-4.74827 c -0.410593,-2.487241 -2.487767,-4.115958 -4.6357,-3.639838 l -4.105932,0.911306 c -2.148866,0.476119 -3.555682,2.878261 -3.145089,5.364425 l 0.787668,4.74827 z"
   id="path25"
   inkscape:connector-curvature="0"
   style="fill:#c68355" />
<path
   d="m 73.066049,38.805956 c 0,-2.532483 -1.773651,-4.584537 -3.961619,-4.584537 h -4.180417 c -2.187969,0 -3.96162,2.052054 -3.96162,4.584537 v 4.834446 c 0,2.532482 1.773651,4.584536 3.96162,4.584536 h 4.180417 c 2.187968,0 3.961619,-2.052054 3.961619,-4.584536 v -4.834446 z"
   id="path27"
   inkscape:connector-curvature="0"
   style="fill:#af8264" />
<path
   d="m 50.451764,42.563208 c 0,2.532482 1.773651,4.584537 3.96162,4.584537 h 4.180417 c 2.187969,0 3.96162,-2.052055 3.96162,-4.584537 v -4.834446 c 0,-2.532482 -1.773651,-4.584536 -3.96162,-4.584536 h -4.180417 c -2.187969,0 -3.96162,2.052054 -3.96162,4.584536 v 4.834446 z"
   id="path29"
   inkscape:connector-curvature="0"
   style="fill:#e3b087" />
<path
   d="m 43.93441,46.871983 c 0,2.532482 1.773652,4.584537 3.961621,4.584537 h 4.180416 c 2.187969,0 3.96162,-2.052055 3.96162,-4.584537 v -4.834446 c 0,-2.532482 -1.773651,-4.584536 -3.96162,-4.584536 h -4.180416 c -2.187969,0 -3.961621,2.052054 -3.961621,4.584536 v 4.834446 z"
   id="path31"
   inkscape:connector-curvature="0"
   style="fill:#e5a876" />
<path
   d="m 40.479282,32.868464 c 0,2.532482 -1.77272,4.584537 -3.961619,4.584537 h -4.180417 c -2.1889,0 -3.96162,-2.052055 -3.96162,-4.584537 v -4.834446 c 0,-2.532482 1.77272,-4.584536 3.96162,-4.584536 h 4.180417 c 2.188899,0 3.961619,2.052054 3.961619,4.584536 v 4.834446 z"
   id="path33"
   inkscape:connector-curvature="0"
   style="fill:#af8264" />
<path
   d="m 23.720374,37.177239 c 0,2.532483 -1.77272,4.584537 -3.961621,4.584537 h -4.180416 c -2.188899,0 -3.96162,-2.052054 -3.96162,-4.584537 v -4.834446 c 0,-2.532482 1.772721,-4.584536 3.96162,-4.584536 h 4.180416 c 2.188901,0 3.961621,2.052054 3.961621,4.584536 v 4.834446 z"
   id="path35"
   inkscape:connector-curvature="0"
   style="fill:#edc49d" />
<path
   d="m 53.244916,32.868464 c 0,2.532482 -1.773652,4.584537 -3.96162,4.584537 h -4.180417 c -2.187969,0 -3.96162,-2.052055 -3.96162,-4.584537 v -4.834446 c 0,-2.532482 1.773651,-4.584536 3.96162,-4.584536 h 4.180417 c 2.187968,0 3.96162,2.052054 3.96162,4.584536 v 4.834446 z"
   id="path37"
   inkscape:connector-curvature="0"
   style="fill:#e5a876" />
<path
   d="m 31.64082,29.120907 c -0.1769,2.523865 -2.089277,4.402491 -4.269798,4.196747 L 23.20364,32.924478 C 21.02312,32.719811 19.399368,30.507255 19.576268,27.98339 l 0.339833,-4.819365 c 0.1769,-2.523865 2.089278,-4.402491 4.269797,-4.196747 l 4.167383,0.393176 c 2.18052,0.204667 3.804272,2.417223 3.627373,4.941088 l -0.339834,4.819365 z"
   id="path39"
   inkscape:connector-curvature="0"
   style="fill:#c68355" />
<path
   d="m 29.306676,40.40882 c 0,2.532483 -1.77272,4.584537 -3.961619,4.584537 H 21.16464 c -2.1889,0 -3.96162,-2.052054 -3.96162,-4.584537 v -4.834445 c 0,-2.532483 1.77272,-4.584537 3.96162,-4.584537 h 4.180417 c 2.188899,0 3.961619,2.052054 3.961619,4.584537 v 4.834445 z"
   id="path41"
   inkscape:connector-curvature="0"
   style="fill:#af8264" />
<path
   d="m 39.52868,42.023534 c -0.526044,2.457079 -2.675839,3.955455 -4.798634,3.344686 l -4.057519,-1.164446 c -2.122794,-0.607537 -3.417886,-3.093701 -2.88998,-5.551857 l 1.005534,-4.692256 c 0.526044,-2.457079 2.675839,-3.955455 4.798635,-3.345764 l 4.057517,1.164447 c 2.122796,0.609692 3.417887,3.095855 2.889981,5.552934 l -1.005534,4.692256 z"
   id="path43"
   inkscape:connector-curvature="0"
   style="fill:#e3b087" />
<path
   d="m 49.333572,40.317259 c 0.305385,2.332124 -1.080018,4.509133 -3.094811,4.862453 l -3.850825,0.674323 c -2.013863,0.353319 -3.895515,-1.249545 -4.2009,-3.581669 l -0.582838,-4.452042 c -0.305385,-2.333202 1.080019,-4.509133 3.094812,-4.862453 l 3.849894,-0.6754 c 2.014794,-0.352243 3.896446,1.251699 4.201831,3.582746 l 0.582837,4.452042 z"
   id="path45"
   inkscape:connector-curvature="0"
   style="fill:#c68355" />
<polyline
   points="90.463,70.267 88.029,68.949 88.086,64 88.219,64 90.496,66.943 "
   id="polyline47"
   transform="matrix(0.93105052,0,0,1.0771938,-1.4179899,-8.8663313)"
   style="fill:#58a5b7" />
<path
   d="M 0,51.453288 C 0,67.440998 20.16376,80 45.039567,80 c 4.166452,0 8.203487,-0.361937 12.031966,-1.044878 l -0.01024,-2.205016 c -3.823823,0.678632 -7.857134,1.044878 -12.021724,1.044878 -23.841409,0 -43.2612604,-11.760801 -44.8412531,-26.824279"
   id="path49"
   inkscape:connector-curvature="0"
   style="fill:#58a5b7" />
<path
   d="m 90,51.891706 c -0.143384,5.632646 -2.762432,10.524183 -7.230542,14.93206 l 0.02979,-2.129612 c 3.967204,-3.914522 6.465212,-8.505522 7.090883,-13.407831"
   id="path51"
   inkscape:connector-curvature="0"
   style="fill:#58a5b7" />
<path
   d="m 70.003825,33.945658 c 0,2.532482 1.773651,4.584536 3.961619,4.584536 h 4.180417 c 2.187969,0 3.96162,-2.052054 3.96162,-4.584536 v -4.834446 c 0,-2.532482 -1.773651,-4.584537 -3.96162,-4.584537 h -4.180417 c -2.187968,0 -3.961619,2.052055 -3.961619,4.584537 v 4.834446 z"
   id="path53"
   inkscape:connector-curvature="0"
   style="fill:#e5a876" />
<path
   d="m 20.658148,26.162933 c 0,2.667132 -1.671236,4.826905 -3.732581,4.826905 h -3.940206 c -2.061346,0 -3.732581,-2.160851 -3.732581,-4.826905 v -5.089741 c 0,-2.667132 1.671235,-4.826905 3.732581,-4.826905 h 3.940206 c 2.061345,0 3.732581,2.160851 3.732581,4.826905 v 5.089741 z"
   id="path55"
   inkscape:connector-curvature="0"
   style="fill:#e5a876" />
<path
   d="m 0.1731754,51.256162 c 0,15.985555 19.8686176,26.538822 44.7425626,26.538822 4.16552,0 8.32173,-0.366246 12.146485,-1.044878 1.753167,-3.310216 7.263125,-9.582715 10.743391,-12.769054 5.993173,-5.499075 12.821497,-5.314875 14.993638,0.728182 4.604976,-4.539294 6.54435,-7.26998 7.161637,-12.986648 C 89.164841,46.864443 88.333417,40.27094 86.812076,34.825725 84.813114,27.685008 82.46128,21.199224 80.030308,15.846648 l -0.02328,0.0075 c 1.078156,2.0499 1.660994,4.238758 1.660994,6.504096 0,11.915918 -16.074587,21.579423 -35.905962,21.579423 -19.825789,0 -35.900376,-9.663505 -35.900376,-21.579423 0,-2.217942 0.555837,-4.36048 1.591166,-6.374832 l 0,0 C 8.831014,21.214305 6.2464178,27.583751 3.9923445,34.617827 2.2726943,39.98656 1.069777,46.637155 0.1005534,51.453288 l 0.072622,-0.197126 z"
   id="path57"
   inkscape:connector-curvature="0"
   style="fill:#4fc0d3" />
<path
   d="m 71.236535,22.268877 c -0.519526,2.197476 0.600528,4.467123 2.49894,5.06712 l 3.628304,1.148288 c 1.899343,0.602152 3.860135,-0.692635 4.379661,-2.891188 l 0.9925,-4.196747 c 0.519526,-2.197475 -0.600527,-4.467122 -2.498939,-5.067119 l -3.628305,-1.148289 c -1.899342,-0.602151 -3.860135,0.692636 -4.379661,2.891188 l -0.9925,4.196747 z"
   id="path59"
   inkscape:connector-curvature="0"
   style="fill:#af8264" />
<path
   d="m 9.813272,24.382331 c 0.47856,2.196399 2.403041,3.52781 4.301453,2.97521 l 3.626442,-1.05565 c 1.897481,-0.553678 3.04826,-2.781315 2.57063,-4.977713 l -0.912429,-4.193515 c -0.47856,-2.196398 -2.403972,-3.52781 -4.302384,-2.975209 l -3.625511,1.05565 c -1.897481,0.553677 -3.0482592,2.781314 -2.570631,4.977712 l 0.91243,4.193515 z"
   id="path61"
   inkscape:connector-curvature="0"
   style="fill:#edc49d" />
<g
   id="g63"
   transform="matrix(0.93105052,0,0,1.0771938,-1.4179899,-8.8663313)">
	<g
   id="g65">
		<g
   enable-background="new    "
   id="g67">
			<defs
   id="defs69">
				<polygon
   id="SVGID_1_"
   enable-background="new    "
   points="25.118,51.123 51.981,53.946 52.183,75.545 25.32,72.723 " />
			</defs>
			<clipPath
   id="SVGID_2_">
				<use
   xlink:href="#SVGID_1_"
   overflow="visible"
   id="use73"
   style="overflow:visible"
   x="0"
   y="0"
   width="100"
   height="100" />
			</clipPath>
			<g
   clip-path="url(#SVGID_2_)"
   id="g75">
				<g
   id="g77">
					<g
   id="g79">
						<g
   id="g81">
							<path
   d="m 38.083,69.05 c -0.378,-0.163 -0.644,-0.57 -0.62,-1.004 0.027,-0.478 0.414,-0.807 0.869,-0.759 0.02,0.002 0.041,0.005 0.061,0.009 0.482,0.085 0.851,0.564 0.823,1.063 -0.022,0.399 -0.286,0.686 -0.631,0.75 -0.037,0.16 -10e-4,0.46 0.198,0.832 0.219,0.412 0.807,1.167 2.221,1.636 0.582,0.187 1.08,0.291 1.493,0.334 0.688,0.072 1.138,-0.022 1.344,-0.175 l 0.294,0.402 c -0.338,0.242 -0.909,0.329 -1.623,0.254 -0.481,-0.051 -1.021,-0.168 -1.604,-0.359 -1.588,-0.521 -2.26,-1.405 -2.521,-1.891 -0.029,-0.055 -0.057,-0.109 -0.082,-0.164 -0.051,0.087 -0.112,0.173 -0.183,0.257 -0.377,0.437 -1.144,0.927 -2.679,0.817 -0.141,-0.015 -0.282,-0.029 -0.415,-0.043 -1.395,-0.147 -2.318,-0.478 -2.746,-0.999 l 0.337,-0.293 c 0.194,0.237 0.762,0.641 2.4,0.812 0.128,0.014 0.261,0.025 0.402,0.036 1.369,0.101 2.028,-0.314 2.34,-0.681 0.243,-0.283 0.336,-0.613 0.322,-0.834 m 5.508,-1.603 c -0.035,-0.003 -0.07,-0.009 -0.106,-0.015 -0.831,-0.148 -1.468,-0.977 -1.41,-1.835 0.048,-0.823 0.705,-1.385 1.489,-1.302 0.036,0.003 0.071,0.008 0.107,0.015 0.831,0.148 1.468,0.969 1.41,1.827 -0.048,0.824 -0.706,1.393 -1.49,1.31 m -9.433,-1.701 c -0.036,-0.003 -0.071,-0.008 -0.107,-0.015 -0.831,-0.148 -1.468,-0.968 -1.418,-1.828 0.048,-0.831 0.706,-1.393 1.497,-1.31 0.036,0.004 0.072,0.01 0.108,0.017 0.831,0.147 1.46,0.967 1.41,1.835 -0.048,0.823 -0.706,1.384 -1.49,1.301 m -2.927,-13.98 c -0.071,-0.007 -0.14,-0.005 -0.204,0.01 -2.011,0.368 -0.62,8.173 -0.915,8.531 -1.404,0.614 -1.494,4.248 -1.494,4.248 l -3.048,-0.545 -0.093,1.53 3.579,0.645 c 0,0 0.069,0.292 0.145,0.447 l -3.931,0.782 0.526,2.201 4.555,-0.569 c 0,0 2.508,4.003 7.798,4.948 l 0.499,0.095 c 0.298,0.054 0.589,0.096 0.872,0.126 4.738,0.498 7.341,-2.196 7.341,-2.196 l 4.405,1.97 0.77,-1.876 -3.767,-2.057 c 0.098,-0.12 0.204,-0.386 0.204,-0.386 l 3.58,0.645 0.068,-1.524 -3.048,-0.554 c 0,0 0.35,-3.399 -0.954,-4.506 -0.236,-0.448 2.036,-7.418 0.111,-8.494 -0.101,-0.061 -0.217,-0.097 -0.344,-0.109 -1.798,-0.189 -5.945,4.009 -5.945,4.009 0,0 -1.76,-0.22 -2.375,-0.337 L 39.06,58.713 c -0.606,-0.107 -2.36,-0.612 -2.36,-0.612 0,0 -3.742,-6.154 -5.469,-6.335"
   id="path83"
   inkscape:connector-curvature="0"
   style="fill:#ffffff" />
							<path
   d="m 34.129,62.594 c -0.791,-0.083 -1.448,0.479 -1.497,1.31 -0.05,0.86 0.588,1.68 1.418,1.828 0.036,0.007 0.072,0.012 0.107,0.015 0.784,0.083 1.441,-0.479 1.489,-1.301 0.05,-0.868 -0.579,-1.688 -1.41,-1.835 -0.035,-0.007 -0.071,-0.013 -0.107,-0.017"
   id="path85"
   inkscape:connector-curvature="0"
   style="fill:#4fc0d3" />
							<path
   d="m 43.564,64.296 c -0.784,-0.083 -1.441,0.479 -1.489,1.302 -0.059,0.858 0.579,1.687 1.41,1.835 0.036,0.006 0.071,0.012 0.106,0.015 0.785,0.083 1.442,-0.486 1.49,-1.31 0.059,-0.858 -0.579,-1.679 -1.41,-1.827 -0.036,-0.007 -0.071,-0.012 -0.107,-0.015"
   id="path87"
   inkscape:connector-curvature="0"
   style="fill:#4fc0d3" />
							<path
   d="m 38.333,67.287 c -0.456,-0.048 -0.842,0.281 -0.869,0.759 -0.024,0.434 0.242,0.841 0.62,1.004 -0.001,-0.021 -0.002,-0.039 -0.005,-0.057 l 0.052,-0.004 c 0.006,-0.031 0.012,-0.062 0.021,-0.093 l 0.188,0.079 0.194,-0.013 c 0.004,0.031 0.007,0.064 0.009,0.098 l 0.05,0.021 c -0.003,0.008 -0.005,0.019 -0.007,0.027 0.345,-0.064 0.608,-0.351 0.631,-0.75 0.028,-0.499 -0.341,-0.979 -0.823,-1.063 -0.021,-0.003 -0.041,-0.006 -0.061,-0.008"
   id="path89"
   inkscape:connector-curvature="0"
   style="fill:#4fc0d3" />
							<path
   d="m 38.13,68.989 -0.052,0.004 c 0.003,0.018 0.004,0.036 0.005,0.057 0.014,0.222 -0.079,0.551 -0.32,0.836 -0.312,0.366 -0.971,0.781 -2.34,0.681 -0.141,-0.011 -0.274,-0.022 -0.402,-0.036 -1.638,-0.172 -2.206,-0.575 -2.4,-0.812 l -0.337,0.293 c 0.428,0.521 1.351,0.852 2.746,0.999 0.133,0.014 0.274,0.028 0.415,0.043 1.535,0.109 2.301,-0.381 2.679,-0.817 0.071,-0.084 0.132,-0.17 0.183,-0.257 -0.164,-0.358 -0.227,-0.713 -0.177,-0.991 m 0.403,-0.026 -0.194,0.013 0.203,0.085 C 38.54,69.027 38.537,68.994 38.533,68.963"
   id="path91"
   inkscape:connector-curvature="0"
   style="fill:#4fc0d3" />
							<path
   d="m 38.151,68.896 c -0.009,0.03 -0.015,0.062 -0.021,0.093 -0.05,0.277 0.013,0.633 0.175,0.989 0.024,0.055 0.052,0.109 0.082,0.164 0.262,0.485 0.933,1.369 2.521,1.891 0.582,0.191 1.122,0.309 1.604,0.359 0.713,0.075 1.285,-0.012 1.623,-0.254 l -0.294,-0.402 c -0.206,0.152 -0.656,0.247 -1.344,0.175 -0.413,-0.043 -0.911,-0.147 -1.493,-0.334 -1.414,-0.469 -2.001,-1.224 -2.221,-1.636 -0.199,-0.372 -0.235,-0.672 -0.198,-0.832 0.002,-0.009 0.004,-0.02 0.007,-0.027 l -0.05,-0.021 -0.203,-0.085 -0.188,-0.08"
   id="path93"
   inkscape:connector-curvature="0"
   style="fill:#4fc0d3" />
						</g>
					</g>
				</g>
			</g>
		</g>
	</g>
</g>
</svg>