<?xml version="1.0" encoding="UTF-8" standalone="no"?>
<!-- Generator: Adobe Illustrator 16.0.0, SVG Export Plug-In . SVG Version: 6.00 Build 0)  -->

<svg
   xmlns:dc="http://purl.org/dc/elements/1.1/"
   xmlns:cc="http://creativecommons.org/ns#"
   xmlns:rdf="http://www.w3.org/1999/02/22-rdf-syntax-ns#"
   xmlns:svg="http://www.w3.org/2000/svg"
   xmlns="http://www.w3.org/2000/svg"
   xmlns:xlink="http://www.w3.org/1999/xlink"
   xmlns:sodipodi="http://sodipodi.sourceforge.net/DTD/sodipodi-0.dtd"
   xmlns:inkscape="http://www.inkscape.org/namespaces/inkscape"
   version="1.1"
   id="Calque_1"
   x="0px"
   y="0px"
   width="65.166519"
   height="80"
   viewBox="0 0 65.166519 80"
   enable-background="new 0 0 100 100"
   xml:space="preserve"
   inkscape:version="0.48.4 r9939"
   sodipodi:docname="granuleÌs.svg"><metadata
   id="metadata439"><rdf:RDF><cc:Work
       rdf:about=""><dc:format>image/svg+xml</dc:format><dc:type
         rdf:resource="http://purl.org/dc/dcmitype/StillImage" /><dc:title></dc:title></cc:Work></rdf:RDF></metadata><defs
   id="defs437" /><sodipodi:namedview
   pagecolor="#ffffff"
   bordercolor="#666666"
   borderopacity="1"
   objecttolerance="10"
   gridtolerance="10"
   guidetolerance="10"
   inkscape:pageopacity="0"
   inkscape:pageshadow="2"
   inkscape:window-width="1366"
   inkscape:window-height="706"
   id="namedview435"
   showgrid="false"
   inkscape:zoom="2.36"
   inkscape:cx="39.433"
   inkscape:cy="26.656494"
   inkscape:window-x="-8"
   inkscape:window-y="-8"
   inkscape:window-maximized="1"
   inkscape:current-layer="Calque_1"
   fit-margin-top="0"
   fit-margin-left="0"
   fit-margin-right="0"
   fit-margin-bottom="0" />
<path
   d="M 65.166521,47.268721 C 65.166521,71.564592 49.034967,80 31.039874,80 13.04478,80 0,71.56376 0,47.268721 0,22.974512 14.588167,3.280529 32.583261,3.280529 c 17.995093,0 32.58326,19.693983 32.58326,43.988192 z"
   id="path3"
   inkscape:connector-curvature="0"
   style="fill:#f9a243"
   inkscape:export-filename="C:\Wyneos\Cloud\AnimalWebAction\brainstorming\v4.0\icones\bande1\icone-final\path433.png"
   inkscape:export-xdpi="90"
   inkscape:export-ydpi="90" />
<path
   d="m 61.248181,8.949316 c 0,4.941998 -12.772026,14.581514 -28.66492,14.581514 C 16.690366,23.53083 3.697975,13.891314 3.697975,8.949316 3.697975,4.007318 16.5806,0 32.472662,0 48.365557,0 61.248181,4.007318 61.248181,8.949316 z"
   id="path5"
   inkscape:connector-curvature="0"
   style="fill:#f9a243"
   inkscape:export-filename="C:\Wyneos\Cloud\AnimalWebAction\brainstorming\v4.0\icones\bande1\icone-final\path433.png"
   inkscape:export-xdpi="90"
   inkscape:export-ydpi="90" />
<path
   d="M 32.737932,2.412374 C 23.261403,2.036506 18.461602,3.332918 15.880421,3.996507 13.299239,4.658434 7.805081,4.891273 6.110349,7.711945 c -1.692237,2.823168 5.871689,4.867158 6.189347,5.905784 1.357117,4.420606 6.676646,2.216956 8.238327,2.769116 1.561682,0.553823 3.174089,6.913641 9.484845,5.077543 2.838967,-0.824914 5.757765,-3.252255 7.992183,-4.448048 2.23525,-1.196624 6.001414,4.494616 9.644506,-0.198744 3.643923,-4.692528 6.536942,1.698058 9.46655,-5.630535 C 60.054052,3.859299 53.061411,4.586919 47.927321,4.009812 44.235999,3.594861 32.737932,2.412374 32.737932,2.412374 z"
   id="path7"
   inkscape:connector-curvature="0"
   style="fill:#5c5e57"
   inkscape:export-filename="C:\Wyneos\Cloud\AnimalWebAction\brainstorming\v4.0\icones\bande1\icone-final\path433.png"
   inkscape:export-xdpi="90"
   inkscape:export-ydpi="90" />
<path
   d="m 11.42572,21.07771 c 0.11143,0.437404 -0.153839,0.883955 -0.592075,0.996216 l -0.144692,0.03576 C 10.250717,22.221947 9.805829,21.955846 9.693568,21.516779 L 9.436614,20.506426 c -0.11143,-0.438236 0.154671,-0.883955 0.592075,-0.995385 l 0.144693,-0.03742 c 0.437403,-0.110599 0.883123,0.154671 0.995384,0.592906 l 0.256954,1.011185 z"
   id="path9"
   inkscape:connector-curvature="0"
   style="fill:#664027"
   inkscape:export-filename="C:\Wyneos\Cloud\AnimalWebAction\brainstorming\v4.0\icones\bande1\icone-final\path433.png"
   inkscape:export-xdpi="90"
   inkscape:export-ydpi="90" />
<path
   d="m 10.531787,20.183776 c 0.112261,0.439067 -0.153009,0.883955 -0.592076,0.995385 L 9.79585,21.215751 C 9.356784,21.328844 8.911896,21.061911 8.799634,20.623676 L 8.54268,19.613322 C 8.43125,19.174255 8.69652,18.728535 9.134755,18.617937 l 0.144693,-0.03742 c 0.439067,-0.112261 0.883955,0.154672 0.995385,0.592907 l 0.256954,1.010353 z"
   id="path11"
   inkscape:connector-curvature="0"
   style="fill:#664027"
   inkscape:export-filename="C:\Wyneos\Cloud\AnimalWebAction\brainstorming\v4.0\icones\bande1\icone-final\path433.png"
   inkscape:export-xdpi="90"
   inkscape:export-ydpi="90" />
<path
   d="m 9.649495,19.301484 c 0.112261,0.438236 -0.15384,0.883955 -0.592075,0.995385 l -0.143861,0.03659 C 8.474492,20.446552 8.029604,20.179619 7.917342,19.741384 L 7.660388,18.73103 c -0.11143,-0.439899 0.153009,-0.884787 0.592076,-0.995385 l 0.144692,-0.03742 c 0.439067,-0.112262 0.883955,0.154671 0.995385,0.592906 l 0.256954,1.010353 z"
   id="path13"
   inkscape:connector-curvature="0"
   style="fill:#664027"
   inkscape:export-filename="C:\Wyneos\Cloud\AnimalWebAction\brainstorming\v4.0\icones\bande1\icone-final\path433.png"
   inkscape:export-xdpi="90"
   inkscape:export-ydpi="90" />
<path
   d="m 12.915887,21.970812 c 0.109767,0.439067 -0.15384,0.883955 -0.592907,0.996216 l -0.144692,0.03742 c -0.437404,0.11143 -0.885618,-0.156335 -0.995385,-0.593738 l -0.256954,-1.010353 c -0.11143,-0.439067 0.153008,-0.883955 0.592075,-0.996217 l 0.144693,-0.03576 c 0.437404,-0.112262 0.883123,0.153008 0.995385,0.591243 l 0.257785,1.011185 z"
   id="path15"
   inkscape:connector-curvature="0"
   style="fill:#664027"
   inkscape:export-filename="C:\Wyneos\Cloud\AnimalWebAction\brainstorming\v4.0\icones\bande1\icone-final\path433.png"
   inkscape:export-xdpi="90"
   inkscape:export-ydpi="90" />
<path
   d="m 14.406054,22.567877 c 0.110598,0.438235 -0.154672,0.883123 -0.593739,0.995384 l -0.14386,0.03576 c -0.439067,0.112261 -0.885619,-0.15384 -0.995385,-0.592075 l -0.256954,-1.009522 c -0.112262,-0.439898 0.153008,-0.884786 0.592075,-0.996216 l 0.143861,-0.03742 c 0.439067,-0.11143 0.884786,0.15384 0.997048,0.592075 l 0.256954,1.012017 z"
   id="path17"
   inkscape:connector-curvature="0"
   style="fill:#664027"
   inkscape:export-filename="C:\Wyneos\Cloud\AnimalWebAction\brainstorming\v4.0\icones\bande1\icone-final\path433.png"
   inkscape:export-xdpi="90"
   inkscape:export-ydpi="90" />
<path
   d="m 16.19309,23.460979 c 0.11143,0.438235 -0.15384,0.883955 -0.592075,0.995385 l -0.143861,0.03742 c -0.439067,0.11143 -0.884787,-0.154671 -0.997048,-0.592907 l -0.256954,-1.011184 c -0.11143,-0.437404 0.153839,-0.883955 0.592906,-0.994554 l 0.143861,-0.03742 c 0.439067,-0.11143 0.885618,0.154671 0.995385,0.592907 l 0.257786,1.010353 z"
   id="path19"
   inkscape:connector-curvature="0"
   style="fill:#664027"
   inkscape:export-filename="C:\Wyneos\Cloud\AnimalWebAction\brainstorming\v4.0\icones\bande1\icone-final\path433.png"
   inkscape:export-xdpi="90"
   inkscape:export-ydpi="90" />
<path
   d="m 17.583468,23.636439 c 0.162987,0.422436 -0.04574,0.89726 -0.46734,1.060247 l -0.13804,0.05405 c -0.422435,0.163819 -0.898091,-0.0449 -1.061078,-0.46734 l -0.377531,-0.97127 c -0.165482,-0.423267 0.0449,-0.89726 0.46734,-1.061078 l 0.138871,-0.05405 c 0.420773,-0.163819 0.896429,0.04574 1.060247,0.46734 l 0.377531,0.972101 z"
   id="path21"
   inkscape:connector-curvature="0"
   style="fill:#664027"
   inkscape:export-filename="C:\Wyneos\Cloud\AnimalWebAction\brainstorming\v4.0\icones\bande1\icone-final\path433.png"
   inkscape:export-xdpi="90"
   inkscape:export-ydpi="90" />
<path
   d="m 19.170928,24.343271 c 0.163819,0.422435 -0.04574,0.896428 -0.46734,1.060247 l -0.139703,0.05322 c -0.420772,0.163818 -0.896428,-0.04407 -1.059415,-0.466509 l -0.378363,-0.972932 c -0.16465,-0.421605 0.04407,-0.895597 0.465677,-1.060247 l 0.138872,-0.05322 c 0.421604,-0.163818 0.89726,0.04574 1.060247,0.467341 l 0.380025,0.972101 z"
   id="path23"
   inkscape:connector-curvature="0"
   style="fill:#664027"
   inkscape:export-filename="C:\Wyneos\Cloud\AnimalWebAction\brainstorming\v4.0\icones\bande1\icone-final\path433.png"
   inkscape:export-xdpi="90"
   inkscape:export-ydpi="90" />
<path
   d="m 20.7218,24.752401 c 0.162986,0.422436 -0.04574,0.896429 -0.467341,1.061079 l -0.138871,0.05405 c -0.422436,0.163819 -0.89726,-0.04574 -1.060247,-0.46734 l -0.378363,-0.971269 c -0.162987,-0.422436 0.04574,-0.89726 0.46734,-1.060247 l 0.13804,-0.05405 c 0.422436,-0.162987 0.89726,0.04574 1.061079,0.46734 l 0.378363,0.970438 z"
   id="path25"
   inkscape:connector-curvature="0"
   style="fill:#664027"
   inkscape:export-filename="C:\Wyneos\Cloud\AnimalWebAction\brainstorming\v4.0\icones\bande1\icone-final\path433.png"
   inkscape:export-xdpi="90"
   inkscape:export-ydpi="90" />
<path
   d="m 22.605297,25.422644 c 0.162987,0.423267 -0.04574,0.89726 -0.46734,1.061078 l -0.138872,0.05322 c -0.422435,0.163819 -0.898091,-0.0449 -1.061078,-0.46734 l -0.377531,-0.972101 c -0.163819,-0.422436 0.0449,-0.895597 0.46734,-1.060247 l 0.139703,-0.05322 c 0.420773,-0.163819 0.895597,0.0449 1.059415,0.46734 l 0.378363,0.97127 z"
   id="path27"
   inkscape:connector-curvature="0"
   style="fill:#664027"
   inkscape:export-filename="C:\Wyneos\Cloud\AnimalWebAction\brainstorming\v4.0\icones\bande1\icone-final\path433.png"
   inkscape:export-xdpi="90"
   inkscape:export-ydpi="90" />
<path
   d="m 24.339944,25.362771 c 0.227018,0.392499 0.09397,0.893934 -0.296869,1.120951 l -0.130556,0.07401 c -0.390836,0.226187 -0.89227,0.09397 -1.118456,-0.2977 l -0.523056,-0.90225 c -0.226186,-0.392499 -0.09313,-0.89227 0.297701,-1.119288 l 0.128893,-0.07567 c 0.393331,-0.225355 0.893102,-0.0923 1.12012,0.298532 l 0.522223,0.901418 z"
   id="path29"
   inkscape:connector-curvature="0"
   style="fill:#664027"
   inkscape:export-filename="C:\Wyneos\Cloud\AnimalWebAction\brainstorming\v4.0\icones\bande1\icone-final\path433.png"
   inkscape:export-xdpi="90"
   inkscape:export-ydpi="90" />
<path
   d="m 38.908154,26.914473 c 0.325142,0.315996 0.3293,0.834893 0.0133,1.158372 l -0.104778,0.106441 c -0.315995,0.324311 -0.834892,0.3293 -1.158372,0.01331 l -0.745083,-0.729284 c -0.324311,-0.316827 -0.3293,-0.836556 -0.01414,-1.160035 l 0.104778,-0.105609 c 0.317658,-0.323479 0.835724,-0.3293 1.159203,-0.0133 l 0.745084,0.730115 z"
   id="path31"
   inkscape:connector-curvature="0"
   style="fill:#664027"
   inkscape:export-filename="C:\Wyneos\Cloud\AnimalWebAction\brainstorming\v4.0\icones\bande1\icone-final\path433.png"
   inkscape:export-xdpi="90"
   inkscape:export-ydpi="90" />
<path
   d="m 40.646127,26.902831 c 0.323479,0.315996 0.3293,0.834893 0.01331,1.158372 l -0.104777,0.106441 c -0.316827,0.324311 -0.835724,0.3293 -1.158372,0.01247 L 38.6512,27.450834 c -0.324311,-0.316827 -0.329301,-0.834893 -0.01331,-1.158372 l 0.105609,-0.107272 c 0.315164,-0.323479 0.834061,-0.328469 1.157541,-0.01247 l 0.745083,0.730115 z"
   id="path33"
   inkscape:connector-curvature="0"
   style="fill:#664027"
   inkscape:export-filename="C:\Wyneos\Cloud\AnimalWebAction\brainstorming\v4.0\icones\bande1\icone-final\path433.png"
   inkscape:export-xdpi="90"
   inkscape:export-ydpi="90" />
<path
   d="m 42.228598,26.635899 c 0.323479,0.316826 0.3293,0.834892 0.01331,1.159203 l -0.103946,0.106441 c -0.317658,0.323479 -0.834893,0.3293 -1.159204,0.01247 L 40.23367,27.184732 c -0.323479,-0.316826 -0.3293,-0.834892 -0.01164,-1.158371 l 0.102283,-0.107272 c 0.316827,-0.32348 0.836555,-0.329301 1.160866,-0.01164 l 0.743421,0.728452 z"
   id="path35"
   inkscape:connector-curvature="0"
   style="fill:#664027"
   inkscape:export-filename="C:\Wyneos\Cloud\AnimalWebAction\brainstorming\v4.0\icones\bande1\icone-final\path433.png"
   inkscape:export-xdpi="90"
   inkscape:export-ydpi="90" />
<path
   d="m 44.220199,26.467091 c 0.324311,0.316827 0.328468,0.836555 0.0133,1.160035 l -0.104778,0.10644 c -0.315995,0.324311 -0.834892,0.3293 -1.159203,0.01247 L 42.22444,27.016756 C 41.90096,26.699929 41.895971,26.181864 42.2128,25.858384 l 0.103114,-0.107272 c 0.315995,-0.323479 0.835724,-0.3293 1.160035,-0.01247 l 0.744252,0.728452 z"
   id="path37"
   inkscape:connector-curvature="0"
   style="fill:#664027"
   inkscape:export-filename="C:\Wyneos\Cloud\AnimalWebAction\brainstorming\v4.0\icones\bande1\icone-final\path433.png"
   inkscape:export-xdpi="90"
   inkscape:export-ydpi="90" />
<path
   d="m 45.499148,25.894142 c 0.359236,0.27608 0.427425,0.789156 0.153839,1.150056 l -0.09064,0.117251 c -0.275249,0.360899 -0.789157,0.429919 -1.149225,0.154671 L 43.584051,26.683298 C 43.225646,26.40805 43.156626,25.894142 43.431042,25.534073 l 0.09064,-0.118914 c 0.273585,-0.359236 0.789156,-0.428256 1.147562,-0.153008 l 0.829903,0.631991 z"
   id="path39"
   inkscape:connector-curvature="0"
   style="fill:#664027"
   inkscape:export-filename="C:\Wyneos\Cloud\AnimalWebAction\brainstorming\v4.0\icones\bande1\icone-final\path433.png"
   inkscape:export-xdpi="90"
   inkscape:export-ydpi="90" />
<path
   d="m 47.222153,25.67045 c 0.359237,0.275249 0.428257,0.789988 0.153008,1.149225 l -0.08981,0.118914 c -0.274417,0.360068 -0.789988,0.429088 -1.149225,0.153008 l -0.827408,-0.632822 c -0.361731,-0.273585 -0.42992,-0.789156 -0.154671,-1.148393 l 0.08981,-0.119745 c 0.275248,-0.359237 0.789988,-0.427425 1.149224,-0.153009 l 0.829072,0.632822 z"
   id="path41"
   inkscape:connector-curvature="0"
   style="fill:#664027"
   inkscape:export-filename="C:\Wyneos\Cloud\AnimalWebAction\brainstorming\v4.0\icones\bande1\icone-final\path433.png"
   inkscape:export-xdpi="90"
   inkscape:export-ydpi="90" />
<path
   d="m 48.758887,25.214752 c 0.360069,0.275248 0.429089,0.789156 0.154672,1.149225 l -0.09064,0.11725 c -0.274417,0.360069 -0.789156,0.42992 -1.148393,0.154672 L 46.844622,26.002245 C 46.486217,25.727828 46.417197,25.21392 46.692445,24.853021 l 0.09064,-0.118083 c 0.274417,-0.359236 0.787493,-0.428256 1.147561,-0.154671 l 0.82824,0.634485 z"
   id="path43"
   inkscape:connector-curvature="0"
   style="fill:#664027"
   inkscape:export-xdpi="90"
   inkscape:export-ydpi="90" />
<path
   d="m 50.717226,24.805621 c 0.360068,0.274417 0.427425,0.789157 0.153008,1.148393 l -0.08981,0.118914 C 50.505176,26.432165 49.991269,26.502017 49.6312,26.2276 l -0.82824,-0.634485 c -0.360899,-0.274417 -0.427425,-0.789157 -0.153839,-1.148393 l 0.08981,-0.118914 c 0.274417,-0.360069 0.789156,-0.428257 1.150056,-0.153009 l 0.82824,0.632822 z"
   id="path45"
   inkscape:connector-curvature="0"
   style="fill:#664027"
   inkscape:export-filename="C:\Wyneos\Cloud\AnimalWebAction\brainstorming\v4.0\icones\bande1\icone-final\path433.png"
   inkscape:export-xdpi="90"
   inkscape:export-ydpi="90" />
<path
   d="m 52.169141,23.850983 c 0.397488,0.217871 0.543844,0.714316 0.327637,1.112636 l -0.07151,0.129724 c -0.216207,0.398321 -0.713484,0.543845 -1.110141,0.329301 l -0.917218,-0.49894 C 50.000416,24.706665 49.85406,24.21022 50.069436,23.8119 l 0.07235,-0.130556 c 0.215376,-0.397489 0.712652,-0.544676 1.110141,-0.327637 l 0.917218,0.497276 z"
   id="path47"
   inkscape:connector-curvature="0"
   style="fill:#664027"
   inkscape:export-filename="C:\Wyneos\Cloud\AnimalWebAction\brainstorming\v4.0\icones\bande1\icone-final\path433.png"
   inkscape:export-xdpi="90"
   inkscape:export-ydpi="90" />
<path
   d="m 53.335828,22.785747 c 0.429088,0.141366 0.66359,0.604549 0.522224,1.034468 l -0.0474,0.141367 c -0.138871,0.430751 -0.60538,0.664421 -1.033636,0.523055 L 51.78662,24.159494 C 51.3567,24.018128 51.12303,23.554946 51.263565,23.125026 l 0.04574,-0.141366 c 0.142198,-0.42992 0.606212,-0.664422 1.034468,-0.523055 l 0.992059,0.325142 z"
   id="path49"
   inkscape:connector-curvature="0"
   style="fill:#664027"
   inkscape:export-filename="C:\Wyneos\Cloud\AnimalWebAction\brainstorming\v4.0\icones\bande1\icone-final\path433.png"
   inkscape:export-xdpi="90"
   inkscape:export-ydpi="90" />
<path
   d="m 55.047191,21.755436 c 0.432415,0.141367 0.666085,0.603717 0.523887,1.034469 l -0.04657,0.141366 c -0.142197,0.42992 -0.604548,0.664421 -1.033636,0.523055 L 53.50131,23.129184 c -0.431583,-0.142198 -0.666085,-0.60538 -0.523887,-1.034469 l 0.04657,-0.141366 c 0.141366,-0.42992 0.60538,-0.664421 1.034468,-0.523055 l 0.988732,0.325142 z"
   id="path51"
   inkscape:connector-curvature="0"
   style="fill:#664027"
   inkscape:export-filename="C:\Wyneos\Cloud\AnimalWebAction\brainstorming\v4.0\icones\bande1\icone-final\path433.png"
   inkscape:export-xdpi="90"
   inkscape:export-ydpi="90" />
<path
   d="m 56.104944,20.3767 c 0.445719,0.07318 0.748409,0.495613 0.6744,0.942164 l -0.02328,0.146356 c -0.07152,0.446551 -0.494782,0.750073 -0.940501,0.675232 l -1.02782,-0.168808 C 54.339529,21.896803 54.03767,21.47603 54.110848,21.029479 l 0.02495,-0.146356 c 0.07318,-0.446551 0.49395,-0.750072 0.93967,-0.675231 l 1.029479,0.168808 z"
   id="path53"
   inkscape:connector-curvature="0"
   style="fill:#664027"
   inkscape:export-filename="C:\Wyneos\Cloud\AnimalWebAction\brainstorming\v4.0\icones\bande1\icone-final\path433.png"
   inkscape:export-xdpi="90"
   inkscape:export-ydpi="90" />
<path
   d="m 56.987235,19.495239 c 0.44572,0.07318 0.74841,0.495614 0.675232,0.942165 l -0.02411,0.146356 c -0.07152,0.446551 -0.494782,0.750072 -0.940502,0.675231 l -1.02782,-0.168808 C 55.22182,21.015342 54.919962,20.59457 54.993971,20.148019 l 0.02412,-0.146356 c 0.07401,-0.446551 0.49395,-0.750073 0.939669,-0.675232 l 1.029479,0.168808 z"
   id="path55"
   inkscape:connector-curvature="0"
   style="fill:#664027"
   inkscape:export-filename="C:\Wyneos\Cloud\AnimalWebAction\brainstorming\v4.0\icones\bande1\icone-final\path433.png"
   inkscape:export-xdpi="90"
   inkscape:export-ydpi="90" />
<path
   d="m 57.868696,18.612947 c 0.446551,0.07318 0.748409,0.495614 0.675231,0.942165 l -0.02412,0.146356 c -0.07151,0.446551 -0.494782,0.749241 -0.940501,0.675232 L 56.55149,20.207892 c -0.448214,-0.07484 -0.749241,-0.495614 -0.676064,-0.942165 l 0.02412,-0.146356 c 0.07401,-0.446551 0.49395,-0.750072 0.940501,-0.675231 l 1.028648,0.168807 z"
   id="path57"
   inkscape:connector-curvature="0"
   style="fill:#664027"
   inkscape:export-filename="C:\Wyneos\Cloud\AnimalWebAction\brainstorming\v4.0\icones\bande1\icone-final\path433.png"
   inkscape:export-xdpi="90"
   inkscape:export-ydpi="90" />
<path
   d="m 26.018045,25.817638 c 0.227018,0.391667 0.09397,0.893102 -0.298532,1.120119 l -0.128062,0.07401 c -0.391667,0.227017 -0.893102,0.09397 -1.120119,-0.298533 l -0.523055,-0.901417 c -0.226186,-0.391668 -0.09314,-0.893103 0.298532,-1.120952 l 0.129724,-0.07401 c 0.390836,-0.226186 0.893102,-0.09314 1.119288,0.298532 l 0.522224,0.90225 z"
   id="path59"
   inkscape:connector-curvature="0"
   style="fill:#664027"
   inkscape:export-filename="C:\Wyneos\Cloud\AnimalWebAction\brainstorming\v4.0\icones\bande1\icone-final\path433.png"
   inkscape:export-xdpi="90"
   inkscape:export-ydpi="90" />
<path
   d="m 27.613821,25.984782 c 0.226186,0.391668 0.0923,0.892271 -0.298533,1.120952 l -0.128892,0.07318 c -0.390837,0.227018 -0.892271,0.09314 -1.118457,-0.2977 l -0.523055,-0.90225 c -0.226186,-0.391667 -0.09314,-0.893102 0.297701,-1.120951 l 0.128892,-0.07484 c 0.390836,-0.225354 0.893102,-0.0923 1.120952,0.299364 l 0.521392,0.902249 z"
   id="path61"
   inkscape:connector-curvature="0"
   style="fill:#664027"
   inkscape:export-filename="C:\Wyneos\Cloud\AnimalWebAction\brainstorming\v4.0\icones\bande1\icone-final\path433.png"
   inkscape:export-xdpi="90"
   inkscape:export-ydpi="90" />
<path
   d="m 29.578812,26.357324 c 0.225354,0.393331 0.09147,0.893102 -0.299364,1.120951 l -0.128893,0.07484 c -0.390836,0.225355 -0.892271,0.0923 -1.119288,-0.298532 l -0.523055,-0.902249 c -0.227018,-0.3925 -0.09314,-0.892271 0.2977,-1.12012 l 0.129725,-0.07484 c 0.390836,-0.227018 0.893933,-0.0923 1.12012,0.298532 l 0.523055,0.901418 z"
   id="path63"
   inkscape:connector-curvature="0"
   style="fill:#664027"
   inkscape:export-filename="C:\Wyneos\Cloud\AnimalWebAction\brainstorming\v4.0\icones\bande1\icone-final\path433.png"
   inkscape:export-xdpi="90"
   inkscape:export-ydpi="90" />
<path
   d="m 31.195376,26.555237 c 0.225355,0.392499 0.09314,0.893102 -0.299363,1.120951 l -0.128062,0.07401 c -0.392499,0.227018 -0.893933,0.09314 -1.119288,-0.2977 l -0.523055,-0.90225 c -0.226186,-0.392499 -0.09397,-0.893933 0.297701,-1.121782 l 0.128893,-0.07318 c 0.391667,-0.226186 0.893102,-0.0923 1.120119,0.2977 l 0.523055,0.90225 z"
   id="path65"
   inkscape:connector-curvature="0"
   style="fill:#664027"
   inkscape:export-filename="C:\Wyneos\Cloud\AnimalWebAction\brainstorming\v4.0\icones\bande1\icone-final\path433.png"
   inkscape:export-xdpi="90"
   inkscape:export-ydpi="90" />
<path
   d="m 32.870982,27.009272 c 0.227018,0.392499 0.0948,0.893934 -0.298532,1.12012 l -0.128061,0.07484 c -0.390836,0.227017 -0.892271,0.0923 -1.119288,-0.297701 l -0.522224,-0.902249 c -0.227017,-0.391668 -0.09314,-0.893103 0.297701,-1.120952 l 0.128893,-0.07484 c 0.390836,-0.225354 0.894765,-0.0923 1.120119,0.298533 l 0.521392,0.902249 z"
   id="path67"
   inkscape:connector-curvature="0"
   style="fill:#664027"
   inkscape:export-filename="C:\Wyneos\Cloud\AnimalWebAction\brainstorming\v4.0\icones\bande1\icone-final\path433.png"
   inkscape:export-xdpi="90"
   inkscape:export-ydpi="90" />
<path
   d="m 34.468421,27.177248 c 0.225355,0.391668 0.09064,0.891439 -0.299364,1.119289 l -0.127229,0.07567 c -0.393331,0.226186 -0.893934,0.09147 -1.12012,-0.298532 l -0.523055,-0.90225 c -0.227018,-0.392499 -0.09397,-0.893102 0.297701,-1.120951 l 0.128892,-0.07484 c 0.391668,-0.225354 0.893103,-0.0923 1.12012,0.300196 l 0.523055,0.901417 z"
   id="path69"
   inkscape:connector-curvature="0"
   style="fill:#664027"
   inkscape:export-filename="C:\Wyneos\Cloud\AnimalWebAction\brainstorming\v4.0\icones\bande1\icone-final\path433.png"
   inkscape:export-xdpi="90"
   inkscape:export-ydpi="90" />
<path
   d="m 36.133217,27.252089 c 0.226186,0.391668 0.09313,0.893102 -0.297701,1.12012 l -0.128893,0.07401 c -0.392499,0.227018 -0.893102,0.09314 -1.120951,-0.2977 l -0.522223,-0.90225 c -0.226187,-0.392499 -0.09147,-0.893102 0.298532,-1.120119 l 0.128061,-0.07484 c 0.393331,-0.226186 0.893934,-0.09314 1.121783,0.2977 l 0.521392,0.903081 z"
   id="path71"
   inkscape:connector-curvature="0"
   style="fill:#664027"
   inkscape:export-filename="C:\Wyneos\Cloud\AnimalWebAction\brainstorming\v4.0\icones\bande1\icone-final\path433.png"
   inkscape:export-xdpi="90"
   inkscape:export-ydpi="90" />
<path
   d="m 37.624215,27.252089 c 0.225355,0.391668 0.09064,0.893102 -0.299364,1.12012 l -0.128061,0.07401 c -0.392499,0.227018 -0.893102,0.09314 -1.120951,-0.2977 l -0.522224,-0.90225 c -0.226186,-0.392499 -0.0923,-0.893102 0.299364,-1.120119 l 0.128893,-0.07484 c 0.391668,-0.226186 0.89227,-0.09314 1.118456,0.2977 l 0.523887,0.903081 z"
   id="path73"
   inkscape:connector-curvature="0"
   style="fill:#664027"
   inkscape:export-filename="C:\Wyneos\Cloud\AnimalWebAction\brainstorming\v4.0\icones\bande1\icone-final\path433.png"
   inkscape:export-xdpi="90"
   inkscape:export-ydpi="90" />
<path
   d="m 29.740967,29.101493 c -0.453203,0.0158 -0.832398,-0.378363 -0.848197,-0.879797 l -0.0067,-0.164651 c -0.0158,-0.500602 0.337616,-0.918049 0.789156,-0.932185 l 1.041953,-0.03493 c 0.453204,-0.01497 0.833229,0.379194 0.849029,0.879797 l 0.005,0.16465 c 0.01663,0.501435 -0.337615,0.918049 -0.789156,0.933017 l -1.041121,0.0341 z"
   id="path75"
   inkscape:connector-curvature="0"
   style="fill:#664027"
   inkscape:export-filename="C:\Wyneos\Cloud\AnimalWebAction\brainstorming\v4.0\icones\bande1\icone-final\path433.png"
   inkscape:export-xdpi="90"
   inkscape:export-ydpi="90" />
<path
   d="m 28.844539,30.566712 c -0.453204,0.0158 -0.83323,-0.378362 -0.849029,-0.878965 l -0.0058,-0.165482 c -0.01663,-0.499771 0.336784,-0.918049 0.789988,-0.932186 l 1.04112,-0.03409 c 0.452373,-0.01497 0.832398,0.378363 0.84903,0.878966 l 0.0067,0.165481 c 0.0158,0.500603 -0.339279,0.91805 -0.789988,0.933018 l -1.041952,0.03326 z"
   id="path77"
   inkscape:connector-curvature="0"
   style="fill:#664027"
   inkscape:export-filename="C:\Wyneos\Cloud\AnimalWebAction\brainstorming\v4.0\icones\bande1\icone-final\path433.png"
   inkscape:export-xdpi="90"
   inkscape:export-ydpi="90" />
<path
   d="m 27.593031,32.282234 c -0.452372,0.01497 -0.831566,-0.378363 -0.849029,-0.878966 l -0.005,-0.165482 c -0.01663,-0.500603 0.337616,-0.918049 0.789988,-0.932185 l 1.041121,-0.0341 c 0.453203,-0.01497 0.832398,0.379195 0.849029,0.879797 l 0.005,0.164651 c 0.01746,0.501434 -0.335952,0.918049 -0.789156,0.933017 l -1.041953,0.03326 z"
   id="path79"
   inkscape:connector-curvature="0"
   style="fill:#664027"
   inkscape:export-filename="C:\Wyneos\Cloud\AnimalWebAction\brainstorming\v4.0\icones\bande1\icone-final\path433.png"
   inkscape:export-xdpi="90"
   inkscape:export-ydpi="90" />
<path
   d="m 26.659183,33.751611 c -0.451541,0.01497 -0.831567,-0.378362 -0.84903,-0.878965 l -0.005,-0.165482 c -0.0158,-0.500603 0.337616,-0.918049 0.789988,-0.932186 l 1.041952,-0.03493 c 0.451541,-0.01414 0.831567,0.379195 0.848198,0.880629 l 0.005,0.163819 c 0.0158,0.500602 -0.335952,0.918049 -0.789156,0.933017 l -1.041952,0.03409 z"
   id="path81"
   inkscape:connector-curvature="0"
   style="fill:#664027"
   inkscape:export-filename="C:\Wyneos\Cloud\AnimalWebAction\brainstorming\v4.0\icones\bande1\icone-final\path433.png"
   inkscape:export-xdpi="90"
   inkscape:export-ydpi="90" />
<path
   d="m 31.753357,27.588042 c 0.453204,0.01497 0.832398,-0.380026 0.848198,-0.879797 l 0.0075,-0.16465 c 0.0158,-0.500603 -0.337616,-0.918049 -0.790819,-0.933017 l -1.041953,-0.0341 c -0.452372,-0.01497 -0.831566,0.378363 -0.848197,0.879797 l -0.0058,0.163819 c -0.01663,0.500603 0.337615,0.918049 0.789987,0.933017 l 1.041121,0.03493 z"
   id="path83"
   inkscape:connector-curvature="0"
   style="fill:#664027"
   inkscape:export-filename="C:\Wyneos\Cloud\AnimalWebAction\brainstorming\v4.0\icones\bande1\icone-final\path433.png"
   inkscape:export-xdpi="90"
   inkscape:export-ydpi="90" />
<path
   d="m 33.005696,29.303563 c 0.452372,0.01497 0.831566,-0.379194 0.848198,-0.879797 l 0.0058,-0.16465 c 0.01663,-0.501434 -0.336785,-0.918049 -0.789988,-0.933017 l -1.041121,-0.03493 c -0.453204,-0.01414 -0.83323,0.380026 -0.849029,0.880629 l -0.005,0.165481 c -0.01829,0.500603 0.336785,0.918049 0.787494,0.932186 l 1.043615,0.03409 z"
   id="path85"
   inkscape:connector-curvature="0"
   style="fill:#664027"
   inkscape:export-filename="C:\Wyneos\Cloud\AnimalWebAction\brainstorming\v4.0\icones\bande1\icone-final\path433.png"
   inkscape:export-xdpi="90"
   inkscape:export-ydpi="90" />
<path
   d="m 33.938714,30.772941 c 0.452372,0.01497 0.832397,-0.380026 0.849029,-0.879797 l 0.005,-0.16465 c 0.01663,-0.501435 -0.336784,-0.918881 -0.789988,-0.933018 l -1.041121,-0.03493 c -0.452372,-0.01414 -0.832398,0.380026 -0.849029,0.880629 l -0.0042,0.163819 c -0.01663,0.500603 0.335953,0.91888 0.788325,0.932185 l 1.041953,0.03576 z"
   id="path87"
   inkscape:connector-curvature="0"
   style="fill:#664027"
   inkscape:export-filename="C:\Wyneos\Cloud\AnimalWebAction\brainstorming\v4.0\icones\bande1\icone-final\path433.png"
   inkscape:export-xdpi="90"
   inkscape:export-ydpi="90" />
<path
   d="m 35.127853,32.166646 c 0.451541,0.01497 0.831567,-0.380026 0.848198,-0.880629 l 0.005,-0.163818 c 0.01746,-0.501435 -0.336784,-0.918049 -0.788325,-0.932186 l -1.042784,-0.03409 c -0.45154,-0.01663 -0.831566,0.377531 -0.848197,0.878965 l -0.0067,0.16465 c -0.01663,0.499772 0.336785,0.918049 0.789988,0.932186 l 1.042784,0.03493 z"
   id="path89"
   inkscape:connector-curvature="0"
   style="fill:#664027"
   inkscape:export-filename="C:\Wyneos\Cloud\AnimalWebAction\brainstorming\v4.0\icones\bande1\icone-final\path433.png"
   inkscape:export-xdpi="90"
   inkscape:export-ydpi="90" />
<path
   d="m 36.02345,33.631866 c 0.452372,0.01497 0.832398,-0.379195 0.849029,-0.880629 l 0.005,-0.163819 c 0.01746,-0.500602 -0.336785,-0.918049 -0.788325,-0.933017 l -1.042784,-0.03493 c -0.451541,-0.01414 -0.831566,0.380026 -0.849029,0.880629 l -0.0058,0.16465 c -0.01746,0.501435 0.336784,0.918049 0.789156,0.932186 l 1.042784,0.03493 z"
   id="path91"
   inkscape:connector-curvature="0"
   style="fill:#664027"
   inkscape:export-filename="C:\Wyneos\Cloud\AnimalWebAction\brainstorming\v4.0\icones\bande1\icone-final\path433.png"
   inkscape:export-xdpi="90"
   inkscape:export-ydpi="90" />
<path
   d="m 0.44073,41.884329 c 0.597065,0.760052 8.477818,4.821421 9.463224,3.68467"
   id="path93"
   inkscape:connector-curvature="0"
   style="fill:#f99026"
   inkscape:export-filename="C:\Wyneos\Cloud\AnimalWebAction\brainstorming\v4.0\icones\bande1\icone-final\path433.png"
   inkscape:export-xdpi="90"
   inkscape:export-ydpi="90" />
<path
   d="m 1.412831,59.423725 c 0.475656,0.761714 6.750655,4.823084 7.53399,3.685501"
   id="path95"
   inkscape:connector-curvature="0"
   style="fill:#f99026"
   inkscape:export-filename="C:\Wyneos\Cloud\AnimalWebAction\brainstorming\v4.0\icones\bande1\icone-final\path433.png"
   inkscape:export-xdpi="90"
   inkscape:export-ydpi="90" />
<path
   d="m 5.220573,23.460979 c 0.499771,0.761714 7.079123,4.822252 7.901543,3.685501"
   id="path97"
   inkscape:connector-curvature="0"
   style="fill:#f99026"
   inkscape:export-filename="C:\Wyneos\Cloud\AnimalWebAction\brainstorming\v4.0\icones\bande1\icone-final\path433.png"
   inkscape:export-xdpi="90"
   inkscape:export-ydpi="90" />
<path
   d="m 54.316245,26.674151 c 0.832397,0.02079 6.378113,-2.243566 5.582304,-3.225646"
   id="path99"
   inkscape:connector-curvature="0"
   style="fill:#f99026"
   inkscape:export-filename="C:\Wyneos\Cloud\AnimalWebAction\brainstorming\v4.0\icones\bande1\icone-final\path433.png"
   inkscape:export-xdpi="90"
   inkscape:export-ydpi="90" />
<path
   d="m 49.094009,42.577024 c 1.234875,0.115588 14.293792,-3.414411 15.040538,-5.241362"
   id="path101"
   inkscape:connector-curvature="0"
   style="fill:#f99026"
   inkscape:export-filename="C:\Wyneos\Cloud\AnimalWebAction\brainstorming\v4.0\icones\bande1\icone-final\path433.png"
   inkscape:export-xdpi="90"
   inkscape:export-ydpi="90" />
<path
   d="M 37.679099,71.627791 C 39.583385,71.312627 61.466883,62.142115 63.318781,59.609164"
   id="path103"
   inkscape:connector-curvature="0"
   style="fill:#f99026"
   inkscape:export-filename="C:\Wyneos\Cloud\AnimalWebAction\brainstorming\v4.0\icones\bande1\icone-final\path433.png"
   inkscape:export-xdpi="90"
   inkscape:export-ydpi="90" />
<g
   id="g105"
   transform="matrix(0.83156626,0,0,0.83156626,-8.7871606,-1.896803)"
   inkscape:export-filename="C:\Wyneos\Cloud\AnimalWebAction\brainstorming\v4.0\icones\bande1\icone-final\path433.png"
   inkscape:export-xdpi="90"
   inkscape:export-ydpi="90">
	<g
   id="g107">
		<g
   enable-background="new    "
   id="g109">
			<defs
   id="defs111">
				<polygon
   id="SVGID_1_"
   enable-background="new    "
   points="24.808,89.778 24.323,37.723 55.953,41.047 56.438,93.103 " />
			</defs>
			<clipPath
   id="SVGID_2_">
				<use
   xlink:href="#SVGID_1_"
   overflow="visible"
   id="use115"
   style="overflow:visible"
   x="0"
   y="0"
   width="100"
   height="100" />
			</clipPath>
			<g
   clip-path="url(#SVGID_2_)"
   id="g117">
				<g
   id="g119">
					<g
   id="g121">
						<g
   id="g123">
							<path
   d="m 40.202,43.147 c -6.841,-0.719 -9.197,4.204 -9.599,4.854 -1.062,1.74 -3.838,5.369 -4.639,8.392 -0.138,0.524 -0.059,0.795 0.162,0.818 0.163,0.018 0.402,-0.1 0.688,-0.349 0.435,-0.387 1.004,-0.716 1.938,-0.999 1.273,-0.394 2.083,-0.707 3.088,-1.354 0.31,-0.205 0.509,-0.308 0.603,-0.298 0.13,0.014 0.056,0.242 -0.209,0.703 -0.139,0.237 -0.269,0.482 -0.383,0.739 -0.269,0.572 -0.127,0.939 0.246,0.979 0.169,0.018 0.385,-0.031 0.632,-0.159 1.634,-0.858 4.341,-2.149 6.353,-2.422 2.791,-0.374 5.904,-0.834 9.72,-4.111 0.674,-0.578 0.771,-1.796 0.199,-2.627 -1.084,-1.567 -2.807,-3.229 -8.013,-4.062 -0.267,-0.042 -0.53,-0.077 -0.786,-0.104"
   id="path125"
   inkscape:connector-curvature="0"
   style="fill:#ffffff" />
							<path
   d="m 40.438,89.096 c -0.008,-0.001 -0.017,-0.002 -0.025,-0.002 -0.1,-0.02 -0.183,-0.062 -0.258,-0.123 -0.134,-0.117 -0.201,-0.264 -0.211,-0.411 -0.009,-0.105 0.023,-0.205 0.072,-0.305 0.082,-0.147 0.567,-0.546 0.911,-1.056 0.286,-0.437 0.357,-0.74 0.421,-1.037 l 0.016,-0.085 0.048,-0.176 c 0.098,-0.475 0.231,-1.116 0.627,-1.074 0.022,0.003 0.044,0.007 0.067,0.013 0.15,0.042 0.267,0.124 0.342,0.253 0.219,0.344 0.091,0.883 0.083,0.908 -0.451,2.384 -1.506,3.156 -2.093,3.095 m -3.549,-0.648 c -0.016,-0.002 -0.031,-0.005 -0.047,-0.007 -0.598,-0.09 -1.645,-1.238 -1.886,-3.894 0,-0.026 -0.08,-0.624 0.166,-0.908 0.099,-0.103 0.222,-0.15 0.389,-0.134 0.465,0.067 0.546,0.794 0.609,1.32 l 0.027,0.201 0.009,0.088 c 0.044,0.333 0.081,0.674 0.343,1.213 0.304,0.646 0.758,1.23 0.826,1.402 0.042,0.108 0.06,0.222 0.044,0.324 -0.015,0.163 -0.104,0.283 -0.253,0.354 -0.07,0.038 -0.146,0.049 -0.227,0.041 m 1.845,-12.875 c -2.34,-0.246 -4.381,0.409 -5.668,0.986 -0.817,0.373 -1.279,1.562 -1.104,2.532 0.577,3.168 1.101,6.053 1.101,6.053 0,0 1.123,4.783 5.632,5.638 0.179,0.033 0.353,0.059 0.522,0.077 4.098,0.431 5.407,-3.591 5.407,-3.591 0,0 0.7,-2.212 1.553,-5.056 0.274,-0.896 0.004,-2.284 -0.683,-3.022 -2.273,-2.431 -4.64,-3.394 -6.76,-3.617"
   id="path127"
   inkscape:connector-curvature="0"
   style="fill:#ffffff" />
							<path
   d="m 44.878,63.593 c -0.02,-0.002 -0.041,-0.004 -0.061,-0.008 -0.623,-0.108 -1.118,-0.714 -1.09,-1.37 0.026,-0.625 0.528,-1.07 1.132,-1.008 0.021,0.003 0.041,0.006 0.061,0.009 0.623,0.101 1.118,0.715 1.09,1.37 -0.025,0.625 -0.527,1.07 -1.132,1.007 m -9.282,-1.495 c -0.021,-0.002 -0.04,-0.004 -0.061,-0.007 -0.63,-0.102 -1.117,-0.707 -1.09,-1.361 0.026,-0.625 0.528,-1.071 1.125,-1.009 0.02,0.003 0.04,0.005 0.06,0.009 0.631,0.1 1.118,0.714 1.091,1.36 -0.028,0.633 -0.529,1.07 -1.125,1.008 m 15.1,-10.944 c -0.313,-0.033 -0.645,0.07 -0.934,0.315 -4.113,3.462 -7.508,3.928 -10.291,4.292 -2.286,0.314 -5.998,2.286 -7.235,3.014 l -2.062,1.22 c -0.251,0.149 -0.469,0.21 -0.642,0.192 -0.354,-0.037 -0.516,-0.406 -0.377,-1.026 l 0.008,-0.017 c 0.197,-0.912 0.33,-1.645 0.293,-1.648 h -0.001 l -0.083,0.026 c -0.265,0.085 -0.479,0.166 -0.669,0.241 -0.355,0.162 -0.553,1.145 -0.437,2.118 0.27,2.286 0.861,6.087 2.101,11.028 0.241,0.961 0.5,2.053 0.569,2.423 0.026,0.157 0.16,0.242 0.369,0.265 0.294,0.03 0.735,-0.064 1.223,-0.262 2.276,-0.92 4.34,-1.142 6.159,-0.951 3.593,0.378 6.23,2.365 7.664,3.746 0.709,0.688 1.208,1.312 1.23,1.315 0,0 0,0 10e-4,-10e-4 l 0.008,-0.051 c 1.349,-4.713 4.937,-8.525 5.429,-16.141 0.26,-4.118 -0.522,-7.229 -1.296,-9.224 -0.208,-0.533 -0.601,-0.829 -1.027,-0.874"
   id="path129"
   inkscape:connector-curvature="0"
   style="fill:#ffffff" />
							<path
   d="m 27.447,38.051 c -0.227,-0.024 -0.446,0.158 -0.564,0.334 -1.53,2.158 -0.066,5.393 1.113,7.343 0.485,0.806 0.981,1.367 1.09,1.379 0.008,0 0.014,-10e-4 0.018,-0.007 l 0.09,-0.146 0.065,-0.114 c 0.286,-0.498 0.596,-0.958 0.932,-1.39 C 30.74,44.729 30.68,43.676 30.018,42.913 28.3,40.932 28.224,39.894 28.153,39.393 28.007,38.406 27.72,38.08 27.447,38.051"
   id="path131"
   inkscape:connector-curvature="0"
   style="fill:#ffffff" />
							<path
   d="m 54.523,63.712 c -0.053,-0.006 -0.122,0.225 -0.204,0.69 -0.646,3.758 -2.004,6.548 -3.225,9.06 -0.756,1.581 -1.48,3.071 -1.922,4.592 -1.333,4.681 -2.959,9.866 -2.984,9.906 -0.218,0.652 -0.625,1.493 -1.264,2.265 -0.573,0.701 -0.427,1.357 0.496,1.602 0.216,0.058 0.44,0.125 0.673,0.175 0.071,0.018 0.142,0.029 0.211,0.037 0.833,0.087 1.536,-0.534 1.658,-1.407 0.296,-2.08 0.862,-5.327 1.209,-7.298 0.094,-0.534 0.264,-0.8 0.448,-0.78 0.138,0.015 0.284,0.189 0.412,0.533 0.15,0.405 0.432,0.652 0.71,0.682 0.271,0.028 0.541,-0.149 0.683,-0.588 0.549,-1.611 0.649,-4.181 0.616,-5.941 -0.005,-0.534 0.105,-0.805 0.278,-0.786 0.141,0.015 0.322,0.22 0.517,0.628 0.093,0.191 0.187,0.4 0.271,0.608 0.199,0.481 0.448,0.758 0.666,0.781 0.201,0.021 0.376,-0.173 0.463,-0.619 0.538,-2.782 0.551,-8.526 0.389,-13.398 -0.012,-0.491 -0.047,-0.737 -0.101,-0.742"
   id="path133"
   inkscape:connector-curvature="0"
   style="fill:#ffffff" />
							<path
   d="m 26.446,60.378 c -0.079,-0.008 -0.157,0.223 -0.223,0.69 -0.655,4.526 -1.612,9.376 -1.571,12.02 0.009,0.493 0.157,0.743 0.36,0.764 0.197,0.021 0.445,-0.171 0.67,-0.561 0.106,-0.179 0.212,-0.341 0.318,-0.511 0.214,-0.324 0.404,-0.47 0.543,-0.455 0.185,0.02 0.28,0.322 0.224,0.864 -0.166,1.73 -0.284,4.297 0.123,6.062 0.114,0.513 0.397,0.776 0.691,0.808 0.26,0.027 0.528,-0.128 0.696,-0.454 0.146,-0.286 0.297,-0.414 0.43,-0.4 0.192,0.021 0.346,0.338 0.396,0.91 0.177,2.062 0.465,5.441 0.584,7.591 0.058,0.961 0.782,1.849 1.692,1.944 0.014,10e-4 0.028,0.003 0.042,0.003 0.232,0.017 0.464,0.023 0.68,0.047 0.929,0.046 1.13,-0.557 0.625,-1.423 C 32.162,87.3 31.813,86.346 31.657,85.637 31.648,85.583 30.46,79.955 29.534,74.908 29.228,73.266 28.691,71.678 28.359,69.826 27.834,66.819 27.158,64.654 26.67,61.124 26.604,60.636 26.525,60.387 26.446,60.378"
   id="path135"
   inkscape:connector-curvature="0"
   style="fill:#ffffff" />
							<path
   d="m 55.286,42.508 c -0.262,-0.027 -0.553,0.223 -0.763,1.102 -0.12,0.49 -0.269,1.495 -2.203,2.945 -0.717,0.53 -1.31,0.953 -1.259,1.027 l 0.158,0.095 c 0.002,-0.002 0.005,-0.003 0.008,-0.002 0.047,0.005 0.213,0.254 0.387,0.58 0.194,0.35 0.396,0.7 0.456,0.784 l 0.092,0.174 c -0.008,0.008 0.035,0.117 0.094,0.235 l 0.117,0.22 c 0.11,0.202 0.229,0.439 0.355,0.695 0.059,0.123 0.165,0.191 0.301,0.206 0.299,0.031 0.74,-0.194 1.146,-0.668 1.312,-1.55 3.012,-4.261 1.686,-6.876 -0.11,-0.225 -0.331,-0.491 -0.575,-0.517"
   id="path137"
   inkscape:connector-curvature="0"
   style="fill:#ffffff" />
						</g>
					</g>
				</g>
			</g>
		</g>
	</g>
</g>
<path
   d="m 31.13883,3.369506 c -3.222319,0 -13.912935,-0.705999 -16.549832,0 -2.636896,0.706 -8.269926,1.025322 -9.9605,3.882583 -1.690574,2.857262 6.101201,4.787327 6.444638,5.823459 1.464388,4.41229 6.883706,2.117167 8.496113,2.647707 1.610744,0.530539 3.367843,6.882042 9.812481,4.941166 2.89884,-0.872313 5.853395,-3.353706 8.126066,-4.588582 2.272671,-1.235708 6.228431,4.41229 9.889817,-0.353416 3.660555,-4.764043 6.049645,4.396491 8.93518,-3.000291 C 59.217496,5.32535 53.695065,5.311214 48.422935,4.780674 43.149973,4.25263 31.13883,3.369506 31.13883,3.369506 z"
   id="path139"
   inkscape:connector-curvature="0"
   style="fill:#8a9352"
   inkscape:export-filename="C:\Wyneos\Cloud\AnimalWebAction\brainstorming\v4.0\icones\bande1\icone-final\path433.png"
   inkscape:export-xdpi="90"
   inkscape:export-ydpi="90" />
<g
   id="g141"
   transform="matrix(0.83156626,0,0,0.83156626,-8.7871606,-1.896803)"
   inkscape:export-filename="C:\Wyneos\Cloud\AnimalWebAction\brainstorming\v4.0\icones\bande1\icone-final\path433.png"
   inkscape:export-xdpi="90"
   inkscape:export-ydpi="90">
	<path
   d="m 32.842,16.328 c 0.235,0.379 0.913,0.384 1.512,0.011 l 0,0 c 0.6,-0.373 0.894,-0.981 0.658,-1.363 l -1.78,-2.86 c -0.236,-0.379 -0.915,-0.385 -1.514,-0.011 l 0,0 c -0.599,0.372 -0.893,0.981 -0.657,1.361 l 1.781,2.862 z"
   id="path143"
   inkscape:connector-curvature="0"
   style="fill:#6d725c" />
	<path
   d="m 56.536,16.44 c 0.344,0.286 0.988,0.077 1.44,-0.466 l 0,0 c 0.451,-0.544 0.537,-1.215 0.194,-1.502 L 55.576,12.32 c -0.344,-0.285 -0.988,-0.074 -1.439,0.468 l 0,0 c -0.452,0.542 -0.539,1.214 -0.192,1.5 l 2.591,2.152 z"
   id="path145"
   inkscape:connector-curvature="0"
   style="fill:#6d725c" />
	<path
   d="m 46.991,16.44 c 0.344,0.286 0.988,0.077 1.44,-0.466 l 0,0 c 0.451,-0.544 0.537,-1.215 0.194,-1.502 L 46.032,12.32 c -0.344,-0.285 -0.988,-0.074 -1.44,0.468 l 0,0 c -0.452,0.542 -0.539,1.214 -0.192,1.5 l 2.591,2.152 z"
   id="path147"
   inkscape:connector-curvature="0"
   style="fill:#6d725c" />
	<g
   id="g149">
		<path
   d="m 55.913,16.09 c 0.433,0.557 0.333,1.359 -0.223,1.795 l 0,0 c -0.558,0.433 -1.36,0.332 -1.795,-0.225 L 50.622,13.459 C 50.188,12.9 50.289,12.098 50.845,11.666 l 0,0 c 0.557,-0.436 1.361,-0.336 1.794,0.223 l 3.274,4.201 z"
   id="path151"
   inkscape:connector-curvature="0"
   style="fill:#494d42" />
		<path
   d="m 45.773,8.971 c 0.706,0.035 1.249,0.633 1.213,1.339 l 0,0 c -0.034,0.706 -0.634,1.248 -1.34,1.214 L 40.327,11.26 C 39.62,11.227 39.079,10.625 39.114,9.922 l 0,0 c 0.033,-0.706 0.633,-1.25 1.338,-1.215 l 5.321,0.264 z"
   id="path153"
   inkscape:connector-curvature="0"
   style="fill:#494d42" />
		<path
   d="m 53.278,12.085 c -0.235,0.38 -0.913,0.384 -1.513,0.011 l 0,0 c -0.6,-0.372 -0.894,-0.981 -0.658,-1.362 l 1.781,-2.86 c 0.236,-0.38 0.914,-0.385 1.514,-0.012 l 0,0 c 0.599,0.373 0.894,0.982 0.657,1.361 l -1.781,2.862 z"
   id="path155"
   inkscape:connector-curvature="0"
   style="fill:#6d725c" />
		<path
   d="m 34.47,11.068 c 0.037,-0.706 0.64,-1.246 1.343,-1.209 l 0,0 c 0.708,0.039 1.247,0.642 1.209,1.348 l -0.289,5.317 c -0.039,0.705 -0.641,1.245 -1.346,1.206 l 0,0 c -0.704,-0.037 -1.246,-0.64 -1.206,-1.346 l 0.289,-5.316 z"
   id="path157"
   inkscape:connector-curvature="0"
   style="fill:#494d42" />
		<path
   d="m 37.784,19.523 c -0.706,-0.025 -1.256,-0.617 -1.231,-1.322 l 0,0 c 0.025,-0.705 0.615,-1.258 1.323,-1.232 l 5.323,0.188 c 0.705,0.022 1.256,0.616 1.231,1.321 l 0,0 c -0.024,0.705 -0.615,1.258 -1.322,1.232 l -5.324,-0.187 z"
   id="path159"
   inkscape:connector-curvature="0"
   style="fill:#494d42" />
		<path
   d="m 52.604,16.654 c 0.434,0.109 0.645,0.754 0.473,1.438 l 0,0 c -0.173,0.686 -0.664,1.151 -1.098,1.043 l -3.268,-0.824 c -0.434,-0.11 -0.644,-0.755 -0.472,-1.439 l 0,0 c 0.172,-0.685 0.664,-1.15 1.098,-1.041 l 3.267,0.823 z"
   id="path161"
   inkscape:connector-curvature="0"
   style="fill:#6d725c" />
		<path
   d="m 47.3,17.715 c 0.434,0.109 0.645,0.754 0.472,1.438 l 0,0 c -0.173,0.686 -0.664,1.151 -1.097,1.043 l -3.268,-0.824 c -0.434,-0.11 -0.644,-0.754 -0.472,-1.439 l 0,0 c 0.172,-0.685 0.664,-1.15 1.098,-1.041 l 3.267,0.823 z"
   id="path163"
   inkscape:connector-curvature="0"
   style="fill:#6d725c" />
		<path
   d="m 44.077,16.98 c -0.347,0.617 -1.126,0.836 -1.741,0.49 l 0,0 c -0.615,-0.347 -0.833,-1.125 -0.489,-1.742 l 2.609,-4.643 c 0.347,-0.615 1.126,-0.834 1.741,-0.489 l 0,0 c 0.615,0.346 0.835,1.126 0.487,1.739 l -2.607,4.645 z"
   id="path165"
   inkscape:connector-curvature="0"
   style="fill:#494d42" />
		<path
   d="m 39.667,17.3 c -0.44,0.077 -0.895,-0.427 -1.016,-1.122 l 0,0 c -0.12,-0.695 0.138,-1.32 0.578,-1.398 l 3.321,-0.576 c 0.439,-0.076 0.895,0.426 1.017,1.121 l 0,0 c 0.12,0.695 -0.139,1.321 -0.579,1.398 L 39.667,17.3 z"
   id="path167"
   inkscape:connector-curvature="0"
   style="fill:#6d725c" />
		<path
   d="m 49.959,15.384 c 0.007,0.706 -0.562,1.282 -1.266,1.29 l 0,0 c -0.706,0.005 -1.284,-0.562 -1.292,-1.268 L 47.352,10.08 C 47.348,9.374 47.914,8.797 48.62,8.79 l 0,0 c 0.705,-0.007 1.283,0.562 1.288,1.267 l 0.051,5.327 z"
   id="path169"
   inkscape:connector-curvature="0"
   style="fill:#494d42" />
		<path
   d="m 52.165,18.288 c 0.677,-0.202 1.39,0.181 1.592,0.858 l 0,0 c 0.203,0.675 -0.18,1.387 -0.856,1.592 l -5.102,1.529 c -0.678,0.205 -1.388,-0.18 -1.591,-0.856 l 0,0 c -0.204,-0.675 0.179,-1.388 0.855,-1.591 l 5.102,-1.532 z"
   id="path171"
   inkscape:connector-curvature="0"
   style="fill:#494d42" />
		<path
   d="m 46.554,12.197 c -0.344,0.287 -0.988,0.077 -1.44,-0.466 l 0,0 C 44.662,11.187 44.576,10.516 44.919,10.23 l 2.594,-2.152 c 0.344,-0.285 0.988,-0.075 1.44,0.467 l 0,0 c 0.452,0.543 0.539,1.215 0.193,1.5 l -2.592,2.152 z"
   id="path173"
   inkscape:connector-curvature="0"
   style="fill:#6d725c" />
		<path
   d="m 39.129,14.318 c -0.344,0.287 -0.988,0.077 -1.439,-0.465 l 0,0 c -0.452,-0.545 -0.538,-1.215 -0.195,-1.502 l 2.594,-2.152 c 0.344,-0.285 0.988,-0.075 1.439,0.468 l 0,0 c 0.452,0.542 0.539,1.214 0.193,1.499 l -2.592,2.152 z"
   id="path175"
   inkscape:connector-curvature="0"
   style="fill:#6d725c" />
	</g>
</g>
<g
   id="g177"
   transform="matrix(0.83156626,0,0,0.83156626,-8.7871606,-1.896803)"
   inkscape:export-filename="C:\Wyneos\Cloud\AnimalWebAction\brainstorming\v4.0\icones\bande1\icone-final\path433.png"
   inkscape:export-xdpi="90"
   inkscape:export-ydpi="90">
	<path
   d="m 29.724,19.473 c 0.125,0.43 0.776,0.615 1.454,0.416 l 0,0 c 0.678,-0.199 1.124,-0.707 0.998,-1.137 l -0.95,-3.233 C 31.1,15.09 30.448,14.905 29.77,15.104 l 0,0 c -0.676,0.197 -1.123,0.707 -0.997,1.135 l 0.951,3.234 z"
   id="path179"
   inkscape:connector-curvature="0"
   style="fill:#6d725c" />
	<path
   d="m 52.523,25.923 c 0.255,0.367 0.933,0.339 1.513,-0.063 l 0,0 c 0.581,-0.404 0.843,-1.027 0.589,-1.396 L 52.703,21.695 C 52.447,21.33 51.77,21.359 51.189,21.761 l 0,0 c -0.58,0.401 -0.843,1.025 -0.586,1.394 l 1.92,2.768 z"
   id="path181"
   inkscape:connector-curvature="0"
   style="fill:#6d725c" />
	<path
   d="m 43.327,23.368 c 0.255,0.368 0.932,0.339 1.512,-0.063 l 0,0 c 0.581,-0.403 0.843,-1.027 0.589,-1.395 l -1.923,-2.769 c -0.255,-0.366 -0.932,-0.336 -1.513,0.065 l 0,0 c -0.58,0.402 -0.844,1.025 -0.587,1.395 l 1.922,2.767 z"
   id="path183"
   inkscape:connector-curvature="0"
   style="fill:#6d725c" />
	<g
   id="g185">
		<path
   d="m 52.018,25.418 c 0.268,0.652 -0.043,1.399 -0.695,1.67 l 0,0 c -0.652,0.268 -1.399,-0.044 -1.67,-0.696 l -2.029,-4.924 c -0.269,-0.653 0.043,-1.401 0.694,-1.669 l 0,0 c 0.653,-0.271 1.401,0.041 1.668,0.695 l 2.032,4.924 z"
   id="path187"
   inkscape:connector-curvature="0"
   style="fill:#494d42" />
		<path
   d="m 44.153,15.846 c 0.67,0.223 1.033,0.944 0.81,1.614 l 0,0 c -0.222,0.671 -0.945,1.033 -1.617,0.812 L 38.292,16.594 C 37.62,16.373 37.259,15.649 37.481,14.98 l 0,0 c 0.22,-0.671 0.944,-1.034 1.614,-0.812 l 5.058,1.678 z"
   id="path189"
   inkscape:connector-curvature="0"
   style="fill:#494d42" />
		<path
   d="m 50.55,20.854 c -0.327,0.304 -0.982,0.126 -1.461,-0.394 l 0,0 c -0.477,-0.52 -0.597,-1.186 -0.268,-1.49 l 2.481,-2.279 c 0.329,-0.303 0.985,-0.126 1.462,0.395 l 0,0 c 0.478,0.52 0.598,1.186 0.269,1.488 l -2.483,2.28 z"
   id="path191"
   inkscape:connector-curvature="0"
   style="fill:#6d725c" />
		<path
   d="m 32.701,14.842 c 0.225,-0.67 0.95,-1.029 1.618,-0.807 l 0,0 c 0.671,0.229 1.03,0.953 0.804,1.623 l -1.701,5.046 c -0.226,0.669 -0.951,1.028 -1.619,0.803 l 0,0 c -0.669,-0.224 -1.029,-0.95 -0.802,-1.619 l 1.7,-5.046 z"
   id="path193"
   inkscape:connector-curvature="0"
   style="fill:#494d42" />
		<path
   d="m 33.631,23.875 c -0.673,-0.213 -1.046,-0.931 -0.833,-1.604 l 0,0 c 0.213,-0.673 0.93,-1.047 1.604,-0.834 l 5.079,1.606 c 0.673,0.211 1.045,0.931 0.833,1.603 l 0,0 c -0.211,0.672 -0.929,1.047 -1.604,0.834 l -5.079,-1.605 z"
   id="path195"
   inkscape:connector-curvature="0"
   style="fill:#494d42" />
		<path
   d="m 48.677,25.077 c 0.389,0.221 0.42,0.897 0.071,1.511 l 0,0 c -0.35,0.614 -0.948,0.932 -1.336,0.711 l -2.928,-1.668 c -0.389,-0.223 -0.419,-0.899 -0.07,-1.514 l 0,0 c 0.349,-0.613 0.947,-0.931 1.336,-0.709 l 2.927,1.669 z"
   id="path197"
   inkscape:connector-curvature="0"
   style="fill:#6d725c" />
		<path
   d="m 43.284,24.68 c 0.389,0.221 0.419,0.898 0.07,1.512 l 0,0 c -0.35,0.613 -0.948,0.931 -1.335,0.711 l -2.928,-1.67 c -0.389,-0.222 -0.419,-0.898 -0.07,-1.512 l 0,0 c 0.349,-0.614 0.948,-0.932 1.336,-0.709 l 2.927,1.668 z"
   id="path199"
   inkscape:connector-curvature="0"
   style="fill:#6d725c" />
		<path
   d="m 40.375,23.109 c -0.499,0.501 -1.308,0.504 -1.809,0.006 l 0,0 c -0.5,-0.498 -0.5,-1.307 -0.004,-1.809 l 3.757,-3.776 c 0.499,-0.5 1.308,-0.502 1.809,-0.005 l 0,0 c 0.5,0.498 0.502,1.309 0.003,1.807 l -3.756,3.777 z"
   id="path201"
   inkscape:connector-curvature="0"
   style="fill:#494d42" />
		<path
   d="m 36.04,22.236 c -0.445,-0.043 -0.749,-0.65 -0.679,-1.354 l 0,0 c 0.071,-0.701 0.486,-1.234 0.931,-1.191 l 3.354,0.332 c 0.444,0.045 0.749,0.65 0.68,1.354 l 0,0 c -0.071,0.702 -0.487,1.235 -0.933,1.191 L 36.04,22.236 z"
   id="path203"
   inkscape:connector-curvature="0"
   style="fill:#6d725c" />
		<path
   d="m 46.47,23.145 c -0.183,0.682 -0.884,1.086 -1.564,0.904 l 0,0 C 44.224,23.864 43.818,23.164 44,22.483 l 1.378,-5.145 c 0.185,-0.682 0.885,-1.086 1.567,-0.904 l 0,0 c 0.681,0.182 1.086,0.885 0.902,1.564 l -1.377,5.147 z"
   id="path205"
   inkscape:connector-curvature="0"
   style="fill:#494d42" />
		<path
   d="m 47.818,26.533 c 0.706,-0.014 1.289,0.547 1.304,1.252 l 0,0 c 0.015,0.706 -0.544,1.289 -1.251,1.306 l -5.326,0.108 c -0.707,0.017 -1.289,-0.545 -1.303,-1.251 l 0,0 c -0.016,-0.705 0.544,-1.29 1.25,-1.304 l 5.326,-0.111 z"
   id="path207"
   inkscape:connector-curvature="0"
   style="fill:#494d42" />
		<path
   d="m 44.041,19.164 c -0.408,0.183 -0.973,-0.191 -1.263,-0.835 l 0,0 c -0.29,-0.646 -0.193,-1.314 0.214,-1.499 l 3.075,-1.38 c 0.408,-0.183 0.972,0.192 1.262,0.837 l 0,0 c 0.291,0.643 0.194,1.313 -0.216,1.496 l -3.072,1.381 z"
   id="path209"
   inkscape:connector-curvature="0"
   style="fill:#6d725c" />
		<path
   d="m 36.32,19.221 c -0.408,0.184 -0.973,-0.19 -1.263,-0.834 l 0,0 c -0.29,-0.646 -0.193,-1.314 0.214,-1.5 l 3.075,-1.379 c 0.408,-0.184 0.972,0.191 1.262,0.836 l 0,0 c 0.29,0.643 0.194,1.313 -0.216,1.496 l -3.072,1.381 z"
   id="path211"
   inkscape:connector-curvature="0"
   style="fill:#6d725c" />
	</g>
</g>
<g
   id="g213"
   transform="matrix(0.83156626,0,0,0.83156626,-8.7871606,-1.896803)"
   inkscape:export-filename="C:\Wyneos\Cloud\AnimalWebAction\brainstorming\v4.0\icones\bande1\icone-final\path433.png"
   inkscape:export-xdpi="90"
   inkscape:export-ydpi="90">
	<path
   d="m 56.157,20.684 c -0.344,0.285 -0.988,0.076 -1.439,-0.467 l 0,0 C 54.266,19.673 54.18,19.002 54.523,18.715 l 2.594,-2.152 c 0.344,-0.285 0.988,-0.074 1.44,0.469 l 0,0 c 0.451,0.541 0.538,1.213 0.192,1.5 l -2.592,2.152 z"
   id="path215"
   inkscape:connector-curvature="0"
   style="fill:#6d725c" />
	<path
   d="m 65.703,20.684 c -0.344,0.285 -0.988,0.076 -1.439,-0.467 l 0,0 c -0.452,-0.544 -0.538,-1.215 -0.195,-1.502 l 2.594,-2.152 c 0.344,-0.285 0.988,-0.074 1.439,0.469 l 0,0 c 0.452,0.541 0.539,1.213 0.193,1.5 l -2.592,2.152 z"
   id="path217"
   inkscape:connector-curvature="0"
   style="fill:#6d725c" />
	<g
   id="g219">
		<path
   d="m 56.781,20.333 c -0.434,0.556 -0.334,1.358 0.223,1.794 l 0,0 c 0.557,0.433 1.359,0.332 1.795,-0.225 l 3.272,-4.2 c 0.435,-0.559 0.334,-1.362 -0.223,-1.794 l 0,0 c -0.556,-0.436 -1.36,-0.336 -1.794,0.224 l -3.273,4.201 z"
   id="path221"
   inkscape:connector-curvature="0"
   style="fill:#494d42" />
		<path
   d="m 66.92,13.213 c -0.705,0.035 -1.248,0.634 -1.213,1.34 l 0,0 c 0.034,0.705 0.634,1.248 1.341,1.213 l 5.318,-0.263 c 0.706,-0.034 1.248,-0.635 1.213,-1.339 l 0,0 c -0.033,-0.705 -0.633,-1.25 -1.338,-1.215 l -5.321,0.264 z"
   id="path223"
   inkscape:connector-curvature="0"
   style="fill:#494d42" />
		<path
   d="m 59.416,16.328 c 0.235,0.379 0.912,0.384 1.512,0.011 l 0,0 c 0.601,-0.373 0.895,-0.981 0.658,-1.363 l -1.78,-2.86 C 59.57,11.737 58.891,11.731 58.291,12.105 l 0,0 c -0.599,0.372 -0.893,0.981 -0.656,1.361 l 1.781,2.862 z"
   id="path225"
   inkscape:connector-curvature="0"
   style="fill:#6d725c" />
		<path
   d="M 78.224,15.311 C 78.187,14.606 77.583,14.065 76.88,14.102 l 0,0 c -0.707,0.039 -1.247,0.643 -1.208,1.348 l 0.288,5.317 c 0.039,0.706 0.642,1.245 1.346,1.207 l 0,0 c 0.704,-0.038 1.246,-0.64 1.206,-1.346 l -0.288,-5.317 z"
   id="path227"
   inkscape:connector-curvature="0"
   style="fill:#494d42" />
		<path
   d="m 74.91,23.766 c 0.705,-0.025 1.256,-0.617 1.231,-1.322 l 0,0 C 76.117,21.739 75.526,21.186 74.819,21.212 L 69.496,21.4 c -0.705,0.022 -1.257,0.616 -1.231,1.321 l 0,0 c 0.023,0.705 0.615,1.258 1.321,1.233 l 5.324,-0.188 z"
   id="path229"
   inkscape:connector-curvature="0"
   style="fill:#494d42" />
		<path
   d="m 60.09,20.897 c -0.434,0.108 -0.644,0.753 -0.472,1.438 l 0,0 c 0.173,0.685 0.664,1.151 1.097,1.042 l 3.268,-0.824 c 0.435,-0.109 0.645,-0.754 0.473,-1.439 l 0,0 c -0.172,-0.684 -0.664,-1.15 -1.098,-1.041 l -3.268,0.824 z"
   id="path231"
   inkscape:connector-curvature="0"
   style="fill:#6d725c" />
		<path
   d="m 65.394,21.958 c -0.435,0.108 -0.645,0.753 -0.473,1.438 l 0,0 c 0.173,0.685 0.664,1.151 1.097,1.042 l 3.269,-0.824 c 0.434,-0.109 0.644,-0.754 0.472,-1.439 l 0,0 c -0.172,-0.684 -0.664,-1.15 -1.098,-1.041 l -3.267,0.824 z"
   id="path233"
   inkscape:connector-curvature="0"
   style="fill:#6d725c" />
		<path
   d="m 68.617,21.224 c 0.347,0.616 1.125,0.835 1.74,0.489 l 0,0 c 0.615,-0.346 0.833,-1.125 0.489,-1.742 L 68.237,15.328 C 67.89,14.713 67.111,14.494 66.496,14.839 l 0,0 c -0.615,0.347 -0.834,1.126 -0.486,1.74 l 2.607,4.645 z"
   id="path235"
   inkscape:connector-curvature="0"
   style="fill:#494d42" />
		<path
   d="m 73.027,21.543 c 0.439,0.076 0.895,-0.428 1.016,-1.123 l 0,0 c 0.12,-0.695 -0.138,-1.32 -0.578,-1.397 l -3.32,-0.577 c -0.439,-0.076 -0.895,0.426 -1.018,1.122 l 0,0 c -0.12,0.694 0.14,1.321 0.579,1.397 l 3.321,0.578 z"
   id="path237"
   inkscape:connector-curvature="0"
   style="fill:#6d725c" />
		<path
   d="m 62.734,19.627 c -0.006,0.705 0.562,1.281 1.266,1.289 l 0,0 c 0.707,0.005 1.284,-0.562 1.292,-1.267 l 0.049,-5.326 c 0.004,-0.706 -0.562,-1.283 -1.269,-1.29 l 0,0 c -0.705,-0.007 -1.283,0.561 -1.288,1.266 l -0.05,5.328 z"
   id="path239"
   inkscape:connector-curvature="0"
   style="fill:#494d42" />
		<path
   d="m 66.141,16.44 c 0.344,0.286 0.987,0.077 1.439,-0.466 l 0,0 c 0.451,-0.544 0.537,-1.215 0.194,-1.502 L 65.18,12.32 c -0.344,-0.285 -0.987,-0.074 -1.439,0.468 l 0,0 c -0.451,0.542 -0.538,1.214 -0.192,1.5 l 2.592,2.152 z"
   id="path241"
   inkscape:connector-curvature="0"
   style="fill:#6d725c" />
		<path
   d="m 73.564,18.562 c 0.344,0.286 0.988,0.077 1.439,-0.466 l 0,0 c 0.452,-0.544 0.538,-1.215 0.195,-1.502 l -2.594,-2.152 c -0.344,-0.285 -0.988,-0.074 -1.439,0.469 l 0,0 c -0.452,0.541 -0.539,1.213 -0.193,1.499 l 2.592,2.152 z"
   id="path243"
   inkscape:connector-curvature="0"
   style="fill:#6d725c" />
	</g>
</g>
<g
   id="g245"
   transform="matrix(0.83156626,0,0,0.83156626,-8.7871606,-1.896803)"
   inkscape:export-filename="C:\Wyneos\Cloud\AnimalWebAction\brainstorming\v4.0\icones\bande1\icone-final\path433.png"
   inkscape:export-xdpi="90"
   inkscape:export-ydpi="90">
	<path
   d="m 45.912,19.51 c -0.235,0.38 -0.913,0.384 -1.512,0.011 l 0,0 C 43.8,19.149 43.506,18.54 43.742,18.159 l 1.781,-2.861 c 0.236,-0.379 0.915,-0.385 1.514,-0.01 l 0,0 c 0.599,0.371 0.893,0.981 0.657,1.36 l -1.782,2.862 z"
   id="path247"
   inkscape:connector-curvature="0"
   style="fill:#6d725c" />
	<path
   d="m 22.217,19.622 c -0.344,0.286 -0.988,0.077 -1.439,-0.466 l 0,0 C 20.326,18.612 20.24,17.941 20.583,17.654 l 2.594,-2.152 c 0.344,-0.285 0.988,-0.074 1.439,0.469 l 0,0 c 0.452,0.541 0.539,1.213 0.193,1.499 l -2.592,2.152 z"
   id="path249"
   inkscape:connector-curvature="0"
   style="fill:#6d725c" />
	<path
   d="m 31.763,19.622 c -0.344,0.286 -0.988,0.077 -1.44,-0.466 l 0,0 c -0.451,-0.544 -0.538,-1.215 -0.194,-1.502 l 2.593,-2.152 c 0.344,-0.285 0.988,-0.074 1.44,0.469 l 0,0 c 0.452,0.541 0.539,1.213 0.192,1.499 l -2.591,2.152 z"
   id="path251"
   inkscape:connector-curvature="0"
   style="fill:#6d725c" />
	<g
   id="g253">
		<path
   d="m 22.84,19.271 c -0.433,0.557 -0.333,1.359 0.223,1.795 l 0,0 c 0.558,0.433 1.36,0.332 1.795,-0.225 l 3.273,-4.201 c 0.434,-0.558 0.333,-1.361 -0.223,-1.793 l 0,0 c -0.556,-0.436 -1.361,-0.336 -1.794,0.223 l -3.274,4.201 z"
   id="path255"
   inkscape:connector-curvature="0"
   style="fill:#494d42" />
		<path
   d="m 32.979,12.152 c -0.705,0.035 -1.248,0.634 -1.213,1.34 l 0,0 c 0.034,0.705 0.634,1.248 1.34,1.213 l 5.319,-0.263 c 0.707,-0.034 1.248,-0.635 1.213,-1.339 l 0,0 C 39.605,12.397 39.005,11.853 38.3,11.888 l -5.321,0.264 z"
   id="path257"
   inkscape:connector-curvature="0"
   style="fill:#494d42" />
		<path
   d="m 25.476,15.267 c 0.235,0.38 0.913,0.384 1.512,0.012 l 0,0 c 0.6,-0.373 0.894,-0.981 0.658,-1.363 l -1.781,-2.86 C 25.629,10.677 24.95,10.671 24.351,11.045 l 0,0 c -0.599,0.372 -0.893,0.981 -0.657,1.36 l 1.782,2.862 z"
   id="path259"
   inkscape:connector-curvature="0"
   style="fill:#6d725c" />
		<path
   d="m 44.283,14.25 c -0.037,-0.705 -0.64,-1.246 -1.343,-1.209 l 0,0 c -0.708,0.039 -1.247,0.643 -1.209,1.348 l 0.289,5.317 c 0.038,0.706 0.641,1.245 1.345,1.206 l 0,0 c 0.705,-0.037 1.246,-0.639 1.206,-1.345 L 44.283,14.25 z"
   id="path261"
   inkscape:connector-curvature="0"
   style="fill:#494d42" />
		<path
   d="m 40.97,22.705 c 0.706,-0.025 1.256,-0.617 1.231,-1.322 l 0,0 c -0.025,-0.705 -0.615,-1.258 -1.323,-1.232 l -5.323,0.188 c -0.706,0.022 -1.256,0.616 -1.231,1.321 l 0,0 c 0.024,0.705 0.615,1.258 1.322,1.232 l 5.324,-0.187 z"
   id="path263"
   inkscape:connector-curvature="0"
   style="fill:#494d42" />
		<path
   d="m 26.15,19.836 c -0.434,0.109 -0.645,0.754 -0.473,1.438 l 0,0 c 0.173,0.685 0.664,1.151 1.097,1.042 l 3.268,-0.824 c 0.434,-0.11 0.644,-0.754 0.472,-1.439 l 0,0 c -0.172,-0.684 -0.664,-1.15 -1.098,-1.041 l -3.266,0.824 z"
   id="path265"
   inkscape:connector-curvature="0"
   style="fill:#6d725c" />
		<path
   d="m 31.453,20.897 c -0.434,0.108 -0.645,0.753 -0.473,1.438 l 0,0 c 0.173,0.685 0.664,1.151 1.097,1.042 l 3.268,-0.824 c 0.434,-0.109 0.645,-0.754 0.473,-1.439 l 0,0 C 35.646,20.43 35.154,19.964 34.72,20.073 l -3.267,0.824 z"
   id="path267"
   inkscape:connector-curvature="0"
   style="fill:#6d725c" />
		<path
   d="m 34.676,20.163 c 0.347,0.616 1.126,0.835 1.741,0.489 l 0,0 c 0.615,-0.347 0.833,-1.125 0.489,-1.742 L 34.297,14.267 C 33.95,13.652 33.171,13.433 32.556,13.778 l 0,0 c -0.615,0.347 -0.835,1.126 -0.487,1.74 l 2.607,4.645 z"
   id="path269"
   inkscape:connector-curvature="0"
   style="fill:#494d42" />
		<path
   d="m 39.086,20.482 c 0.44,0.076 0.895,-0.428 1.016,-1.123 l 0,0 c 0.121,-0.695 -0.138,-1.32 -0.578,-1.397 l -3.321,-0.577 c -0.439,-0.076 -0.895,0.426 -1.017,1.122 l 0,0 c -0.12,0.694 0.139,1.32 0.579,1.397 l 3.321,0.578 z"
   id="path271"
   inkscape:connector-curvature="0"
   style="fill:#6d725c" />
		<path
   d="m 28.794,18.566 c -0.006,0.705 0.562,1.281 1.266,1.289 l 0,0 c 0.706,0.005 1.284,-0.562 1.292,-1.268 l 0.049,-5.325 c 0.004,-0.706 -0.562,-1.284 -1.268,-1.29 l 0,0 c -0.706,-0.007 -1.283,0.561 -1.289,1.266 l -0.05,5.328 z"
   id="path273"
   inkscape:connector-curvature="0"
   style="fill:#494d42" />
		<path
   d="m 32.2,15.38 c 0.344,0.286 0.988,0.077 1.44,-0.466 l 0,0 c 0.452,-0.545 0.538,-1.215 0.195,-1.502 L 31.241,11.26 c -0.344,-0.285 -0.988,-0.075 -1.44,0.468 l 0,0 c -0.452,0.542 -0.539,1.214 -0.192,1.5 L 32.2,15.38 z"
   id="path275"
   inkscape:connector-curvature="0"
   style="fill:#6d725c" />
		<path
   d="m 39.624,17.501 c 0.344,0.286 0.988,0.077 1.44,-0.466 l 0,0 c 0.452,-0.544 0.538,-1.215 0.195,-1.502 l -2.594,-2.152 c -0.344,-0.285 -0.988,-0.074 -1.439,0.468 l 0,0 c -0.452,0.542 -0.539,1.214 -0.193,1.5 l 2.591,2.152 z"
   id="path277"
   inkscape:connector-curvature="0"
   style="fill:#6d725c" />
	</g>
</g>
<g
   id="g279"
   transform="matrix(0.83156626,0,0,0.83156626,-8.7871606,-1.896803)"
   inkscape:export-filename="C:\Wyneos\Cloud\AnimalWebAction\brainstorming\v4.0\icones\bande1\icone-final\path433.png"
   inkscape:export-xdpi="90"
   inkscape:export-ydpi="90">
	<path
   d="m 74.549,12.085 c -0.235,0.38 -0.913,0.384 -1.513,0.011 l 0,0 c -0.6,-0.372 -0.894,-0.981 -0.657,-1.362 l 1.78,-2.86 c 0.236,-0.38 0.915,-0.385 1.515,-0.012 l 0,0 c 0.599,0.373 0.893,0.982 0.656,1.361 l -1.781,2.862 z"
   id="path281"
   inkscape:connector-curvature="0"
   style="fill:#6d725c" />
	<path
   d="m 50.854,12.197 c -0.344,0.287 -0.988,0.077 -1.44,-0.466 l 0,0 C 48.963,11.187 48.877,10.516 49.22,10.23 l 2.594,-2.152 c 0.344,-0.285 0.988,-0.075 1.439,0.467 l 0,0 c 0.452,0.543 0.539,1.215 0.192,1.5 l -2.591,2.152 z"
   id="path283"
   inkscape:connector-curvature="0"
   style="fill:#6d725c" />
	<path
   d="m 60.399,12.197 c -0.344,0.287 -0.987,0.077 -1.439,-0.466 l 0,0 C 58.509,11.187 58.423,10.516 58.766,10.23 L 61.36,8.078 c 0.344,-0.285 0.987,-0.075 1.439,0.467 l 0,0 c 0.451,0.543 0.538,1.215 0.192,1.5 l -2.592,2.152 z"
   id="path285"
   inkscape:connector-curvature="0"
   style="fill:#6d725c" />
	<g
   id="g287">
		<path
   d="m 51.478,11.848 c -0.433,0.557 -0.333,1.359 0.223,1.794 l 0,0 c 0.558,0.433 1.36,0.333 1.795,-0.224 L 56.769,9.217 C 57.203,8.658 57.102,7.856 56.546,7.423 l 0,0 C 55.989,6.988 55.185,7.088 54.752,7.647 l -3.274,4.201 z"
   id="path289"
   inkscape:connector-curvature="0"
   style="fill:#494d42" />
		<path
   d="m 61.617,4.728 c -0.706,0.036 -1.248,0.634 -1.213,1.339 l 0,0 c 0.034,0.706 0.634,1.248 1.34,1.215 l 5.319,-0.264 c 0.706,-0.033 1.248,-0.635 1.213,-1.339 l 0,0 C 68.243,4.973 67.642,4.43 66.937,4.465 l -5.32,0.263 z"
   id="path291"
   inkscape:connector-curvature="0"
   style="fill:#494d42" />
		<path
   d="m 54.112,7.842 c 0.235,0.381 0.913,0.385 1.513,0.012 l 0,0 c 0.6,-0.373 0.894,-0.982 0.657,-1.363 l -1.78,-2.86 C 54.266,3.252 53.588,3.247 52.988,3.62 l 0,0 c -0.599,0.372 -0.894,0.982 -0.657,1.361 l 1.781,2.861 z"
   id="path293"
   inkscape:connector-curvature="0"
   style="fill:#6d725c" />
		<path
   d="M 72.92,6.825 C 72.883,6.119 72.28,5.579 71.577,5.616 l 0,0 c -0.708,0.04 -1.247,0.643 -1.209,1.348 l 0.289,5.317 c 0.038,0.705 0.641,1.246 1.346,1.207 l 0,0 c 0.704,-0.037 1.246,-0.641 1.205,-1.346 L 72.92,6.825 z"
   id="path295"
   inkscape:connector-curvature="0"
   style="fill:#494d42" />
		<path
   d="m 69.606,15.28 c 0.706,-0.024 1.257,-0.616 1.232,-1.321 l 0,0 c -0.025,-0.705 -0.615,-1.258 -1.323,-1.232 l -5.322,0.188 c -0.706,0.023 -1.257,0.617 -1.232,1.322 l 0,0 c 0.024,0.704 0.615,1.258 1.322,1.232 l 5.323,-0.189 z"
   id="path297"
   inkscape:connector-curvature="0"
   style="fill:#494d42" />
		<path
   d="m 54.787,12.412 c -0.435,0.109 -0.645,0.753 -0.473,1.438 l 0,0 c 0.173,0.686 0.664,1.15 1.097,1.043 l 3.269,-0.825 c 0.434,-0.11 0.644,-0.754 0.472,-1.438 l 0,0 C 58.98,11.944 58.489,11.48 58.054,11.589 l -3.267,0.823 z"
   id="path299"
   inkscape:connector-curvature="0"
   style="fill:#6d725c" />
		<path
   d="m 60.09,13.473 c -0.434,0.109 -0.644,0.754 -0.472,1.438 l 0,0 c 0.173,0.686 0.664,1.15 1.097,1.043 l 3.268,-0.825 c 0.435,-0.11 0.645,-0.754 0.473,-1.438 l 0,0 c -0.172,-0.685 -0.664,-1.15 -1.098,-1.041 l -3.268,0.823 z"
   id="path301"
   inkscape:connector-curvature="0"
   style="fill:#6d725c" />
		<path
   d="m 63.313,12.738 c 0.347,0.617 1.126,0.835 1.741,0.49 l 0,0 c 0.615,-0.348 0.833,-1.126 0.489,-1.742 L 62.934,6.842 C 62.587,6.227 61.808,6.008 61.193,6.353 l 0,0 c -0.615,0.346 -0.835,1.127 -0.487,1.74 l 2.607,4.645 z"
   id="path303"
   inkscape:connector-curvature="0"
   style="fill:#494d42" />
		<path
   d="m 67.724,13.058 c 0.44,0.077 0.896,-0.427 1.017,-1.123 l 0,0 c 0.12,-0.694 -0.138,-1.319 -0.578,-1.397 L 64.842,9.962 c -0.438,-0.077 -0.895,0.426 -1.017,1.121 l 0,0 c -0.12,0.695 0.139,1.32 0.579,1.397 l 3.32,0.578 z"
   id="path305"
   inkscape:connector-curvature="0"
   style="fill:#6d725c" />
		<path
   d="m 57.432,11.141 c -0.007,0.706 0.562,1.283 1.266,1.29 l 0,0 c 0.706,0.005 1.284,-0.562 1.291,-1.267 L 60.038,5.838 C 60.042,5.132 59.476,4.555 58.77,4.547 l 0,0 C 58.065,4.541 57.487,5.109 57.482,5.815 l -0.05,5.326 z"
   id="path307"
   inkscape:connector-curvature="0"
   style="fill:#494d42" />
		<path
   d="m 55.226,14.045 c -0.677,-0.201 -1.39,0.182 -1.592,0.858 l 0,0 c -0.204,0.675 0.18,1.388 0.855,1.592 l 5.103,1.53 c 0.678,0.205 1.388,-0.181 1.591,-0.857 l 0,0 c 0.204,-0.675 -0.179,-1.387 -0.855,-1.59 l -5.102,-1.533 z"
   id="path309"
   inkscape:connector-curvature="0"
   style="fill:#494d42" />
		<path
   d="m 60.837,7.955 c 0.344,0.286 0.988,0.076 1.439,-0.466 l 0,0 C 62.728,6.945 62.814,6.274 62.471,5.987 L 59.877,3.835 C 59.533,3.551 58.889,3.76 58.438,4.303 l 0,0 c -0.452,0.542 -0.539,1.215 -0.193,1.5 l 2.592,2.152 z"
   id="path311"
   inkscape:connector-curvature="0"
   style="fill:#6d725c" />
		<path
   d="m 68.262,10.076 c 0.344,0.286 0.988,0.077 1.439,-0.466 l 0,0 C 70.152,9.066 70.238,8.395 69.895,8.108 L 67.302,5.956 C 66.957,5.672 66.314,5.882 65.862,6.424 l 0,0 c -0.451,0.543 -0.538,1.215 -0.192,1.5 l 2.592,2.152 z"
   id="path313"
   inkscape:connector-curvature="0"
   style="fill:#6d725c" />
	</g>
</g>
<g
   id="g315"
   transform="matrix(0.83156626,0,0,0.83156626,-8.7871606,-1.896803)"
   inkscape:export-filename="C:\Wyneos\Cloud\AnimalWebAction\brainstorming\v4.0\icones\bande1\icone-final\path433.png"
   inkscape:export-xdpi="90"
   inkscape:export-ydpi="90">
	<path
   d="m 56.178,14.206 c 0.235,0.38 0.913,0.384 1.513,0.012 l 0,0 c 0.6,-0.373 0.894,-0.981 0.657,-1.363 l -1.78,-2.86 C 56.332,9.616 55.654,9.61 55.053,9.984 l 0,0 c -0.599,0.372 -0.893,0.981 -0.656,1.36 l 1.781,2.862 z"
   id="path317"
   inkscape:connector-curvature="0"
   style="fill:#6d725c" />
	<path
   d="m 79.872,14.318 c 0.345,0.287 0.988,0.077 1.44,-0.465 l 0,0 c 0.451,-0.545 0.537,-1.215 0.194,-1.502 l -2.594,-2.152 c -0.344,-0.285 -0.988,-0.075 -1.439,0.468 l 0,0 c -0.451,0.542 -0.539,1.214 -0.192,1.499 l 2.591,2.152 z"
   id="path319"
   inkscape:connector-curvature="0"
   style="fill:#6d725c" />
	<path
   d="m 70.327,14.318 c 0.344,0.287 0.987,0.077 1.439,-0.465 l 0,0 c 0.451,-0.545 0.537,-1.215 0.194,-1.502 l -2.594,-2.152 c -0.344,-0.285 -0.987,-0.075 -1.439,0.468 l 0,0 c -0.451,0.542 -0.538,1.214 -0.192,1.499 l 2.592,2.152 z"
   id="path321"
   inkscape:connector-curvature="0"
   style="fill:#6d725c" />
	<g
   id="g323">
		<path
   d="m 79.249,13.969 c 0.433,0.557 0.333,1.359 -0.223,1.794 l 0,0 c -0.558,0.433 -1.36,0.333 -1.795,-0.224 L 73.958,11.338 C 73.524,10.779 73.625,9.977 74.181,9.544 l 0,0 c 0.557,-0.435 1.361,-0.335 1.794,0.224 l 3.274,4.201 z"
   id="path325"
   inkscape:connector-curvature="0"
   style="fill:#494d42" />
		<path
   d="m 69.109,6.85 c 0.706,0.035 1.248,0.633 1.213,1.339 l 0,0 c -0.034,0.705 -0.634,1.248 -1.34,1.214 L 63.664,9.139 C 62.957,9.106 62.415,8.504 62.451,7.8 l 0,0 c 0.032,-0.705 0.633,-1.249 1.338,-1.214 l 5.32,0.264 z"
   id="path327"
   inkscape:connector-curvature="0"
   style="fill:#494d42" />
		<path
   d="m 76.614,9.963 c -0.235,0.381 -0.913,0.385 -1.513,0.012 l 0,0 C 74.501,9.602 74.207,8.994 74.444,8.612 l 1.78,-2.86 C 76.46,5.373 77.138,5.368 77.739,5.741 l 0,0 c 0.599,0.373 0.893,0.982 0.656,1.361 l -1.781,2.861 z"
   id="path329"
   inkscape:connector-curvature="0"
   style="fill:#6d725c" />
		<path
   d="M 57.807,8.946 C 57.844,8.241 58.447,7.7 59.15,7.738 l 0,0 c 0.708,0.039 1.247,0.642 1.209,1.348 l -0.289,5.316 c -0.038,0.706 -0.641,1.246 -1.346,1.207 l 0,0 c -0.704,-0.037 -1.246,-0.64 -1.205,-1.346 l 0.288,-5.317 z"
   id="path331"
   inkscape:connector-curvature="0"
   style="fill:#494d42" />
		<path
   d="M 61.12,17.401 C 60.414,17.377 59.863,16.785 59.889,16.08 l 0,0 c 0.024,-0.705 0.615,-1.258 1.322,-1.232 l 5.323,0.188 c 0.705,0.023 1.256,0.617 1.231,1.322 l 0,0 c -0.024,0.705 -0.615,1.258 -1.322,1.232 L 61.12,17.401 z"
   id="path333"
   inkscape:connector-curvature="0"
   style="fill:#494d42" />
		<path
   d="m 75.939,14.533 c 0.435,0.109 0.645,0.754 0.473,1.438 l 0,0 c -0.173,0.686 -0.664,1.151 -1.097,1.043 l -3.269,-0.825 c -0.434,-0.11 -0.644,-0.754 -0.472,-1.438 l 0,0 c 0.172,-0.685 0.664,-1.15 1.098,-1.041 l 3.267,0.823 z"
   id="path335"
   inkscape:connector-curvature="0"
   style="fill:#6d725c" />
		<path
   d="m 70.637,15.594 c 0.434,0.109 0.644,0.754 0.472,1.438 l 0,0 c -0.173,0.686 -0.663,1.151 -1.097,1.043 l -3.268,-0.824 c -0.435,-0.11 -0.645,-0.755 -0.473,-1.439 l 0,0 c 0.172,-0.685 0.664,-1.15 1.098,-1.041 l 3.268,0.823 z"
   id="path337"
   inkscape:connector-curvature="0"
   style="fill:#6d725c" />
		<path
   d="m 67.413,14.859 c -0.347,0.617 -1.126,0.835 -1.741,0.49 l 0,0 C 65.057,15.001 64.839,14.223 65.183,13.607 L 67.792,8.963 C 68.14,8.348 68.918,8.13 69.533,8.474 l 0,0 c 0.615,0.347 0.835,1.127 0.487,1.74 l -2.607,4.645 z"
   id="path339"
   inkscape:connector-curvature="0"
   style="fill:#494d42" />
		<path
   d="m 63.003,15.179 c -0.44,0.077 -0.896,-0.427 -1.017,-1.122 l 0,0 c -0.12,-0.695 0.138,-1.32 0.578,-1.398 l 3.321,-0.576 c 0.438,-0.076 0.895,0.426 1.017,1.121 l 0,0 c 0.12,0.695 -0.139,1.32 -0.579,1.397 l -3.32,0.578 z"
   id="path341"
   inkscape:connector-curvature="0"
   style="fill:#6d725c" />
		<path
   d="m 73.295,13.263 c 0.007,0.705 -0.561,1.282 -1.266,1.29 l 0,0 c -0.706,0.004 -1.284,-0.562 -1.291,-1.268 L 70.689,7.959 c -0.004,-0.706 0.562,-1.283 1.268,-1.29 l 0,0 c 0.705,-0.007 1.283,0.562 1.288,1.267 l 0.05,5.327 z"
   id="path343"
   inkscape:connector-curvature="0"
   style="fill:#494d42" />
		<path
   d="m 75.502,16.167 c 0.676,-0.202 1.389,0.181 1.591,0.857 l 0,0 c 0.204,0.675 -0.18,1.388 -0.855,1.593 l -5.103,1.529 c -0.678,0.205 -1.388,-0.18 -1.591,-0.857 l 0,0 c -0.204,-0.675 0.179,-1.387 0.855,-1.59 l 5.103,-1.532 z"
   id="path345"
   inkscape:connector-curvature="0"
   style="fill:#494d42" />
		<path
   d="m 69.89,10.076 c -0.344,0.286 -0.988,0.077 -1.439,-0.466 l 0,0 C 67.999,9.066 67.913,8.395 68.256,8.108 L 70.85,5.956 c 0.344,-0.284 0.988,-0.074 1.439,0.468 l 0,0 c 0.452,0.543 0.539,1.215 0.193,1.5 l -2.592,2.152 z"
   id="path347"
   inkscape:connector-curvature="0"
   style="fill:#6d725c" />
		<path
   d="m 62.465,12.197 c -0.344,0.287 -0.987,0.077 -1.439,-0.466 l 0,0 C 60.575,11.187 60.489,10.516 60.832,10.23 l 2.594,-2.152 c 0.344,-0.285 0.987,-0.075 1.439,0.467 l 0,0 c 0.451,0.543 0.538,1.215 0.192,1.5 l -2.592,2.152 z"
   id="path349"
   inkscape:connector-curvature="0"
   style="fill:#6d725c" />
	</g>
</g>
<g
   id="g351"
   transform="matrix(0.83156626,0,0,0.83156626,-8.7871606,-1.896803)"
   inkscape:export-filename="C:\Wyneos\Cloud\AnimalWebAction\brainstorming\v4.0\icones\bande1\icone-final\path433.png"
   inkscape:export-xdpi="90"
   inkscape:export-ydpi="90">
	<path
   d="m 40.608,14.206 c -0.235,0.38 -0.913,0.384 -1.512,0.012 l 0,0 c -0.6,-0.373 -0.894,-0.981 -0.658,-1.363 l 1.78,-2.86 C 40.454,9.616 41.133,9.61 41.732,9.984 l 0,0 c 0.599,0.372 0.893,0.981 0.657,1.36 l -1.781,2.862 z"
   id="path353"
   inkscape:connector-curvature="0"
   style="fill:#6d725c" />
	<path
   d="m 16.914,14.318 c -0.344,0.287 -0.988,0.077 -1.439,-0.465 l 0,0 C 15.023,13.308 14.937,12.638 15.28,12.351 l 2.594,-2.152 c 0.344,-0.285 0.988,-0.075 1.439,0.468 l 0,0 c 0.452,0.542 0.539,1.214 0.193,1.499 l -2.592,2.152 z"
   id="path355"
   inkscape:connector-curvature="0"
   style="fill:#6d725c" />
	<path
   d="m 26.459,14.318 c -0.344,0.287 -0.988,0.077 -1.44,-0.465 l 0,0 c -0.451,-0.545 -0.537,-1.215 -0.194,-1.502 l 2.593,-2.152 c 0.344,-0.285 0.988,-0.075 1.44,0.468 l 0,0 c 0.452,0.542 0.539,1.214 0.192,1.499 l -2.591,2.152 z"
   id="path357"
   inkscape:connector-curvature="0"
   style="fill:#6d725c" />
	<g
   id="g359">
		<path
   d="m 17.537,13.969 c -0.433,0.557 -0.333,1.359 0.223,1.794 l 0,0 c 0.558,0.433 1.36,0.333 1.795,-0.224 l 3.273,-4.201 c 0.434,-0.559 0.333,-1.361 -0.223,-1.794 l 0,0 C 22.049,9.109 21.244,9.209 20.811,9.768 l -3.274,4.201 z"
   id="path361"
   inkscape:connector-curvature="0"
   style="fill:#494d42" />
		<path
   d="m 27.677,6.85 c -0.706,0.035 -1.249,0.633 -1.213,1.339 l 0,0 c 0.034,0.705 0.634,1.248 1.34,1.214 L 33.123,9.139 C 33.83,9.106 34.371,8.504 34.336,7.8 l 0,0 C 34.303,7.095 33.703,6.551 32.998,6.586 L 27.677,6.85 z"
   id="path363"
   inkscape:connector-curvature="0"
   style="fill:#494d42" />
		<path
   d="m 20.172,9.963 c 0.235,0.381 0.913,0.385 1.512,0.012 l 0,0 c 0.6,-0.373 0.894,-0.981 0.658,-1.363 l -1.78,-2.86 C 20.326,5.373 19.647,5.368 19.047,5.741 l 0,0 C 18.448,6.114 18.154,6.723 18.39,7.102 l 1.782,2.861 z"
   id="path365"
   inkscape:connector-curvature="0"
   style="fill:#6d725c" />
		<path
   d="M 38.98,8.946 C 38.943,8.241 38.34,7.7 37.637,7.738 l 0,0 C 36.929,7.777 36.39,8.38 36.428,9.086 l 0.289,5.316 c 0.039,0.706 0.641,1.246 1.346,1.207 l 0,0 c 0.704,-0.037 1.246,-0.64 1.206,-1.346 L 38.98,8.946 z"
   id="path367"
   inkscape:connector-curvature="0"
   style="fill:#494d42" />
		<path
   d="m 35.667,17.401 c 0.706,-0.024 1.256,-0.616 1.231,-1.321 l 0,0 c -0.025,-0.705 -0.615,-1.258 -1.323,-1.232 l -5.323,0.188 c -0.705,0.023 -1.256,0.617 -1.231,1.322 l 0,0 c 0.024,0.705 0.615,1.258 1.322,1.232 l 5.324,-0.189 z"
   id="path369"
   inkscape:connector-curvature="0"
   style="fill:#494d42" />
		<path
   d="m 20.847,14.533 c -0.434,0.109 -0.645,0.754 -0.472,1.438 l 0,0 c 0.173,0.686 0.664,1.151 1.097,1.043 l 3.268,-0.825 c 0.434,-0.11 0.644,-0.754 0.472,-1.438 l 0,0 C 25.04,14.066 24.548,13.601 24.114,13.71 l -3.267,0.823 z"
   id="path371"
   inkscape:connector-curvature="0"
   style="fill:#6d725c" />
		<path
   d="m 26.15,15.594 c -0.434,0.109 -0.645,0.754 -0.473,1.438 l 0,0 c 0.173,0.686 0.664,1.151 1.097,1.043 l 3.268,-0.824 c 0.434,-0.11 0.644,-0.755 0.472,-1.439 l 0,0 c -0.172,-0.685 -0.664,-1.15 -1.098,-1.041 l -3.266,0.823 z"
   id="path373"
   inkscape:connector-curvature="0"
   style="fill:#6d725c" />
		<path
   d="m 29.373,14.859 c 0.347,0.617 1.126,0.835 1.741,0.49 l 0,0 c 0.615,-0.348 0.833,-1.126 0.489,-1.742 L 28.994,8.963 C 28.647,8.348 27.868,8.13 27.253,8.474 l 0,0 c -0.615,0.347 -0.835,1.127 -0.487,1.74 l 2.607,4.645 z"
   id="path375"
   inkscape:connector-curvature="0"
   style="fill:#494d42" />
		<path
   d="m 33.784,15.179 c 0.44,0.077 0.895,-0.427 1.016,-1.122 l 0,0 c 0.12,-0.695 -0.138,-1.32 -0.578,-1.398 l -3.321,-0.576 c -0.439,-0.076 -0.895,0.426 -1.017,1.121 l 0,0 c -0.12,0.695 0.139,1.32 0.579,1.397 l 3.321,0.578 z"
   id="path377"
   inkscape:connector-curvature="0"
   style="fill:#6d725c" />
		<path
   d="m 23.491,13.263 c -0.006,0.705 0.562,1.282 1.266,1.29 l 0,0 c 0.706,0.004 1.284,-0.562 1.292,-1.268 L 26.098,7.959 C 26.102,7.253 25.536,6.676 24.83,6.669 l 0,0 C 24.125,6.662 23.547,7.231 23.541,7.936 l -0.05,5.327 z"
   id="path379"
   inkscape:connector-curvature="0"
   style="fill:#494d42" />
		<path
   d="m 21.285,16.167 c -0.676,-0.202 -1.389,0.181 -1.591,0.857 l 0,0 c -0.204,0.675 0.179,1.388 0.855,1.593 l 5.102,1.529 c 0.678,0.205 1.388,-0.18 1.591,-0.857 l 0,0 c 0.204,-0.675 -0.179,-1.387 -0.855,-1.59 l -5.102,-1.532 z"
   id="path381"
   inkscape:connector-curvature="0"
   style="fill:#494d42" />
		<path
   d="m 26.896,10.076 c 0.344,0.286 0.988,0.077 1.44,-0.466 l 0,0 C 28.788,9.066 28.874,8.395 28.531,8.108 L 25.937,5.956 C 25.593,5.672 24.949,5.882 24.497,6.424 l 0,0 c -0.452,0.543 -0.539,1.215 -0.192,1.5 l 2.591,2.152 z"
   id="path383"
   inkscape:connector-curvature="0"
   style="fill:#6d725c" />
		<path
   d="m 34.321,12.197 c 0.344,0.287 0.988,0.077 1.439,-0.466 l 0,0 c 0.452,-0.544 0.538,-1.215 0.195,-1.501 L 33.361,8.078 C 33.017,7.793 32.373,8.003 31.922,8.545 l 0,0 c -0.452,0.543 -0.539,1.215 -0.193,1.5 l 2.592,2.152 z"
   id="path385"
   inkscape:connector-curvature="0"
   style="fill:#6d725c" />
	</g>
</g>
<g
   id="g387"
   transform="matrix(0.83156626,0,0,0.83156626,-8.7871606,-1.896803)"
   inkscape:export-filename="C:\Wyneos\Cloud\AnimalWebAction\brainstorming\v4.0\icones\bande1\icone-final\path433.png"
   inkscape:export-xdpi="90"
   inkscape:export-ydpi="90">
	<path
   d="m 31.781,11.024 c 0.235,0.38 0.913,0.384 1.512,0.011 l 0,0 c 0.6,-0.373 0.894,-0.981 0.658,-1.363 l -1.78,-2.86 C 31.935,6.433 31.256,6.428 30.656,6.801 l 0,0 C 30.058,7.174 29.764,7.783 30,8.162 l 1.781,2.862 z"
   id="path389"
   inkscape:connector-curvature="0"
   style="fill:#6d725c" />
	<path
   d="m 55.476,11.137 c 0.344,0.286 0.988,0.077 1.439,-0.466 l 0,0 C 57.367,10.127 57.453,9.456 57.11,9.169 L 54.516,7.017 C 54.172,6.733 53.528,6.943 53.077,7.485 l 0,0 c -0.452,0.543 -0.539,1.215 -0.193,1.5 l 2.592,2.152 z"
   id="path391"
   inkscape:connector-curvature="0"
   style="fill:#6d725c" />
	<path
   d="m 45.93,11.137 c 0.344,0.286 0.988,0.077 1.439,-0.466 l 0,0 c 0.452,-0.544 0.538,-1.215 0.195,-1.502 L 44.97,7.017 C 44.626,6.733 43.982,6.943 43.531,7.485 l 0,0 c -0.452,0.543 -0.539,1.215 -0.193,1.5 l 2.592,2.152 z"
   id="path393"
   inkscape:connector-curvature="0"
   style="fill:#6d725c" />
	<g
   id="g395">
		<path
   d="m 54.853,10.787 c 0.433,0.557 0.333,1.359 -0.223,1.794 l 0,0 c -0.558,0.433 -1.36,0.333 -1.795,-0.224 L 49.562,8.156 C 49.128,7.597 49.228,6.794 49.785,6.362 l 0,0 c 0.557,-0.435 1.361,-0.335 1.794,0.224 l 3.274,4.201 z"
   id="path397"
   inkscape:connector-curvature="0"
   style="fill:#494d42" />
		<path
   d="m 44.713,3.667 c 0.706,0.035 1.248,0.634 1.213,1.339 l 0,0 c -0.034,0.706 -0.634,1.248 -1.34,1.215 L 39.268,5.957 C 38.561,5.923 38.019,5.322 38.055,4.618 l 0,0 c 0.033,-0.706 0.633,-1.249 1.338,-1.214 l 5.32,0.263 z"
   id="path399"
   inkscape:connector-curvature="0"
   style="fill:#494d42" />
		<path
   d="m 52.217,6.781 c -0.234,0.381 -0.912,0.385 -1.512,0.012 l 0,0 C 50.105,6.42 49.811,5.811 50.047,5.43 l 1.781,-2.86 c 0.235,-0.38 0.914,-0.384 1.514,-0.011 l 0,0 c 0.599,0.372 0.894,0.982 0.657,1.361 l -1.782,2.861 z"
   id="path401"
   inkscape:connector-curvature="0"
   style="fill:#6d725c" />
		<path
   d="m 33.41,5.765 c 0.037,-0.706 0.64,-1.246 1.343,-1.209 l 0,0 C 35.46,4.596 36,5.198 35.962,5.903 l -0.289,5.317 c -0.039,0.705 -0.641,1.245 -1.346,1.207 l 0,0 C 33.623,12.39 33.081,11.786 33.121,11.081 L 33.41,5.765 z"
   id="path403"
   inkscape:connector-curvature="0"
   style="fill:#494d42" />
		<path
   d="m 36.723,14.22 c -0.706,-0.024 -1.256,-0.616 -1.231,-1.321 l 0,0 c 0.024,-0.706 0.615,-1.258 1.322,-1.232 l 5.323,0.188 c 0.705,0.023 1.256,0.617 1.231,1.322 l 0,0 c -0.024,0.704 -0.615,1.258 -1.322,1.232 L 36.723,14.22 z"
   id="path405"
   inkscape:connector-curvature="0"
   style="fill:#494d42" />
		<path
   d="m 51.543,11.352 c 0.434,0.109 0.645,0.753 0.473,1.438 l 0,0 c -0.174,0.685 -0.664,1.15 -1.098,1.042 L 47.65,13.008 c -0.434,-0.11 -0.644,-0.755 -0.472,-1.438 l 0,0 c 0.172,-0.686 0.664,-1.15 1.098,-1.041 l 3.267,0.823 z"
   id="path407"
   inkscape:connector-curvature="0"
   style="fill:#6d725c" />
		<path
   d="m 46.24,12.412 c 0.434,0.109 0.644,0.753 0.472,1.438 l 0,0 c -0.173,0.686 -0.664,1.15 -1.097,1.043 l -3.268,-0.825 c -0.434,-0.11 -0.644,-0.754 -0.472,-1.438 l 0,0 c 0.172,-0.686 0.664,-1.15 1.098,-1.041 l 3.267,0.823 z"
   id="path409"
   inkscape:connector-curvature="0"
   style="fill:#6d725c" />
		<path
   d="m 43.017,11.678 c -0.347,0.616 -1.126,0.835 -1.741,0.49 l 0,0 C 40.661,11.82 40.443,11.042 40.787,10.426 l 2.609,-4.644 c 0.347,-0.615 1.126,-0.834 1.741,-0.489 l 0,0 c 0.615,0.346 0.835,1.126 0.487,1.74 l -2.607,4.645 z"
   id="path411"
   inkscape:connector-curvature="0"
   style="fill:#494d42" />
		<path
   d="m 38.606,11.997 c -0.44,0.077 -0.895,-0.427 -1.016,-1.123 l 0,0 C 37.47,10.18 37.728,9.555 38.168,9.477 L 41.489,8.9 c 0.439,-0.077 0.895,0.426 1.017,1.121 l 0,0 c 0.12,0.695 -0.139,1.32 -0.579,1.397 l -3.321,0.579 z"
   id="path413"
   inkscape:connector-curvature="0"
   style="fill:#6d725c" />
		<path
   d="m 48.898,10.08 c 0.006,0.706 -0.561,1.283 -1.266,1.29 l 0,0 C 46.925,11.375 46.348,10.808 46.34,10.103 L 46.291,4.777 C 46.287,4.071 46.853,3.494 47.559,3.486 l 0,0 c 0.705,-0.006 1.283,0.562 1.288,1.268 l 0.051,5.326 z"
   id="path415"
   inkscape:connector-curvature="0"
   style="fill:#494d42" />
		<path
   d="m 51.104,12.984 c 0.677,-0.201 1.39,0.182 1.591,0.858 l 0,0 c 0.204,0.675 -0.179,1.388 -0.855,1.592 l -5.102,1.53 c -0.677,0.205 -1.388,-0.181 -1.591,-0.857 l 0,0 c -0.204,-0.675 0.179,-1.388 0.855,-1.59 l 5.102,-1.533 z"
   id="path417"
   inkscape:connector-curvature="0"
   style="fill:#494d42" />
		<path
   d="m 45.493,6.895 c -0.344,0.286 -0.988,0.076 -1.44,-0.466 l 0,0 C 43.601,5.885 43.515,5.213 43.858,4.927 L 46.452,2.775 C 46.796,2.49 47.44,2.7 47.891,3.243 l 0,0 c 0.452,0.542 0.539,1.215 0.193,1.5 l -2.591,2.152 z"
   id="path419"
   inkscape:connector-curvature="0"
   style="fill:#6d725c" />
		<path
   d="M 38.068,9.016 C 37.724,9.302 37.08,9.092 36.629,8.55 l 0,0 C 36.177,8.006 36.091,7.335 36.434,7.048 l 2.594,-2.152 c 0.344,-0.284 0.988,-0.075 1.439,0.468 l 0,0 c 0.452,0.542 0.539,1.215 0.193,1.5 l -2.592,2.152 z"
   id="path421"
   inkscape:connector-curvature="0"
   style="fill:#6d725c" />
	</g>
</g>
<path
   d="m 23.027733,39.643258 c -0.453204,0.01497 -0.832398,-0.379194 -0.849029,-0.880629 l -0.005,-0.16465 c -0.01746,-0.499771 0.336785,-0.918049 0.789157,-0.933017 l 1.041952,-0.03326 c 0.452372,-0.0158 0.831566,0.378363 0.847366,0.879797 l 0.0067,0.162987 c 0.0158,0.502266 -0.337616,0.91805 -0.789988,0.933849 l -1.041121,0.03493 z"
   id="path423"
   inkscape:connector-curvature="0"
   style="fill:#664027"
   inkscape:export-filename="C:\Wyneos\Cloud\AnimalWebAction\brainstorming\v4.0\icones\bande1\icone-final\path433.png"
   inkscape:export-xdpi="90"
   inkscape:export-ydpi="90" />
<path
   d="m 23.72708,38.193007 c -0.453204,0.01497 -0.832398,-0.379195 -0.849029,-0.879798 l -0.005,-0.165481 c -0.01746,-0.49894 0.336785,-0.918049 0.789157,-0.932186 l 1.041952,-0.03409 c 0.451541,-0.01497 0.831567,0.378362 0.847366,0.878965 l 0.005,0.165482 c 0.01746,0.500603 -0.336785,0.918881 -0.789157,0.932186 l -1.040289,0.03493 z"
   id="path425"
   inkscape:connector-curvature="0"
   style="fill:#664027"
   inkscape:export-filename="C:\Wyneos\Cloud\AnimalWebAction\brainstorming\v4.0\icones\bande1\icone-final\path433.png"
   inkscape:export-xdpi="90"
   inkscape:export-ydpi="90" />
<path
   d="m 36.871648,35.213505 c 0.452372,0.01497 0.831566,-0.379195 0.849029,-0.880629 l 0.005,-0.163819 c 0.01663,-0.499771 -0.337616,-0.918049 -0.789156,-0.932185 l -1.041953,-0.03493 c -0.453203,-0.01414 -0.831566,0.378363 -0.848197,0.879797 l -0.005,0.163819 c -0.01746,0.502266 0.335953,0.91888 0.789157,0.933848 l 1.041121,0.0341 z"
   id="path427"
   inkscape:connector-curvature="0"
   style="fill:#664027"
   inkscape:export-filename="C:\Wyneos\Cloud\AnimalWebAction\brainstorming\v4.0\icones\bande1\icone-final\path433.png"
   inkscape:export-xdpi="90"
   inkscape:export-ydpi="90" />
<path
   d="m 37.570995,36.663756 c 0.452372,0.01331 0.833229,-0.380026 0.849029,-0.880628 l 0.005,-0.163819 c 0.01746,-0.500603 -0.337616,-0.918881 -0.788325,-0.933849 L 36.593915,34.6522 c -0.452372,-0.0158 -0.831567,0.378363 -0.847366,0.879798 l -0.0067,0.163818 c -0.01663,0.500603 0.336784,0.918049 0.789988,0.933017 l 1.041121,0.03493 z"
   id="path429"
   inkscape:connector-curvature="0"
   style="fill:#664027"
   inkscape:export-filename="C:\Wyneos\Cloud\AnimalWebAction\brainstorming\v4.0\icones\bande1\icone-final\path433.png"
   inkscape:export-xdpi="90"
   inkscape:export-ydpi="90" />
<path
   d="m 24.574446,36.610536 c -0.452372,0.01497 -0.831566,-0.378363 -0.849029,-0.878966 l -0.0042,-0.165481 c -0.01746,-0.499772 0.336784,-0.918049 0.788325,-0.932186 l 1.041952,-0.03493 c 0.452372,-0.01414 0.831567,0.380858 0.849029,0.879797 l 0.005,0.165482 c 0.01663,0.500603 -0.337616,0.918049 -0.789157,0.932186 l -1.041952,0.03409 z"
   id="path431"
   inkscape:connector-curvature="0"
   style="fill:#664027"
   inkscape:export-filename="C:\Wyneos\Cloud\AnimalWebAction\brainstorming\v4.0\icones\bande1\icone-final\path433.png"
   inkscape:export-xdpi="90"
   inkscape:export-ydpi="90" />
<path
   d="m 25.470874,35.145316 c -0.45154,0.0158 -0.831566,-0.378362 -0.848197,-0.878965 l -0.005,-0.165482 c -0.01746,-0.500603 0.335953,-0.918049 0.789157,-0.932186 l 1.041952,-0.03409 c 0.452372,-0.01497 0.831567,0.378363 0.849029,0.878966 l 0.005,0.16465 c 0.01663,0.501434 -0.336784,0.918049 -0.789988,0.933017 l -1.041953,0.03409 z"
   id="path433"
   inkscape:connector-curvature="0"
   style="fill:#664027"
   inkscape:export-xdpi="90"
   inkscape:export-ydpi="90" />
</svg>