<?xml version="1.0" encoding="UTF-8" standalone="no"?>
<!-- Generator: Adobe Illustrator 16.0.0, SVG Export Plug-In . SVG Version: 6.00 Build 0)  -->

<svg
   xmlns:dc="http://purl.org/dc/elements/1.1/"
   xmlns:cc="http://creativecommons.org/ns#"
   xmlns:rdf="http://www.w3.org/1999/02/22-rdf-syntax-ns#"
   xmlns:svg="http://www.w3.org/2000/svg"
   xmlns="http://www.w3.org/2000/svg"
   xmlns:xlink="http://www.w3.org/1999/xlink"
   xmlns:sodipodi="http://sodipodi.sourceforge.net/DTD/sodipodi-0.dtd"
   xmlns:inkscape="http://www.inkscape.org/namespaces/inkscape"
   version="1.1"
   id="Calque_1"
   x="0px"
   y="0px"
   width="92.305489"
   height="80"
   viewBox="0 0 92.305489 80"
   enable-background="new 0 0 100 100"
   xml:space="preserve"
   inkscape:version="0.48.4 r9939"
   sodipodi:docname="abris.svg"><metadata
   id="metadata99"><rdf:RDF><cc:Work
       rdf:about=""><dc:format>image/svg+xml</dc:format><dc:type
         rdf:resource="http://purl.org/dc/dcmitype/StillImage" /><dc:title /></cc:Work></rdf:RDF></metadata><defs
   id="defs97" /><sodipodi:namedview
   pagecolor="#ffffff"
   bordercolor="#666666"
   borderopacity="1"
   objecttolerance="10"
   gridtolerance="10"
   guidetolerance="10"
   inkscape:pageopacity="0"
   inkscape:pageshadow="2"
   inkscape:window-width="1366"
   inkscape:window-height="706"
   id="namedview95"
   showgrid="false"
   showguides="true"
   inkscape:guide-bbox="true"
   inkscape:zoom="9.4422939"
   inkscape:cx="49.812064"
   inkscape:cy="67.264007"
   inkscape:window-x="-8"
   inkscape:window-y="-8"
   inkscape:window-maximized="1"
   inkscape:current-layer="Calque_1"
   fit-margin-top="0"
   fit-margin-left="0"
   fit-margin-right="0"
   fit-margin-bottom="0"><sodipodi:guide
     orientation="0,1"
     position="-136.62862,170.33605"
     id="guide3076" /></sodipodi:namedview>
<polyline
   points="12.501,55 12.481,44.96 38.215,29.91 47.47,37.594 "
   id="polyline3"
   transform="matrix(0.95366951,0,0,0.95366951,-1.8967156,-7.0684628)"
   style="fill:#c17b4c;stroke-width:0.50017327;stroke-miterlimit:10;stroke-dasharray:none" />
<polyline
   points="41.722,26.863 48.963,33.732 62.958,23.671 55.164,17.827 "
   id="polyline5"
   transform="matrix(0.95366951,0,0,0.95366951,-1.8967156,-7.0684628)"
   style="fill:#e29054;stroke-width:0.50017327;stroke-miterlimit:10;stroke-dasharray:none" />
<polyline
   points="36.375,38.32 39.961,36.194 38.864,40.208 "
   id="polyline7"
   transform="matrix(0.95366951,0,0,0.95366951,-1.8967156,-7.0684628)"
   style="fill:#c17b4c;stroke-width:0.50017327;stroke-miterlimit:10;stroke-dasharray:none" />
<polyline
   points="60.625,91 86.743,75.654 58.567,69.089 "
   id="polyline9"
   transform="matrix(0.95366951,0,0,0.95366951,-1.8967156,-7.0684628)"
   style="fill:#c17b4c;stroke-width:0.50017327;stroke-miterlimit:10;stroke-dasharray:none" />
<g
   id="g11"
   transform="matrix(0.95366951,0,0,0.95366951,-1.8967156,-7.0684628)"
   style="stroke-width:0.50017327;stroke-miterlimit:10;stroke-dasharray:none">
	<g
   id="g13"
   style="stroke-width:0.50017327;stroke-miterlimit:10;stroke-dasharray:none">
		<g
   enable-background="new    "
   id="g15"
   style="stroke-width:0.50017327;stroke-miterlimit:10;stroke-dasharray:none">
			<defs
   id="defs17"><polygon
     id="SVGID_1_"
     enable-background="new    "
     points="27.326,3.195 98.661,11.912 98.537,78.154 27.202,69.438 " /></defs>
			<clipPath
   id="SVGID_2_">
				<use
   xlink:href="#SVGID_1_"
   overflow="visible"
   id="use21"
   style="overflow:visible"
   x="0"
   y="0"
   width="100"
   height="100" />
			</clipPath>
			<g
   clip-path="url(#SVGID_2_)"
   id="g23"
   style="stroke-width:0.50017327;stroke-miterlimit:10;stroke-dasharray:none">
				<g
   id="g25"
   style="stroke-width:0.50017327;stroke-miterlimit:10;stroke-dasharray:none">
					<g
   id="g27"
   style="stroke-width:0.50017327;stroke-miterlimit:10;stroke-dasharray:none">
						<g
   id="g29"
   style="stroke-width:0.50017327;stroke-miterlimit:10;stroke-dasharray:none">
							<path
   d="m 62.988,23.354 c -0.667,-0.082 -1.336,0.05 -1.928,0.407 L 39.457,36.869 c -1.066,0.639 -1.713,1.918 -1.716,3.379 l -0.049,26.233 c -0.004,2.343 1.619,4.436 3.617,4.68 l 43.166,5.274 c 2.006,0.245 3.636,-1.45 3.641,-3.793 l 0.049,-26.233 c 0.003,-1.461 -0.639,-2.897 -1.702,-3.797 L 64.908,24.23 c -0.585,-0.5 -1.252,-0.795 -1.92,-0.876 M 63.02,7.557 C 62.353,7.475 61.686,7.608 61.099,7.965 L 28.945,27.472 c -1.703,1.028 -2.229,3.576 -1.167,5.687 0.683,1.375 1.865,2.227 3.076,2.375 0.655,0.08 1.319,-0.045 1.916,-0.407 L 62.998,16.794 93.143,42.496 c 0.602,0.515 1.263,0.803 1.923,0.883 1.205,0.147 2.387,-0.417 3.084,-1.62 1.06,-1.86 0.553,-4.525 -1.146,-5.97 L 64.938,8.434 C 64.353,7.934 63.687,7.638 63.02,7.557"
   id="path31"
   inkscape:connector-curvature="0"
   style="fill:#c17b4c;stroke-width:0.50017327;stroke-miterlimit:10;stroke-dasharray:none" />
						</g>
					</g>
				</g>
			</g>
		</g>
	</g>
</g>
<polyline
   points="88.115,48.165 88.131,38.173 63.939,15.969 52.34,19.67 "
   id="polyline33"
   transform="matrix(0.95366951,0,0,0.95366951,-1.8967156,-7.0684628)"
   style="fill:#e29054;stroke-width:0.50017327;stroke-miterlimit:10;stroke-dasharray:none" />
<polyline
   points="72.654,57.027 97.297,42.766 83.799,31.123 "
   id="polyline35"
   transform="matrix(0.95366951,0,0,0.95366951,-1.8967156,-7.0684628)"
   style="fill:#e29054;stroke-width:0.50017327;stroke-miterlimit:10;stroke-dasharray:none" />
<path
   stroke-miterlimit="10"
   d="m 46.929256,25.115975 c -0.317572,0.373839 -0.697133,0.706669 -1.142497,0.987048 -3.114684,1.966467 -8.346515,0.559804 -10.649627,-3.090843"
   id="path37"
   inkscape:connector-curvature="0"
   style="fill:none;stroke:#eda870;stroke-width:0.477;stroke-miterlimit:10;stroke-dasharray:none" />
<path
   d="M 66.26109,48.185241 C 67.304405,47.581568 89.696565,34.409485 90.357458,34.02611 90.89342,33.716167 93.989031,31.722998 91.067942,27.502056 90.435659,26.589395 60.759371,1.5889482 60.449428,1.3352722 c -1.165384,-0.949854 -1.829138,-2.457606 -5.662889,0 C 53.616386,2.0858102 32.837835,14.344278 32.361,14.642777"
   id="path39"
   inkscape:connector-curvature="0"
   style="fill:#e25033;stroke-width:0.477;stroke-miterlimit:10;stroke-dasharray:none" />
<g
   id="g41"
   transform="matrix(0.95366951,0,0,0.95366951,-1.8967156,-7.0684628)"
   style="stroke-width:0.50017327;stroke-miterlimit:10;stroke-dasharray:none">
	<g
   id="g43"
   style="stroke-width:0.50017327;stroke-miterlimit:10;stroke-dasharray:none">
		<g
   enable-background="new    "
   id="g45"
   style="stroke-width:0.50017327;stroke-miterlimit:10;stroke-dasharray:none">
			<defs
   id="defs47"><polygon
     id="SVGID_3_"
     enable-background="new    "
     points="2.085,18.037 73.419,26.755 73.296,92.994 1.962,84.275 " /></defs>
			<clipPath
   id="SVGID_4_">
				<use
   xlink:href="#SVGID_3_"
   overflow="visible"
   id="use51"
   style="overflow:visible"
   x="0"
   y="0"
   width="100"
   height="100" />
			</clipPath>
			<g
   clip-path="url(#SVGID_4_)"
   id="g53"
   style="stroke-width:0.50017327;stroke-miterlimit:10;stroke-dasharray:none">
				<g
   id="g55"
   style="stroke-width:0.50017327;stroke-miterlimit:10;stroke-dasharray:none">
					<g
   id="g57"
   style="stroke-width:0.50017327;stroke-miterlimit:10;stroke-dasharray:none">
						<g
   id="g59"
   style="stroke-width:0.50017327;stroke-miterlimit:10;stroke-dasharray:none">
							<path
   d="m 37.744,38.195 c -0.668,-0.082 -1.337,0.051 -1.928,0.406 L 14.213,51.709 c -1.067,0.639 -1.713,1.918 -1.716,3.379 l -0.049,26.231 c -0.004,2.343 1.619,4.436 3.625,4.681 l 43.165,5.275 c 1.998,0.244 3.628,-1.451 3.633,-3.793 L 62.92,61.251 c 0.002,-1.462 -0.64,-2.898 -1.703,-3.798 L 39.663,39.071 c -0.585,-0.499 -1.251,-0.795 -1.919,-0.876 m 0.034,-15.796 c -0.667,-0.082 -1.334,0.051 -1.925,0.407 L 3.701,42.304 c -1.703,1.028 -2.22,3.585 -1.167,5.695 0.684,1.375 1.866,2.227 3.077,2.375 0.655,0.08 1.318,-0.046 1.917,-0.407 L 37.762,31.628 67.906,57.339 c 0.594,0.513 1.254,0.801 1.914,0.882 1.214,0.148 2.396,-0.417 3.084,-1.621 1.068,-1.858 0.553,-4.533 -1.137,-5.976 L 39.701,23.276 c -0.59,-0.5 -1.256,-0.796 -1.923,-0.877"
   id="path61"
   inkscape:connector-curvature="0"
   style="fill:#eda870;stroke-width:0.50017327;stroke-miterlimit:10;stroke-dasharray:none" />
						</g>
					</g>
				</g>
			</g>
		</g>
	</g>
</g>
<g
   id="g63"
   transform="matrix(0.95366951,0,0,0.95366951,-1.8967156,-7.0684628)">
	<g
   id="g65">
		<g
   enable-background="new    "
   id="g67">
			<defs
   id="defs69"><polygon
     id="SVGID_5_"
     enable-background="new    "
     points="19.155,50.09 55.157,54.47 55.104,82.765 19.102,78.385 " /></defs>
			<clipPath
   id="SVGID_6_">
				<use
   xlink:href="#SVGID_5_"
   overflow="visible"
   id="use73"
   style="overflow:visible"
   x="0"
   y="0"
   width="100"
   height="100" />
			</clipPath>
			<g
   clip-path="url(#SVGID_6_)"
   id="g75">
				<g
   id="g77">
					<g
   id="g79">
						<g
   id="g81">
							<path
   d="m 36.383,73.854 c -0.56,-0.164 -0.98,-0.725 -0.979,-1.339 0.009,-0.684 0.54,-1.163 1.192,-1.084 0.653,0.08 1.172,0.696 1.171,1.38 -0.008,0.566 -0.375,0.999 -0.873,1.079 -0.024,0.238 0.045,0.653 0.34,1.131 0.33,0.559 1.179,1.561 3.121,2.091 0.566,0.153 1.072,0.252 1.519,0.306 1.244,0.151 2.02,-0.036 2.349,-0.302 l 0.305,0.392 c -0.497,0.406 -1.439,0.534 -2.637,0.388 -0.496,-0.06 -1.033,-0.16 -1.594,-0.314 -2.123,-0.578 -3.071,-1.714 -3.442,-2.33 -0.074,-0.123 -0.138,-0.246 -0.193,-0.369 -0.071,0.164 -0.166,0.33 -0.287,0.492 -0.464,0.601 -1.432,1.313 -3.457,1.266 -0.537,-0.014 -1.033,-0.048 -1.479,-0.102 -1.339,-0.163 -2.255,-0.508 -2.742,-1.052 l 0.323,-0.306 c 0.391,0.431 1.246,0.735 2.459,0.883 0.423,0.052 0.892,0.084 1.398,0.096 1.852,0.036 2.72,-0.586 3.126,-1.115 0.32,-0.435 0.404,-0.885 0.38,-1.191 m 7.006,-2.607 c -1.124,-0.146 -2.022,-1.216 -2.012,-2.382 0.011,-1.169 0.913,-1.998 2.03,-1.862 0.005,0.001 0.01,0 0.015,0.002 1.116,0.144 2.015,1.205 2.013,2.38 -0.011,1.167 -0.93,1.998 -2.046,1.862 M 30.705,69.626 c -0.005,-0.001 -0.01,-0.001 -0.015,-0.002 -1.115,-0.136 -2.015,-1.205 -2.013,-2.372 0.011,-1.176 0.921,-2.007 2.045,-1.87 1.124,0.145 2.022,1.214 2.012,2.381 -0.01,1.169 -0.913,1.999 -2.029,1.863 M 26.033,50.927 c -0.125,-0.016 -0.243,-0.009 -0.351,0.021 -2.654,0.647 -0.252,11.109 -0.617,11.609 -1.828,0.937 -1.688,5.875 -1.688,5.875 l -4.107,-0.526 -0.012,2.074 4.809,0.611 c 0,0 0.115,0.403 0.23,0.599 l -5.185,1.341 0.854,2.95 6.035,-1.109 c 0,0 3.619,5.25 10.733,6.149 l 0.669,0.091 c 0.026,0.003 0.051,0.006 0.078,0.01 7.063,0.859 10.722,-3.401 10.722,-3.401 l 6.004,2.339 0.906,-2.596 -5.161,-2.505 c 0.124,-0.175 0.24,-0.532 0.24,-0.532 l 4.81,0.61 -0.005,-2.085 -4.106,-0.517 c 0,0 0.231,-4.633 -1.584,-6.039 -0.354,-0.588 2.185,-10.189 -0.45,-11.514 -0.114,-0.061 -0.239,-0.097 -0.374,-0.113 -2.369,-0.288 -7.736,5.855 -7.736,5.855 0,0 -2.2,-0.164 -3.093,-0.272 -0.034,-0.004 -0.066,-0.008 -0.097,-0.013 L 36.88,59.757 c -0.818,-0.108 -3.189,-0.655 -3.189,-0.655 0,0 -5.303,-7.889 -7.658,-8.175"
   id="path83"
   inkscape:connector-curvature="0"
   style="fill:#ffffff" />
							<path
   d="m 30.722,65.382 c -1.124,-0.137 -2.035,0.694 -2.045,1.87 -0.002,1.167 0.897,2.236 2.013,2.372 0.005,0.001 0.01,0.001 0.015,0.002 1.117,0.136 2.019,-0.694 2.03,-1.863 0.01,-1.167 -0.889,-2.237 -2.013,-2.381"
   id="path85"
   inkscape:connector-curvature="0"
   style="fill:#eda870" />
							<path
   d="m 43.407,67.003 c -1.117,-0.136 -2.019,0.693 -2.03,1.862 -0.01,1.166 0.889,2.235 2.012,2.382 1.116,0.136 2.035,-0.695 2.045,-1.862 0.002,-1.175 -0.897,-2.236 -2.013,-2.38 -0.004,-0.002 -0.009,-10e-4 -0.014,-0.002"
   id="path87"
   inkscape:connector-curvature="0"
   style="fill:#eda870" />
							<path
   d="m 36.595,71.432 c -0.652,-0.079 -1.183,0.4 -1.192,1.084 -10e-4,0.614 0.419,1.175 0.979,1.339 -0.003,-0.041 -0.008,-0.08 -0.015,-0.115 l 0.075,-0.008 c 0.004,-0.029 0.01,-0.058 0.016,-0.085 l 0.17,0.063 0.185,-0.02 c 0.007,0.029 0.013,0.062 0.018,0.096 l 0.073,0.026 c -0.005,0.024 -0.009,0.05 -0.012,0.078 0.499,-0.08 0.865,-0.513 0.873,-1.079 0.003,-0.683 -0.517,-1.299 -1.17,-1.379"
   id="path89"
   inkscape:connector-curvature="0"
   style="fill:#eda870" />
							<path
   d="m 36.443,73.731 -0.075,0.008 c 0.007,0.035 0.012,0.074 0.015,0.115 0.024,0.306 -0.06,0.756 -0.381,1.189 -0.406,0.529 -1.275,1.151 -3.126,1.115 -0.507,-0.012 -0.975,-0.044 -1.398,-0.096 -1.214,-0.147 -2.068,-0.452 -2.459,-0.883 l -0.323,0.306 c 0.487,0.544 1.403,0.889 2.742,1.052 0.446,0.054 0.942,0.088 1.479,0.102 2.025,0.048 2.993,-0.665 3.457,-1.266 0.122,-0.162 0.216,-0.328 0.287,-0.492 -0.189,-0.417 -0.268,-0.824 -0.218,-1.15 m 0.371,-0.041 -0.185,0.02 0.202,0.076 C 36.827,73.753 36.821,73.72 36.814,73.69"
   id="path91"
   inkscape:connector-curvature="0"
   style="fill:#eda870" />
							<path
   d="m 36.459,73.646 c -0.006,0.027 -0.012,0.056 -0.016,0.085 -0.05,0.325 0.029,0.732 0.217,1.15 0.055,0.123 0.119,0.246 0.193,0.369 0.371,0.616 1.319,1.752 3.442,2.33 0.562,0.154 1.099,0.255 1.594,0.314 1.198,0.146 2.141,0.019 2.637,-0.388 l -0.305,-0.392 c -0.329,0.266 -1.105,0.453 -2.349,0.302 -0.446,-0.054 -0.952,-0.152 -1.519,-0.306 -1.941,-0.53 -2.791,-1.532 -3.121,-2.091 -0.294,-0.478 -0.364,-0.893 -0.34,-1.131 0.002,-0.028 0.007,-0.054 0.012,-0.078 l -0.073,-0.026 -0.202,-0.076 -0.17,-0.062"
   id="path93"
   inkscape:connector-curvature="0"
   style="fill:#eda870" />
						</g>
					</g>
				</g>
			</g>
		</g>
	</g>
</g>
</svg>