<?xml version="1.0" encoding="UTF-8" standalone="no"?>
<!-- Generator: Adobe Illustrator 16.0.3, SVG Export Plug-In . SVG Version: 6.00 Build 0)  -->

<svg
   xmlns:dc="http://purl.org/dc/elements/1.1/"
   xmlns:cc="http://creativecommons.org/ns#"
   xmlns:rdf="http://www.w3.org/1999/02/22-rdf-syntax-ns#"
   xmlns:svg="http://www.w3.org/2000/svg"
   xmlns="http://www.w3.org/2000/svg"
   xmlns:sodipodi="http://sodipodi.sourceforge.net/DTD/sodipodi-0.dtd"
   xmlns:inkscape="http://www.inkscape.org/namespaces/inkscape"
   version="1.2"
   id="Calque_1"
   x="0px"
   y="0px"
   width="90"
   height="84.705879"
   viewBox="0 0 90 84.705879"
   xml:space="preserve"
   inkscape:version="0.48.4 r9939"
   sodipodi:docname="croquettes_Final_2.svg"><metadata
   id="metadata143"><rdf:RDF><cc:Work
       rdf:about=""><dc:format>image/svg+xml</dc:format><dc:type
         rdf:resource="http://purl.org/dc/dcmitype/StillImage" /><dc:title></dc:title></cc:Work></rdf:RDF></metadata><defs
   id="defs141" /><sodipodi:namedview
   pagecolor="#ffffff"
   bordercolor="#666666"
   borderopacity="1"
   objecttolerance="10"
   gridtolerance="10"
   guidetolerance="10"
   inkscape:pageopacity="0"
   inkscape:pageshadow="2"
   inkscape:window-width="1440"
   inkscape:window-height="838"
   id="namedview139"
   showgrid="false"
   fit-margin-top="0"
   fit-margin-left="0"
   fit-margin-right="0"
   fit-margin-bottom="0"
   inkscape:zoom="2.33"
   inkscape:cx="40.006"
   inkscape:cy="83.458322"
   inkscape:window-x="-8"
   inkscape:window-y="-8"
   inkscape:window-maximized="1"
   inkscape:current-layer="g3" />
<g
   id="g3"
   inkscape:export-xdpi="90"
   inkscape:export-ydpi="90"
   transform="translate(0.006,14.016882)">
	<g
   id="g5"
   transform="matrix(1.1248032,0,0,1.3800691,7.4881893e-4,-26.866705)"
   inkscape:export-filename="C:\Wyneos\Cloud\AnimalWebAction\brainstorming\v4.7\g12112.png"
   inkscape:export-xdpi="90"
   inkscape:export-ydpi="90">
		<path
   d="m 8.068,23.713 c 0,2.971 2.394,5.379 5.346,5.379 2.958,0 5.351,-2.408 5.351,-5.379 0,-2.973 -2.394,-5.379 -5.351,-5.379 -2.952,0 -5.346,2.406 -5.346,5.379 z"
   id="path7"
   inkscape:connector-curvature="0"
   style="fill:#895837" />
		<path
   d="m 68.98,34.367 c 0,2.977 -2.408,5.379 -5.381,5.379 -2.973,0 -5.377,-2.402 -5.377,-5.379 0,-2.971 2.404,-5.375 5.377,-5.375 2.973,0 5.381,2.404 5.381,5.375 z"
   id="path9"
   inkscape:connector-curvature="0"
   style="fill:#a87451" />
		<path
   d="m 51.713,17.105 c 0,2.971 -2.402,5.377 -5.379,5.377 -2.971,0 -5.375,-2.406 -5.375,-5.377 0,-2.972 2.404,-5.378 5.375,-5.378 2.975,10e-4 5.379,2.407 5.379,5.378 z"
   id="path11"
   inkscape:connector-curvature="0"
   style="fill:#9b6948" />
		<path
   d="m 59.115,29.438 c 0,2.971 -2.408,5.379 -5.381,5.379 -2.973,0 -5.377,-2.408 -5.377,-5.379 0,-2.973 2.404,-5.379 5.377,-5.379 2.973,0 5.381,2.406 5.381,5.379 z"
   id="path13"
   inkscape:connector-curvature="0"
   style="fill:#9b6948" />
		<path
   d="m 64.045,26.971 c 0,2.971 -2.406,5.379 -5.379,5.379 -2.971,0 -5.377,-2.408 -5.377,-5.379 0,-2.973 2.406,-5.379 5.377,-5.379 2.973,0 5.379,2.406 5.379,5.379 z"
   id="path15"
   inkscape:connector-curvature="0"
   style="fill:#603822" />
		<path
   d="m 51.199,28.906 c -2.939,-0.42 -4.986,-3.141 -4.568,-6.082 0.42,-2.941 3.141,-4.986 6.082,-4.568 2.941,0.418 4.984,3.139 4.572,6.08 -0.418,2.943 -3.14,4.988 -6.086,4.57 z"
   id="path17"
   inkscape:connector-curvature="0"
   style="fill:#895837" />
		<path
   d="m 59.246,24.715 c -2.943,-0.418 -4.986,-3.139 -4.572,-6.082 0.42,-2.941 3.141,-4.986 6.082,-4.567 2.939,0.417 4.99,3.138 4.57,6.079 -0.418,2.943 -3.138,4.988 -6.08,4.57 z"
   id="path19"
   inkscape:connector-curvature="0"
   style="fill:#9b6948" />
		<path
   d="m 49.822,20.887 c -2.939,-0.416 -4.984,-3.139 -4.568,-6.08 0.414,-2.941 3.139,-4.989 6.08,-4.568 2.943,0.417 4.986,3.14 4.57,6.078 -0.416,2.941 -3.138,4.988 -6.082,4.57 z"
   id="path21"
   inkscape:connector-curvature="0"
   style="fill:#603822" />
		<path
   d="m 49.713,23.76 c 1.436,2.598 0.494,5.869 -2.1,7.309 -2.596,1.441 -5.869,0.504 -7.311,-2.096 -1.443,-2.6 -0.501,-5.871 2.098,-7.311 2.6,-1.441 5.873,-0.504 7.313,2.098 z"
   id="path23"
   inkscape:connector-curvature="0"
   style="fill:#895837" />
		<path
   d="m 54.49,32.391 c 1.439,2.596 0.504,5.869 -2.096,7.307 -2.602,1.441 -5.875,0.504 -7.313,-2.096 -1.439,-2.6 -0.5,-5.873 2.096,-7.313 2.604,-1.437 5.878,-0.5 7.313,2.102 z"
   id="path25"
   inkscape:connector-curvature="0"
   style="fill:#a87451" />
		<path
   d="m 43.006,21.836 c 1.441,2.596 0.502,5.871 -2.1,7.313 -2.598,1.438 -5.872,0.498 -7.309,-2.102 -1.439,-2.596 -0.5,-5.869 2.097,-7.311 2.6,-1.439 5.872,-0.5 7.312,2.1 z"
   id="path27"
   inkscape:connector-curvature="0"
   style="fill:#9b6948" />
		<path
   d="m 45.629,31.664 c 1.439,2.594 0.502,5.863 -2.098,7.305 -2.598,1.441 -5.871,0.502 -7.311,-2.096 -1.44,-2.6 -0.501,-5.871 2.097,-7.311 2.601,-1.441 5.872,-0.501 7.312,2.102 z"
   id="path29"
   inkscape:connector-curvature="0"
   style="fill:#603822" />
		<path
   d="m 55.904,22.869 c 0,2.971 -2.406,5.379 -5.375,5.379 -2.975,0 -5.381,-2.408 -5.381,-5.379 0,-2.971 2.406,-5.379 5.381,-5.379 2.969,0 5.375,2.408 5.375,5.379 z"
   id="path31"
   inkscape:connector-curvature="0"
   style="fill:#895837" />
		<path
   d="m 26.023,22.051 c 0,2.971 2.393,5.379 5.346,5.379 2.958,0 5.351,-2.406 5.351,-5.379 0,-2.971 -2.394,-5.379 -5.351,-5.379 -2.953,0 -5.346,2.408 -5.346,5.379 z"
   id="path33"
   inkscape:connector-curvature="0"
   style="fill:#895837" />
		<path
   d="m 34.056,14.69 c 0,2.97 2.394,5.378 5.347,5.378 2.955,0 5.35,-2.406 5.35,-5.378 0,-2.972 -2.395,-5.379 -5.35,-5.379 -2.953,10e-4 -5.347,2.408 -5.347,5.379 z"
   id="path35"
   inkscape:connector-curvature="0"
   style="fill:#895837" />
		<path
   d="m 7.73,32.176 c 0,2.975 2.394,5.379 5.352,5.379 2.955,0 5.346,-2.404 5.346,-5.379 0,-2.971 -2.391,-5.377 -5.346,-5.377 -2.958,0 -5.352,2.406 -5.352,5.377 z"
   id="path37"
   inkscape:connector-curvature="0"
   style="fill:#a87451" />
		<path
   d="m 27.65,16.287 c 0,2.971 2.392,5.377 5.35,5.377 2.955,0 5.348,-2.406 5.348,-5.377 0,-2.971 -2.393,-5.378 -5.348,-5.378 -2.957,0 -5.35,2.407 -5.35,5.378 z"
   id="path39"
   inkscape:connector-curvature="0"
   style="fill:#9b6948" />
		<path
   d="m 20.291,28.621 c 0,2.971 2.395,5.377 5.35,5.377 2.957,0 5.348,-2.406 5.348,-5.377 0,-2.975 -2.391,-5.381 -5.348,-5.381 -2.955,0 -5.35,2.406 -5.35,5.381 z"
   id="path41"
   inkscape:connector-curvature="0"
   style="fill:#9b6948" />
		<path
   d="m 15.387,26.152 c 0,2.973 2.394,5.379 5.352,5.379 2.953,0 5.346,-2.406 5.346,-5.379 0,-2.973 -2.393,-5.377 -5.346,-5.377 -2.959,-0.002 -5.352,2.405 -5.352,5.377 z"
   id="path43"
   inkscape:connector-curvature="0"
   style="fill:#603822" />
		<path
   d="m 28.162,28.09 c 2.923,-0.422 4.958,-3.143 4.544,-6.082 -0.417,-2.943 -3.123,-4.986 -6.049,-4.57 -2.925,0.418 -4.956,3.139 -4.546,6.08 0.415,2.943 3.121,4.988 6.051,4.572 z"
   id="path45"
   inkscape:connector-curvature="0"
   style="fill:#895837" />
		<path
   d="m 20.161,23.896 c 2.928,-0.418 4.958,-3.139 4.546,-6.082 -0.417,-2.939 -3.122,-4.986 -6.047,-4.566 -2.924,0.417 -4.961,3.137 -4.545,6.078 0.415,2.944 3.121,4.988 6.046,4.57 z"
   id="path47"
   inkscape:connector-curvature="0"
   style="fill:#9b6948" />
		<path
   d="m 29.531,20.068 c 2.924,-0.416 4.959,-3.139 4.545,-6.079 -0.416,-2.941 -3.123,-4.988 -6.049,-4.569 -2.926,0.417 -4.957,3.14 -4.543,6.08 0.412,2.941 3.121,4.986 6.047,4.568 z"
   id="path49"
   inkscape:connector-curvature="0"
   style="fill:#603822" />
		<path
   d="m 29.64,22.941 c -1.428,2.598 -0.493,5.869 2.09,7.309 2.581,1.441 5.837,0.504 7.269,-2.096 1.434,-2.6 0.499,-5.871 -2.086,-7.311 -2.585,-1.439 -5.841,-0.501 -7.273,2.098 z"
   id="path51"
   inkscape:connector-curvature="0"
   style="fill:#895837" />
		<path
   d="m 24.889,31.572 c -1.432,2.596 -0.499,5.869 2.084,7.307 2.586,1.441 5.842,0.504 7.273,-2.096 1.431,-2.6 0.498,-5.873 -2.086,-7.313 -2.587,-1.437 -5.843,-0.499 -7.271,2.102 z"
   id="path53"
   inkscape:connector-curvature="0"
   style="fill:#a87451" />
		<path
   d="m 35.463,16.033 c -1.432,2.596 -0.5,5.869 2.084,7.305 2.584,1.443 5.842,0.504 7.273,-2.094 1.43,-2.6 0.496,-5.873 -2.088,-7.313 -2.587,-1.437 -5.841,-0.499 -7.269,2.102 z"
   id="path55"
   inkscape:connector-curvature="0"
   style="fill:#a87451" />
		<path
   d="m 36.311,21.018 c -1.434,2.598 -0.498,5.871 2.089,7.313 2.581,1.438 5.837,0.498 7.267,-2.102 1.432,-2.596 0.498,-5.869 -2.086,-7.311 -2.585,-1.439 -5.839,-0.5 -7.27,2.1 z"
   id="path57"
   inkscape:connector-curvature="0"
   style="fill:#9b6948" />
		<path
   d="m 33.701,30.846 c -1.431,2.596 -0.499,5.865 2.085,7.307 2.585,1.441 5.839,0.5 7.271,-2.098 1.432,-2.6 0.498,-5.869 -2.086,-7.311 -2.582,-1.439 -5.838,-0.502 -7.27,2.102 z"
   id="path59"
   inkscape:connector-curvature="0"
   style="fill:#603822" />
		<path
   d="m 26.023,21.232 c 0,2.971 2.393,5.381 5.346,5.381 2.958,0 5.351,-2.408 5.351,-5.381 0,-2.971 -2.394,-5.379 -5.351,-5.379 -2.953,10e-4 -5.346,2.409 -5.346,5.379 z"
   id="path61"
   inkscape:connector-curvature="0"
   style="fill:#895837" />
		<g
   id="g63">
			<path
   d="m 47.824,37.58 c -0.145,-2.969 -2.666,-5.256 -5.629,-5.113 -2.971,0.145 -5.259,2.664 -5.115,5.633 0.145,2.969 2.666,5.256 5.635,5.113 2.965,-0.145 5.256,-2.666 5.109,-5.633 z"
   id="path65"
   inkscape:connector-curvature="0"
   style="fill:#895837" />
			<path
   d="m 44.385,28.846 c -0.145,-2.969 -2.664,-5.256 -5.634,-5.111 -2.968,0.143 -5.255,2.662 -5.112,5.631 0.145,2.969 2.664,5.256 5.633,5.111 2.968,-0.143 5.257,-2.664 5.113,-5.631 z"
   id="path67"
   inkscape:connector-curvature="0"
   style="fill:#a87451" />
			<path
   d="m 35.27,33.248 c -0.145,-2.967 -2.664,-5.256 -5.634,-5.111 -2.97,0.145 -5.255,2.664 -5.11,5.631 0.143,2.971 2.661,5.258 5.631,5.113 2.968,-0.143 5.256,-2.662 5.113,-5.633 z"
   id="path69"
   inkscape:connector-curvature="0"
   style="fill:#9b6948" />
			<path
   d="m 41.109,36.879 c -0.145,-2.969 -2.663,-5.256 -5.633,-5.111 -2.969,0.143 -5.254,2.664 -5.11,5.631 0.144,2.969 2.661,5.256 5.63,5.113 2.971,-0.145 5.256,-2.664 5.113,-5.633 z"
   id="path71"
   inkscape:connector-curvature="0"
   style="fill:#603822" />
			<path
   d="m 27.391,34.16 c -2.916,0.563 -4.828,3.379 -4.27,6.295 0.561,2.92 3.377,4.83 6.296,4.271 2.917,-0.561 4.826,-3.375 4.271,-6.295 -0.559,-2.917 -3.375,-4.829 -6.297,-4.271 z"
   id="path73"
   inkscape:connector-curvature="0"
   style="fill:#895837" />
			<path
   d="m 18.104,29.65 c 1.313,-2.662 0.217,-5.887 -2.446,-7.197 -2.669,-1.314 -5.89,-0.221 -7.202,2.445 -1.312,2.666 -0.217,5.891 2.451,7.203 2.663,1.311 5.888,0.217 7.197,-2.451 z"
   id="path75"
   inkscape:connector-curvature="0"
   style="fill:#a87451" />
			<path
   d="m 26.154,39.373 c 1.309,-2.664 0.212,-5.885 -2.452,-7.197 -2.662,-1.314 -5.886,-0.217 -7.2,2.449 -1.314,2.664 -0.217,5.887 2.451,7.201 2.664,1.311 5.889,0.215 7.201,-2.453 z"
   id="path77"
   inkscape:connector-curvature="0"
   style="fill:#895837" />
			<path
   d="m 30.509,30.521 c 1.312,-2.66 0.218,-5.885 -2.446,-7.195 -2.668,-1.314 -5.892,-0.219 -7.205,2.445 -1.311,2.666 -0.215,5.891 2.45,7.203 2.669,1.309 5.891,0.217 7.201,-2.453 z"
   id="path79"
   inkscape:connector-curvature="0"
   style="fill:#a87451" />
			<path
   d="m 21.693,31.678 c 1.311,-2.662 0.217,-5.883 -2.449,-7.195 -2.665,-1.313 -5.889,-0.217 -7.201,2.447 -1.313,2.668 -0.217,5.889 2.448,7.201 2.664,1.312 5.888,0.215 7.202,-2.453 z"
   id="path81"
   inkscape:connector-curvature="0"
   style="fill:#603822" />
		</g>
		<g
   id="g83">
			<path
   d="m 73.01,30.039 c -0.143,-2.971 -2.662,-5.256 -5.635,-5.113 -2.967,0.145 -5.254,2.662 -5.109,5.633 0.145,2.969 2.662,5.256 5.631,5.111 2.97,-0.145 5.257,-2.664 5.113,-5.631 z"
   id="path85"
   inkscape:connector-curvature="0"
   style="fill:#a87451" />
			<path
   d="m 63.895,34.066 c -0.143,-2.969 -2.664,-5.256 -5.633,-5.111 -2.971,0.143 -5.256,2.664 -5.109,5.631 0.143,2.971 2.66,5.256 5.629,5.113 2.97,-0.144 5.257,-2.664 5.113,-5.633 z"
   id="path87"
   inkscape:connector-curvature="0"
   style="fill:#9b6948" />
			<path
   d="m 68.941,36.291 c -0.145,-2.967 -2.664,-5.256 -5.633,-5.111 -2.969,0.145 -5.256,2.664 -5.111,5.631 0.145,2.971 2.664,5.258 5.631,5.113 2.971,-0.143 5.256,-2.664 5.113,-5.633 z"
   id="path89"
   inkscape:connector-curvature="0"
   style="fill:#603822" />
			<path
   d="m 56.016,34.979 c -2.916,0.563 -4.826,3.379 -4.27,6.297 0.561,2.918 3.377,4.828 6.297,4.27 2.916,-0.561 4.828,-3.375 4.271,-6.295 -0.558,-2.921 -3.375,-4.831 -6.298,-4.272 z"
   id="path91"
   inkscape:connector-curvature="0"
   style="fill:#895837" />
			<path
   d="m 46.168,28.467 c 1.313,-2.66 0.217,-5.887 -2.447,-7.195 -2.668,-1.316 -5.891,-0.221 -7.202,2.447 -1.313,2.664 -0.217,5.889 2.45,7.201 2.666,1.309 5.888,0.215 7.199,-2.453 z"
   id="path93"
   inkscape:connector-curvature="0"
   style="fill:#a87451" />
			<path
   d="m 54.781,40.191 c 1.309,-2.664 0.209,-5.885 -2.453,-7.197 -2.662,-1.314 -5.885,-0.217 -7.201,2.449 -1.313,2.664 -0.215,5.887 2.451,7.199 2.666,1.312 5.889,0.215 7.203,-2.451 z"
   id="path95"
   inkscape:connector-curvature="0"
   style="fill:#895837" />
			<path
   d="m 59.135,31.34 c 1.313,-2.662 0.217,-5.887 -2.447,-7.197 -2.666,-1.314 -5.891,-0.219 -7.203,2.447 -1.312,2.666 -0.217,5.889 2.449,7.201 2.668,1.311 5.89,0.217 7.201,-2.451 z"
   id="path97"
   inkscape:connector-curvature="0"
   style="fill:#a87451" />
			<path
   d="m 48.174,42.439 c 1.313,-2.664 0.217,-5.889 -2.451,-7.203 -2.664,-1.311 -5.887,-0.213 -7.197,2.451 -1.313,2.664 -0.217,5.889 2.449,7.201 2.666,1.312 5.884,0.217 7.199,-2.449 z"
   id="path99"
   inkscape:connector-curvature="0"
   style="fill:#9b6948" />
			<path
   d="m 50.318,32.496 c 1.313,-2.662 0.219,-5.883 -2.447,-7.197 -2.668,-1.313 -5.889,-0.215 -7.201,2.449 -1.313,2.666 -0.217,5.887 2.447,7.199 2.666,1.315 5.889,0.219 7.201,-2.451 z"
   id="path101"
   inkscape:connector-curvature="0"
   style="fill:#603822" />
		</g>
		<path
   d="m 47.795,41.072 c -2.945,-0.416 -4.984,-3.139 -4.572,-6.08 0.422,-2.941 3.143,-4.988 6.084,-4.57 2.939,0.418 4.988,3.139 4.568,6.082 -0.416,2.941 -3.139,4.986 -6.08,4.568 z"
   id="path103"
   inkscape:connector-curvature="0"
   style="fill:#9b6948" />
		<path
   d="m 71.643,24.568 c 0,3.389 -2.451,6.133 -5.475,6.133 -3.027,0 -5.479,-2.744 -5.479,-6.133 0,-3.387 2.451,-6.131 5.479,-6.131 3.023,10e-4 5.475,2.745 5.475,6.131 z"
   id="path105"
   inkscape:connector-curvature="0"
   style="fill:#895837" />
		<path
   d="m 22.441,38.619 c -2.943,-0.418 -4.986,-3.139 -4.572,-6.08 0.42,-2.941 3.141,-4.988 6.082,-4.57 2.94,0.418 4.989,3.139 4.57,6.082 -0.417,2.941 -3.139,4.984 -6.08,4.568 z"
   id="path107"
   inkscape:connector-curvature="0"
   style="fill:#9b6948" />
	</g>
	<g
   id="g109"
   transform="matrix(1.1248032,0,0,1.3800691,7.4881893e-4,-26.866705)"
   inkscape:export-filename="C:\Wyneos\Cloud\AnimalWebAction\brainstorming\v4.7\g12112.png"
   inkscape:export-xdpi="90"
   inkscape:export-ydpi="90">
		<path
   d="m 51.643,68.049 c -3.592,0.552 -7.38,0.85 -11.291,0.85 -18.706,0 -34.508,-6.667 -40.068,-15.991 -0.1,0.556 -0.195,1.093 -0.29,1.629 5.392,9.451 21.419,16.152 40.358,16.152 3.914,0 7.704,-0.296 11.301,-0.85 l -0.01,-1.79 z"
   id="path111"
   inkscape:connector-curvature="0"
   style="fill:#6bb283" />
		<g
   id="g113">
			<path
   d="m 79.749,53.966 c -1.047,1.505 -2.348,2.939 -3.909,4.272 l 0.012,-1.152 -1.989,-2.574 -1.107,-0.007 v 3.648 l 3.032,1.821 v 0.018 c 0.005,-0.004 0.008,-0.008 0.013,-0.012 l 0.023,0.013 v -0.034 c 1.693,-1.449 3.098,-2.964 4.184,-4.555 -0.085,-0.468 -0.172,-0.954 -0.259,-1.438 z"
   id="path115"
   inkscape:connector-curvature="0"
   style="fill:#6bb283" />
			<g
   id="g117">
				<path
   d="M 76.399,39.025 C 75.328,35.713 74.173,32.536 72.968,29.518 68.457,36.433 55.867,41.413 41.03,41.413 24.502,41.413 10.758,35.23 7.879,27.074 6.307,30.8 4.811,34.807 3.443,39.025 1.898,43.806 0.914,49.364 0.062,54.143 5.354,63.23 21.25,68.898 40.235,68.898 c 3.912,0 7.815,-0.298 11.407,-0.85 1.647,-2.687 6.824,-7.78 10.092,-10.365 5.63,-4.465 12.04,-4.313 14.081,0.592 1.698,-1.446 3.007,-2.668 4.008,-3.897 -0.859,-4.831 -1.851,-10.493 -3.424,-15.353 z"
   id="path119"
   inkscape:connector-curvature="0"
   style="fill:#81d178" />
			</g>
		</g>
	</g>
	<g
   id="g121"
   transform="matrix(1.3028882,0,0,1.3236802,-1.7920807,-21.589143)"
   inkscape:export-xdpi="90"
   inkscape:export-ydpi="90">
		<g
   id="g123">
			<g
   id="g125">
				<g
   id="g127">
					<path
   d="m 27.989,50.298 c -0.047,-0.009 -0.093,-0.019 -0.138,-0.023 -0.543,-0.057 -1.019,0.313 -1.082,0.887 -0.07,0.614 0.357,1.241 0.962,1.382 0.046,0.01 0.093,0.019 0.14,0.023 0.547,0.059 1.017,-0.311 1.08,-0.879 0.069,-0.628 -0.357,-1.249 -0.962,-1.39 z"
   id="path129"
   inkscape:connector-curvature="0"
   style="fill:none" />
					<path
   d="m 32.822,53.758 c 0.047,0.01 0.092,0.018 0.137,0.023 0.548,0.057 1.019,-0.318 1.082,-0.886 0.076,-0.623 -0.357,-1.242 -0.962,-1.381 -0.046,-0.013 -0.091,-0.02 -0.137,-0.024 -0.544,-0.059 -1.019,0.311 -1.083,0.885 -0.068,0.614 0.358,1.24 0.963,1.383 z"
   id="path131"
   inkscape:connector-curvature="0"
   style="fill:none" />
					<path
   d="m 21.926,56.717 c 0.01,0.002 0.02,0.005 0.029,0.006 0.104,0.012 0.26,-0.035 0.505,-0.125 0.629,-0.232 1.186,-0.866 1.632,-1.769 0.619,-1.244 1.029,-3.014 1.182,-4.937 0.15,-1.882 1.1,-3.522 2.273,-4.815 0.376,-0.427 1.133,-0.851 0.466,-1.006 -0.052,-0.012 -0.112,-0.022 -0.179,-0.028 -1.48,-0.156 -6.292,1.124 -7.592,3.733 l 0.026,2.855 c 0,10e-4 0,10e-4 0,10e-4 2.07,4.472 1.216,5.981 1.658,6.085 z"
   id="path133"
   inkscape:connector-curvature="0"
   style="fill:#ffffff" />
					<path
   d="m 40.93,52.503 c -0.839,-3.152 -5.282,-6.607 -6.475,-6.897 -0.038,-0.009 -0.073,-0.015 -0.104,-0.019 -0.5,-0.052 0.068,0.647 0.317,1.187 0.823,1.78 1.357,3.768 1.076,5.621 -0.287,1.889 -0.291,3.757 0.015,5.225 0.221,1.064 0.601,1.919 1.142,2.423 0.239,0.223 0.382,0.343 0.485,0.367 0.006,0.002 0.013,0.003 0.02,0.003 0.4,0.042 -0.004,-1.769 2.91,-4.989 0.313,-0.347 0.515,-0.721 0.63,-1.111 l -0.016,-1.81 z"
   id="path135"
   inkscape:connector-curvature="0"
   style="fill:#ffffff" />
					<path
   d="m 32.855,63.113 c 0.088,-0.762 -0.06,-1.211 1.843,-3.842 0.167,-0.229 0.327,-0.469 0.487,-0.704 -0.146,-0.463 -0.266,-0.985 -0.34,-1.546 -0.203,-1.444 -0.17,-3.118 0.091,-4.845 0.103,-0.656 0.089,-1.364 -0.027,-2.12 -0.101,-0.604 -0.263,-1.238 -0.498,-1.878 -0.397,-1.081 -0.913,-1.93 -0.913,-1.93 -0.16,-0.335 -0.175,-0.597 -0.145,-0.808 -1.124,-0.685 -2.09,-0.87 -2.09,-0.87 -0.002,-0.003 -0.316,-0.094 -0.815,-0.147 -0.369,-0.038 -0.84,-0.055 -1.361,0.003 -0.011,0.21 -0.091,0.457 -0.312,0.695 0,0 -0.68,0.565 -1.297,1.399 -0.367,0.492 -0.668,1.021 -0.893,1.557 -0.279,0.648 -0.449,1.316 -0.496,1.985 -0.141,1.762 -0.492,3.36 -1.002,4.629 -0.199,0.495 -0.419,0.934 -0.667,1.304 0.091,0.3 0.196,0.595 0.3,0.896 1.213,3.375 0.972,3.73 0.891,4.488 -0.051,0.435 0.505,0.936 1.359,1.024 0.518,0.054 1.145,-0.042 1.813,-0.394 l 0.157,-1.363 c -0.573,-0.408 -1.227,-1.263 -1.157,-1.871 0.068,-0.563 0.504,-0.681 1.108,-0.616 0.237,0.023 0.501,0.077 0.778,0.143 l 0.015,0.01 h 0.014 c 0.985,0.231 1.768,0.54 1.68,1.316 -0.075,0.608 -0.878,1.118 -1.507,1.244 l -0.158,1.355 c 0.77,0.896 1.568,1.284 2.172,1.354 l 0.041,0.005 c 0.526,0.051 0.891,-0.149 0.929,-0.473 z M 27.871,52.566 c -0.047,-0.005 -0.094,-0.014 -0.14,-0.023 -0.604,-0.141 -1.032,-0.768 -0.962,-1.382 0.063,-0.574 0.539,-0.943 1.082,-0.887 0.045,0.005 0.091,0.015 0.138,0.023 0.604,0.142 1.03,0.762 0.962,1.39 -0.063,0.569 -0.533,0.938 -1.08,0.879 z m 5.071,-1.076 c 0.046,0.005 0.091,0.012 0.137,0.024 0.604,0.139 1.038,0.758 0.962,1.381 -0.063,0.567 -0.534,0.942 -1.082,0.886 -0.045,-0.006 -0.09,-0.014 -0.137,-0.023 -0.605,-0.143 -1.031,-0.769 -0.963,-1.383 0.065,-0.574 0.539,-0.943 1.083,-0.885 z"
   id="path137"
   inkscape:connector-curvature="0"
   style="fill:#ffffff" />
				</g>
			</g>
		</g>
	</g>
</g>
</svg>